<svg width="97" height="89" viewBox="0 0 97 89" fill="none" xmlns="http://www.w3.org/2000/svg">
<path d="M68.4125 -5.50246C62.9382 -2.19066 58.3499 2.5551 52.5502 5.25234C46.165 8.2196 38.8845 8.44618 32.1089 10.355C20.2432 13.6979 10.038 22.5159 4.99739 33.7828C-0.0432336 45.0497 0.173634 58.5514 5.57673 69.6476C7.15987 72.9005 9.20462 75.995 11.996 78.2949C17.9816 83.23 26.427 83.8073 34.1382 83.019C41.8494 82.2306 49.5451 80.3062 57.2563 81.0884C62.647 81.6377 67.8518 83.4969 73.258 83.8694C78.6363 84.2388 84.0208 83.1152 89.1389 81.4174C98.7337 78.2328 107.855 72.7918 113.809 64.6101C119.764 56.4284 122.106 45.2546 118.292 35.8779C114.794 27.2741 106.835 21.2557 102.495 13.043C100.438 9.15076 99.2387 4.84263 97.0793 1.00629C91.4718 -8.96013 77.7812 -11.1701 68.4125 -5.50246Z" fill="#808AFF"/>
<path d="M41.0685 -6.67233C40.1329 -6.20986 39.2097 -5.68842 38.4754 -4.9466C37.7629 -4.22651 37.261 -3.3326 36.7746 -2.44491C35.9133 -0.868159 35.052 0.969312 35.6685 2.65469C36.0744 3.76276 37.072 4.57597 38.1749 4.99499C39.2778 5.4109 40.4768 5.47918 41.6541 5.46367C45.2231 5.41711 48.7797 4.63494 52.042 3.18545C53.0241 2.74781 53.9907 2.24499 54.8055 1.54352C55.6327 0.832742 56.2895 -0.0673693 56.7883 -1.03887C57.6589 -2.73356 58.009 -4.9435 56.841 -6.45196C56.0076 -7.52899 54.6135 -7.97905 53.2813 -8.24908C48.9935 -9.11816 45 -8.61844 41.0685 -6.67233Z" fill="#808AFF"/>
<path d="M96.1096 82.9296C96.0538 82.9296 95.998 82.9048 95.9639 82.8551C95.902 82.7744 95.9206 82.6596 96.0011 82.5975C102.405 77.7586 107.402 71.2716 110.448 63.841C110.971 62.5653 111.259 60.6689 110.661 59.5143C110.404 59.0177 110.001 58.7042 109.469 58.5862C108.759 58.4248 108.022 58.7135 107.384 58.999C106.048 59.5888 104.753 60.3026 103.536 61.1189C102.941 61.5162 102.352 61.9477 101.791 62.3946C101.723 62.4474 101.627 62.5436 101.513 62.6554C100.949 63.2047 100.49 63.6175 100.131 63.481C100.041 63.4468 99.9915 63.3475 100.019 63.2575C100.109 62.9533 100.218 62.6678 100.32 62.3915C100.555 61.7645 100.775 61.1686 100.788 60.4454C100.797 59.8712 100.67 59.4677 100.41 59.2473C100.174 59.0487 99.8118 58.9804 99.3347 59.0394C98.272 59.1728 97.2837 59.7781 96.6238 60.6968C96.5774 60.762 96.4906 60.7899 96.4163 60.762C96.3388 60.7341 96.2892 60.6627 96.2923 60.5789C96.314 60.0978 96.4132 59.6043 96.5092 59.1294C96.5588 58.8842 96.6084 58.639 96.6455 58.3969C97.5409 52.7231 97.987 46.9344 97.9653 41.1923C97.9591 39.1841 97.5905 34.4353 94.3312 33.6593C92.3175 33.1813 90.3037 34.6308 89.0862 36.1455C86.1275 39.8359 85.4304 44.9324 84.8696 49.0295C84.8572 49.1226 84.7767 49.1878 84.6837 49.1878C84.5908 49.1847 84.5133 49.1133 84.5041 49.0202C84.4018 47.9028 83.776 46.8289 82.7877 46.0778C81.7994 45.3266 80.5973 45.0131 79.4944 45.2149C78.3915 45.4197 77.3846 46.1429 76.7278 47.1982C76.2848 47.909 76.0493 48.6974 76.0369 49.464C76.1732 49.8396 76.2259 50.2338 76.1794 50.6311C76.1701 50.718 76.0989 50.7863 76.0121 50.7925C75.9161 50.7987 75.8448 50.7428 75.8201 50.659C75.7178 50.2928 75.6682 49.9141 75.6682 49.5292C75.501 49.1133 75.2097 48.7253 74.807 48.4056C73.8837 47.6669 72.5732 47.4124 71.5478 47.7725C69.4844 48.4988 68.4094 50.7708 68.0903 52.6548C68.0903 52.6548 68.0903 52.6548 68.0903 52.6579C68.0748 52.7572 67.9818 52.8224 67.8796 52.81C67.7805 52.7945 67.7123 52.6982 67.7278 52.5989C67.8982 51.5374 67.4149 50.5162 66.3956 49.7899C65.0201 48.8091 63.1178 48.6353 61.7701 49.3647C59.1058 50.8111 58.1887 54.1664 57.8882 56.727C57.8789 56.8201 57.7984 56.8884 57.7054 56.8884C57.7054 56.8884 57.7023 56.8884 57.6992 56.8884C57.6032 56.8853 57.5288 56.8108 57.5226 56.7177L56.9371 47.4466C56.7884 45.0721 56.1006 41.0185 53.1822 40.5622C50.4094 40.1277 48.5381 43.4209 48.0331 44.4389C46.4624 47.5955 45.6538 51.1153 45.6848 54.6412C45.6972 54.7933 45.7003 54.9454 45.6941 55.0975C45.6879 55.1968 45.6011 55.2682 45.5082 55.2713C45.409 55.2713 45.3285 55.1906 45.3254 55.0944C45.3223 54.9485 45.3192 54.8057 45.3161 54.6599C45.2324 53.7256 44.7306 52.8007 43.9188 52.124C42.9863 51.345 41.8059 51.0284 40.7619 51.2767C39.7178 51.525 38.8039 52.3351 38.3144 53.4494C37.828 54.5636 37.8497 55.7866 38.3763 56.7239C38.4197 56.7984 38.4042 56.8946 38.3392 56.9505C38.2741 57.0064 38.1781 57.0126 38.1099 56.9629C37.0101 56.1714 36.6197 54.7778 36.2417 53.4276C35.8235 51.9378 35.4269 50.5287 34.1381 50.0538C32.809 49.5634 31.325 50.5597 30.7116 51.7671C30.0424 53.0831 30.0641 54.6599 30.0827 56.0504C30.0827 56.1435 30.0176 56.2211 29.9247 56.2335C29.8349 56.249 29.7481 56.1901 29.7202 56.1032C28.1247 50.5504 24.7199 45.5563 20.1409 42.0459C18.1829 40.5436 15.4318 39.6621 14.019 41.2668C13.387 41.9869 13.2259 43.036 13.1453 44.0603C12.6744 50.1407 13.954 56.4756 16.7484 61.8949C16.7918 61.9756 16.767 62.0749 16.6927 62.1277C16.6183 62.1805 16.5161 62.1711 16.4541 62.1029C15.6517 61.24 14.7409 60.2654 13.5822 59.806C12.5474 59.3963 11.0665 59.4925 10.3632 60.4796C10.0039 60.9855 9.90163 61.6373 9.85826 62.1494C9.71574 63.7386 9.96979 65.3557 10.5956 66.8238C10.6328 66.9138 10.5956 67.0162 10.5089 67.0597C10.4221 67.1031 10.3168 67.0721 10.2672 66.9883C9.36256 65.4085 8.21006 63.6672 6.5185 62.6988C5.00352 61.8328 2.66755 61.6714 1.31987 63.0744C-1.11524 65.6133 1.73812 69.8594 3.0796 71.5665C6.10645 75.4214 9.53915 79.7947 14.3505 81.9178C14.4435 81.9581 14.4837 82.0667 14.4435 82.1599C14.4032 82.253 14.2947 82.2964 14.2018 82.253C9.30679 80.0927 5.84621 75.6822 2.79147 71.793C1.39113 70.0083 -1.58305 65.5667 1.05343 62.8167C2.53123 61.2772 5.06239 61.4417 6.69819 62.376C7.97461 63.1054 8.95051 64.2445 9.74363 65.4333C9.47719 64.3532 9.38734 63.2265 9.48958 62.1153C9.53915 61.5597 9.65068 60.8458 10.0627 60.2654C10.8837 59.1139 12.5226 58.9897 13.7154 59.4646C14.5612 59.7998 15.2706 60.3802 15.8965 60.9979C13.4056 55.7121 12.3274 49.8738 12.7798 44.0292C12.8634 42.9398 13.04 41.8224 13.7433 41.0216C15.3109 39.2369 18.2727 40.1494 20.3639 41.751C24.6889 45.0659 27.976 49.6782 29.714 54.843C29.7388 53.7473 29.8689 52.6113 30.3832 51.5964C31.0679 50.2524 32.744 49.1475 34.262 49.7061C35.7306 50.2462 36.1674 51.8105 36.5949 53.3252C36.8738 54.3153 37.1588 55.3303 37.7257 56.0721C37.4965 55.1999 37.5801 54.2129 37.9798 53.2973C38.5127 52.0775 39.5226 51.1867 40.6782 50.9135C41.8338 50.6404 43.135 50.9849 44.1543 51.8354C44.6748 52.2699 45.0775 52.7976 45.344 53.3687C45.4927 50.2152 46.2982 47.102 47.7047 44.2713C48.2407 43.1974 50.2204 39.7273 53.238 40.196C56.4073 40.6895 57.1447 44.9324 57.3027 47.4186L57.786 55.0634C58.2755 52.7541 59.335 50.2617 61.5936 49.0357C63.059 48.2411 65.1192 48.4274 66.6063 49.4827C67.3343 50.001 67.8176 50.659 68.019 51.3853C68.5519 49.7186 69.6424 48.0456 71.4238 47.4217C72.5794 47.0151 73.9984 47.2883 75.0331 48.1139C75.3089 48.3342 75.5412 48.5826 75.7209 48.8495C75.8201 48.2132 76.0524 47.58 76.4149 46.9965C77.1244 45.8512 78.2242 45.069 79.4263 44.8455C80.6283 44.6221 81.9357 44.9604 83.0077 45.7767C83.776 46.3602 84.343 47.1269 84.6435 47.9649C85.198 44.0168 86.0159 39.3735 88.8011 35.9065C89.4238 35.1274 91.6731 32.6381 94.4149 33.2931C95.8679 33.6376 98.3123 35.1243 98.3309 41.183C98.3495 46.9437 97.9034 52.751 97.0049 58.4434C96.9646 58.6886 96.9151 58.9401 96.8655 59.1915C96.8128 59.4553 96.7571 59.7253 96.7168 59.9923C97.4108 59.2598 98.3185 58.7818 99.2851 58.6607C99.8707 58.5862 100.326 58.6855 100.642 58.9525C100.995 59.2504 101.163 59.7377 101.15 60.4392C101.138 61.2276 100.905 61.8484 100.658 62.5064C100.589 62.6864 100.521 62.8695 100.456 63.0588C100.713 62.9037 101.098 62.5281 101.249 62.3791C101.373 62.2581 101.482 62.1525 101.553 62.0936C102.123 61.6373 102.718 61.2028 103.322 60.7993C104.558 59.9705 105.872 59.2473 107.226 58.6483C107.969 58.3193 108.762 58.0399 109.54 58.2138C110.184 58.3596 110.668 58.7352 110.977 59.3311C111.634 60.5944 111.352 62.5715 110.779 63.9652C107.709 71.4609 102.671 78.0007 96.2118 82.8768C96.187 82.9172 96.1467 82.9296 96.1096 82.9296Z" fill="#8E97FD"/>
<path d="M81.2133 83.354C81.1451 83.3571 81.08 83.3105 81.0646 83.2392C80.2498 79.7908 79.6921 76.2524 79.4071 72.7203C79.3296 71.7612 79.2553 70.6283 79.2955 69.4861C79.4133 66.106 80.5038 62.729 82.4525 59.7152C84.2556 56.9248 86.8146 54.4542 89.8477 52.5639C89.9158 52.5205 90.0088 52.5422 90.0522 52.6105C90.0955 52.6788 90.0739 52.7719 90.0057 52.8153C87.0067 54.6807 84.4818 57.1204 82.7035 59.8735C80.7857 62.8407 79.7107 66.168 79.5961 69.4923C79.5558 70.6189 79.6301 71.7425 79.7076 72.6923C79.9926 76.209 80.5472 79.7349 81.3558 83.1678C81.3744 83.2485 81.3248 83.3261 81.2473 83.3447C81.2319 83.3509 81.2226 83.354 81.2133 83.354Z" fill="#565D70"/>
<path d="M90.3534 51.5956C90.4959 51.4683 90.6663 51.3721 90.8398 51.2914C91.3789 51.0338 92.0047 50.8755 92.5716 51.0617C92.6243 51.0773 92.6739 51.099 92.7141 51.1393C92.7513 51.1766 92.7699 51.2293 92.7792 51.279C92.8133 51.4745 92.7079 51.6639 92.5933 51.8222C92.2432 52.2971 91.7289 52.6354 91.1682 52.7968C90.846 52.8899 89.6966 53.1258 89.8329 52.5174C89.9042 52.1791 90.0931 51.8253 90.3534 51.5956Z" fill="#565D70"/>
<path d="M87.8004 55.0319C88.4758 54.9667 89.1574 55.0101 89.8328 55.0629C90.2634 55.0971 90.6941 55.1374 91.1247 55.1809C91.2115 55.1902 91.3168 55.2181 91.3323 55.3019C91.3509 55.395 91.2393 55.4571 91.1526 55.4974C90.5516 55.7675 90.1829 56.3851 89.6345 56.7514C89.238 57.0152 88.764 57.1363 88.2899 57.2015C87.8934 57.2542 87.4906 57.2697 87.091 57.248C86.7657 57.2294 86.428 57.1797 86.1615 56.9935C85.892 56.8042 85.7278 56.4752 85.7216 56.1461C85.7154 55.7364 86.0345 55.4912 86.3846 55.3578C86.8369 55.1809 87.3233 55.0753 87.8004 55.0319Z" fill="#565D70"/>
<path d="M83.6147 60.6964C84.2901 60.6312 84.9717 60.6746 85.6471 60.7274C86.0777 60.7615 86.5083 60.8019 86.939 60.8454C87.0257 60.8547 87.1311 60.8795 87.1466 60.9664C87.1651 61.0595 87.0536 61.1216 86.9669 61.1619C86.3658 61.432 85.9972 62.0496 85.4488 62.4159C85.0522 62.6797 84.5782 62.8008 84.1042 62.866C83.7077 62.9187 83.3049 62.9342 82.9053 62.9125C82.58 62.8939 82.2423 62.8442 81.9758 62.658C81.7063 62.4687 81.5421 62.1397 81.5359 61.8107C81.5297 61.4009 81.8488 61.1557 82.1989 61.0223C82.6512 60.8485 83.1345 60.7429 83.6147 60.6964Z" fill="#565D70"/>
<path d="M81.3811 66.0009C82.0007 65.7278 82.6637 65.554 83.3205 65.3926C83.7418 65.2901 84.1632 65.1908 84.5845 65.0977C84.6682 65.0791 84.7766 65.0729 84.82 65.1473C84.8665 65.2312 84.7828 65.3243 84.7116 65.3863C84.2252 65.8333 84.0702 66.5348 83.6644 67.0531C83.3701 67.4287 82.958 67.6925 82.5305 67.9004C82.1711 68.0743 81.7931 68.217 81.4059 68.3195C81.093 68.4033 80.7553 68.4622 80.4424 68.3691C80.1263 68.2729 79.8692 68.0153 79.7577 67.7018C79.6213 67.3169 79.8475 66.9817 80.1387 66.7458C80.5136 66.4448 80.9412 66.1933 81.3811 66.0009Z" fill="#565D70"/>
<path d="M81.1115 72.5125C81.7032 72.1773 82.3414 71.9414 82.9827 71.7148C83.3917 71.5721 83.8006 71.4324 84.2127 71.2989C84.2932 71.271 84.4017 71.2524 84.4512 71.3238C84.5039 71.4014 84.4295 71.5038 84.3676 71.5752C83.9277 72.0656 83.8409 72.7826 83.4877 73.3381C83.2337 73.7416 82.8464 74.0458 82.4406 74.2941C82.0998 74.5052 81.7373 74.6821 81.3624 74.8218C81.0588 74.9366 80.7304 75.0297 80.4113 74.9645C80.0891 74.8994 79.8041 74.6697 79.6647 74.3686C79.4912 73.9962 79.6832 73.6423 79.9497 73.3785C80.2936 73.0402 80.6932 72.7484 81.1115 72.5125Z" fill="#565D70"/>
<path d="M84.461 55.8104C84.461 55.4225 84.4486 55.0314 84.3805 54.6496C84.3278 54.3454 84.241 54.0444 84.1512 53.7495C83.8631 52.7873 83.5316 51.791 82.8221 51.0802C82.8004 51.0585 82.7756 51.0336 82.7447 51.0243C82.6672 50.9964 82.5836 51.0585 82.5526 51.1361C82.5216 51.2105 82.5278 51.2975 82.5247 51.3782C82.5185 51.5582 82.4627 51.732 82.407 51.9027C82.2614 52.3559 82.1157 52.8121 81.9701 53.2653C81.7502 53.9481 81.5302 54.6403 81.4806 55.3573C81.4311 56.0743 81.5674 56.8285 82.0042 57.3965C82.1498 57.5858 82.3264 57.7534 82.5154 57.8993C82.6951 58.039 82.8934 58.1663 83.1133 58.2159C83.4107 58.2842 83.736 58.2004 83.9653 57.9986C84.2286 57.769 84.3216 57.3934 84.3588 57.0582C84.4114 56.6423 84.4579 56.2295 84.461 55.8104Z" fill="#565D70"/>
<path d="M80.8233 60.1438C80.6622 59.7899 80.4887 59.4392 80.2688 59.1195C80.0922 58.865 79.8908 58.6291 79.6864 58.3963C79.0265 57.639 78.3108 56.8723 77.3721 56.5216C77.3411 56.5092 77.3101 56.4999 77.2791 56.503C77.1986 56.5092 77.1459 56.6023 77.149 56.683C77.1521 56.7637 77.1924 56.8413 77.2234 56.9158C77.2915 57.0834 77.3132 57.2634 77.3349 57.4403C77.3907 57.9152 77.4464 58.387 77.5022 58.8619C77.5858 59.5758 77.6726 60.2959 77.9235 60.9663C78.1745 61.6398 78.6144 62.2668 79.2464 62.6051C79.4571 62.7169 79.6863 62.7945 79.9218 62.8503C80.1418 62.9031 80.3741 62.9372 80.5972 62.8907C80.8946 62.8286 81.1579 62.6175 81.285 62.3382C81.4306 62.0185 81.3562 61.6398 81.254 61.3201C81.1239 60.9197 80.9937 60.5224 80.8233 60.1438Z" fill="#565D70"/>
<path d="M77.7005 66.4381C77.3504 66.2705 76.9911 66.1184 76.6162 66.016C76.3188 65.9353 76.0121 65.8856 75.7054 65.839C74.714 65.6869 73.673 65.5628 72.7281 65.9011C72.6971 65.9135 72.6661 65.9228 72.6444 65.9477C72.5856 66.0066 72.6072 66.1091 72.6599 66.1711C72.7157 66.2332 72.7931 66.2612 72.8675 66.3015C73.0255 66.3853 73.1587 66.5095 73.2888 66.6305C73.6358 66.9564 73.9828 67.2823 74.3329 67.6082C74.8565 68.0986 75.3862 68.5953 76.0121 68.946C76.6379 69.2967 77.3752 69.4954 78.0754 69.3433C78.3109 69.2936 78.5339 69.2036 78.7477 69.095C78.9522 68.9925 79.1473 68.8684 79.2899 68.6884C79.4788 68.4494 79.5408 68.1173 79.4603 67.8224C79.3642 67.4841 79.0668 67.242 78.7818 67.0619C78.4317 66.8416 78.0785 66.6181 77.7005 66.4381Z" fill="#565D70"/>
<path d="M77.9234 72.9253C77.5733 72.7577 77.2139 72.6056 76.839 72.5032C76.5416 72.4225 76.2349 72.3728 75.9282 72.3263C74.9368 72.1742 73.8958 72.05 72.9509 72.3883C72.9199 72.4008 72.889 72.4101 72.8673 72.4349C72.8084 72.4939 72.8301 72.5963 72.8828 72.6584C72.9385 72.7205 73.016 72.7484 73.0903 72.7887C73.2483 72.8725 73.3816 72.9967 73.5117 73.1177C73.8587 73.4437 74.2057 73.7696 74.5557 74.0955C75.0793 74.5859 75.6091 75.0825 76.2349 75.4332C76.8607 75.7839 77.5981 75.9826 78.2983 75.8305C78.5337 75.7808 78.7568 75.6908 78.9705 75.5822C79.175 75.4798 79.3702 75.3556 79.5127 75.1756C79.7017 74.9366 79.7637 74.6045 79.6831 74.3096C79.5871 73.9713 79.2897 73.7292 79.0046 73.5492C78.6514 73.3257 78.2983 73.1053 77.9234 72.9253Z" fill="#565D70"/>
<path d="M76.1923 68.7098C76.5052 67.2728 77.4966 65.5719 78.9403 65.845C79.9565 66.0374 80.5079 67.1393 80.8084 68.1325C81.4683 70.299 81.6759 72.6052 81.4157 74.8554C81.4652 71.8944 82.2769 68.9519 83.7547 66.3882C84.2256 65.5688 84.8886 64.7121 85.8274 64.6283C86.8157 64.5383 87.6862 65.4074 87.9558 66.3633C88.2253 67.3224 88.0425 68.3405 87.8566 69.3182C88.4174 63.6289 89.6628 57.3188 94.3441 54.0504C95.289 53.3893 96.3888 52.8772 97.5413 52.8772C98.6938 52.8772 99.8959 53.4917 100.339 54.5595C100.581 55.1399 100.584 55.7886 100.54 56.4155C100.172 61.6672 96.8597 66.2175 93.3712 70.1593C94.2046 69.79 95.069 69.4144 95.9799 69.402C96.8907 69.3896 97.8728 69.8365 98.2074 70.687C98.6194 71.7361 97.91 72.9093 97.027 73.6108C96.1472 74.3123 95.069 74.7685 94.3038 75.5973C95.9086 75.2217 98.0246 75.0603 98.7836 76.5284C99.1182 77.1802 99.047 77.9624 98.8952 78.6794C97.9812 82.9347 94.2604 86.4328 89.9633 87.0784C80.2074 88.5372 74.3861 76.9909 76.1923 68.7098Z" fill="#F2EDE4"/>
<path d="M84.1108 85.2411C84.1015 85.2411 84.0922 85.2411 84.0829 85.238C84.0271 85.2224 83.9962 85.1635 84.0117 85.1107C84.0798 84.8748 90.8492 61.4812 98.613 54.6745C98.6564 54.6372 98.7215 54.6403 98.7587 54.6838C98.7958 54.7273 98.7927 54.7924 98.7494 54.8297C91.032 61.5991 84.2781 84.9307 84.213 85.1666C84.1975 85.2131 84.1542 85.2411 84.1108 85.2411Z" fill="#D9C9AC"/>
<path d="M84.7769 83.053C84.7521 83.053 84.7304 83.0468 84.7119 83.0282C77.4716 77.1154 78.274 68.6047 78.2802 68.5209C78.2864 68.465 78.3391 68.4215 78.3948 68.4277C78.4506 68.434 78.494 68.4836 78.4878 68.5426C78.4785 68.6264 77.6915 77.0285 84.842 82.8668C84.8853 82.904 84.8946 82.9692 84.8575 83.0127C84.8358 83.0406 84.8048 83.053 84.7769 83.053Z" fill="#D9C9AC"/>
<path d="M86.6605 77.4228C86.6203 77.4228 86.58 77.398 86.5645 77.3607C84.6313 72.7701 85.8179 66.1621 85.8302 66.0969C85.8395 66.041 85.8922 66.0007 85.9511 66.0131C86.0068 66.0224 86.044 66.0783 86.0347 66.1341C86.0223 66.1993 84.8481 72.7453 86.7566 77.28C86.7783 77.3328 86.7535 77.3949 86.7008 77.4166C86.6884 77.4197 86.676 77.4228 86.6605 77.4228Z" fill="#D9C9AC"/>
<path d="M85.1823 84.1764C84.7145 84.1764 84.4418 84.1516 84.4264 84.1516C84.3706 84.1454 84.3272 84.0957 84.3334 84.0367C84.3396 83.9809 84.3892 83.9343 84.448 83.9436C84.5317 83.9529 92.8594 84.6792 97.0697 77.6801C97.1007 77.6304 97.1627 77.6149 97.2122 77.6459C97.2618 77.677 97.2773 77.739 97.2463 77.7887C93.7207 83.6487 87.3634 84.1764 85.1823 84.1764Z" fill="#D9C9AC"/>
<path d="M87.8008 74.3251C87.745 74.3251 87.6986 74.2816 87.6955 74.2258C87.6924 74.1699 87.7388 74.1202 87.7946 74.1171C87.8442 74.114 92.7856 73.9216 96.206 70.9605C96.2493 70.9233 96.3144 70.9264 96.3516 70.9698C96.3887 71.0133 96.3857 71.0785 96.3423 71.1157C92.8662 74.1264 87.8535 74.322 87.8039 74.3251C87.8008 74.3251 87.8008 74.3251 87.8008 74.3251Z" fill="#D9C9AC"/>
<path d="M92.3885 63.8434C92.3359 63.8434 92.2894 63.8031 92.2832 63.7472C92.2801 63.7099 92.0354 59.9729 93.8013 56.8908C93.8292 56.8411 93.8942 56.8256 93.9438 56.8536C93.9934 56.8815 94.012 56.9467 93.981 56.9963C92.246 60.0195 92.4877 63.6975 92.4908 63.7348C92.4939 63.7906 92.4505 63.8434 92.3947 63.8465C92.3947 63.8434 92.3916 63.8434 92.3885 63.8434Z" fill="#D9C9AC"/>
<path d="M94.7275 59.7306C94.6841 59.7306 94.6408 59.7026 94.6284 59.6592C94.6098 59.6033 94.6408 59.5444 94.6965 59.5288C94.7337 59.5164 98.3399 58.3742 99.3933 57.0985C99.4304 57.0551 99.4955 57.0489 99.5389 57.0861C99.5823 57.1234 99.5885 57.1885 99.5513 57.232C98.4576 58.5542 94.9072 59.6809 94.7554 59.7275C94.7492 59.7275 94.7399 59.7306 94.7275 59.7306Z" fill="#D9C9AC"/>
<path d="M91.0099 67.5861C90.7466 67.5861 90.5948 67.5427 90.5731 67.5364C90.5173 67.5178 90.4894 67.4619 90.5049 67.4061C90.5235 67.3502 90.5793 67.3192 90.635 67.3378C90.6505 67.3409 92.1934 67.7785 94.4178 65.5096C94.4581 65.4693 94.5232 65.4662 94.5634 65.5096C94.6037 65.55 94.6037 65.6152 94.5634 65.6555C92.9245 67.3285 91.645 67.5861 91.0099 67.5861Z" fill="#D9C9AC"/>
<path d="M85.4893 73.0958C85.071 73.0958 84.0672 72.8754 83.4228 70.9231C83.4042 70.8672 83.4352 70.8082 83.4879 70.7927C83.5437 70.7741 83.6025 70.8051 83.618 70.8579C84.3709 73.133 85.5822 72.8878 85.6318 72.8754C85.6875 72.8599 85.7433 72.8971 85.7557 72.953C85.7681 73.0089 85.734 73.0647 85.6783 73.0772C85.669 73.0803 85.6008 73.0958 85.4893 73.0958Z" fill="#D9C9AC"/>
<path d="M80.3217 77.587C80.3186 77.587 80.3186 77.587 80.3155 77.587C80.2443 77.5807 78.5279 77.4473 77.4529 75.2218C77.4281 75.1691 77.4498 75.107 77.5024 75.0822C77.552 75.0573 77.6171 75.0791 77.6419 75.1318C78.6642 77.2486 80.3124 77.3759 80.3279 77.379C80.3837 77.3821 80.4302 77.4318 80.424 77.4907C80.424 77.5435 80.3775 77.587 80.3217 77.587Z" fill="#D9C9AC"/>
<path d="M82.1186 80.3616C82.0969 80.3616 82.0752 80.3554 82.0566 80.3399C82.0102 80.3058 82.004 80.2406 82.038 80.194C82.0473 80.1816 83.0202 78.8594 82.2115 75.3893C82.1991 75.3334 82.2332 75.2775 82.289 75.2651C82.3448 75.2527 82.4005 75.2869 82.4129 75.3427C83.2463 78.9245 82.2425 80.2685 82.1991 80.3213C82.1775 80.3492 82.1496 80.3616 82.1186 80.3616Z" fill="#D9C9AC"/>
<path d="M88.8202 83.7603C88.811 83.7603 88.8017 83.7603 88.7955 83.7572C88.7397 83.7417 88.7056 83.6858 88.7211 83.63C88.7738 83.4251 90.044 78.5738 92.3955 77.4533C92.4481 77.4285 92.5101 77.4502 92.5349 77.503C92.5597 77.5558 92.538 77.6178 92.4853 77.6427C90.2237 78.7228 88.938 83.6331 88.9256 83.6827C88.9101 83.7293 88.8667 83.7603 88.8202 83.7603Z" fill="#D9C9AC"/>
<path d="M93.9971 83.016C93.8267 83.016 93.6687 82.9881 93.5262 82.9291C92.9375 82.6932 92.8074 82.0693 92.8012 82.0414C92.7888 81.9855 92.826 81.9296 92.8818 81.9203C92.9406 81.9079 92.9933 81.9451 93.0057 82.001C93.0057 82.0072 93.1203 82.5442 93.6067 82.7366C94.1117 82.9353 94.8615 82.7025 95.7785 82.0538C95.825 82.0196 95.89 82.0321 95.9241 82.0786C95.9582 82.1252 95.9458 82.1904 95.8993 82.2245C95.1496 82.7491 94.5145 83.016 93.9971 83.016Z" fill="#D9C9AC"/>
<rect x="53.7255" y="15.009" width="5.86056" height="14.6514" rx="2.93028" fill="#FDFFFC"/>
<rect x="43.9579" y="19.8858" width="5.86056" height="14.6514" rx="2.93028" transform="rotate(-41.7192 43.9579 19.8858)" fill="#FDFFFC"/>
<rect x="64.7735" y="15.9854" width="5.86056" height="14.6514" rx="2.93028" transform="rotate(43.4252 64.7735 15.9854)" fill="#FDFFFC"/>
<path d="M23.9698 52.9902C21.4263 52.9902 18.9137 51.671 16.491 49.0607C16.2958 48.8496 16.3082 48.5206 16.5189 48.3251C16.7295 48.1296 17.0579 48.142 17.2531 48.353C19.6201 50.9044 22.0397 52.1087 24.4376 51.9317C28.2049 51.6524 30.7175 48.0489 30.7423 48.0116C30.9065 47.7757 31.2287 47.7136 31.4641 47.8781C31.6996 48.0395 31.7615 48.3654 31.5973 48.6013C31.4827 48.7658 28.7719 52.6549 24.512 52.9715C24.3323 52.9808 24.1495 52.9902 23.9698 52.9902Z" fill="#E9F2DE"/>
<path d="M15.1469 50.1129C15.0663 50.1129 14.9858 50.1098 14.9052 50.1005C14.614 50.0664 14.363 49.9764 14.1617 49.8336C13.5265 49.3773 13.4925 48.5083 13.7868 47.9216C13.9138 47.664 14.2267 47.5585 14.4839 47.6888C14.741 47.8161 14.8432 48.1296 14.7162 48.3872C14.6078 48.6045 14.6326 48.89 14.7689 48.9893C14.8247 49.0297 14.9114 49.0545 15.0229 49.0701C15.3606 49.1073 15.7107 48.9956 15.9617 48.7659C16.2126 48.5362 16.3582 48.1979 16.3551 47.8596C16.352 47.7509 16.3365 47.6578 16.3056 47.5864C16.2405 47.4343 16.0825 47.3102 15.8997 47.2698C15.7107 47.2295 15.4846 47.276 15.3018 47.3971C15.0601 47.5523 14.7379 47.484 14.583 47.245C14.4281 47.0029 14.4963 46.6801 14.7348 46.5249C15.15 46.2549 15.6519 46.1524 16.1135 46.2518C16.6247 46.3604 17.0646 46.7173 17.2629 47.1829C17.3465 47.3785 17.3899 47.6019 17.393 47.844C17.4023 48.4772 17.1296 49.1104 16.6618 49.5387C16.2498 49.905 15.6983 50.1129 15.1469 50.1129Z" fill="#E9F2DE"/>
<path d="M15.7602 52.459C15.5402 52.459 15.3358 52.3193 15.2645 52.0958C14.5891 49.9728 16.0948 48.5947 16.1599 48.5357C16.3736 48.3433 16.702 48.365 16.8941 48.5792C17.0831 48.7934 17.0676 49.1193 16.8538 49.3117C16.8074 49.3551 15.7881 50.3111 16.2528 51.7792C16.3395 52.0524 16.1877 52.3472 15.9151 52.4341C15.8655 52.4528 15.8129 52.459 15.7602 52.459Z" fill="#E9F2DE"/>
<path d="M14.4119 52.7509C14.2106 52.7509 14.0185 52.6329 13.9348 52.4374C13.3338 51.0407 14.3221 49.3894 14.3655 49.3211C14.5142 49.0759 14.8333 48.9983 15.0811 49.1473C15.3259 49.2963 15.4033 49.616 15.2546 49.8612C15.044 50.2088 14.57 51.2765 14.8922 52.0246C15.0068 52.2884 14.886 52.5957 14.6195 52.7074C14.5514 52.7385 14.4801 52.7509 14.4119 52.7509Z" fill="#E9F2DE"/>
<path d="M86.2302 33.6715C74.8632 16.8022 57.1142 29.5683 57.1142 29.5683C57.1142 29.5683 40.5672 15.272 27.7503 31.0674C14.9334 46.8597 36.0811 71.647 55.1871 72.9661C74.3365 73.351 97.5971 50.544 86.2302 33.6715Z" fill="#93BFA8"/>
<path d="M86.2297 33.6718C79.956 24.3602 71.7398 24.0778 65.6366 25.6949C70.3643 27.6038 83.8968 34.3267 81.8707 48.2008C80.3588 58.5645 69.1096 67.3049 60.7385 72.4666C78.4534 69.0586 96.5123 48.9364 86.2297 33.6718Z" fill="#80B996"/>
<path d="M57.1138 29.5716C57.1138 29.5716 48.0859 21.7748 38.2029 24.0623C48.2005 26.2909 53.8422 31.3874 53.8422 31.3874C55.2611 30.4966 57.1138 29.5716 57.1138 29.5716Z" fill="#80B996"/>
<path d="M33.385 28.2804C31.4456 29.5157 29.8872 31.468 29.4938 33.737C29.4411 34.0349 29.4101 34.3484 29.5093 34.634C29.6704 35.0995 30.1568 35.3944 30.6463 35.4565C31.1358 35.5186 31.6253 35.3913 32.0931 35.2361C34.3981 34.4695 36.4738 33.0169 38.8624 32.5792C40.111 32.3495 41.4122 32.4054 42.6173 32.0081C43.8225 31.6139 44.9657 30.5617 44.8851 29.2954C44.7457 27.1103 41.7375 26.5361 40.0118 26.3374C37.837 26.0891 35.1881 27.132 33.385 28.2804Z" fill="#66A986"/>
<path d="M59.853 30.2325C59.7879 30.4497 59.7445 30.6856 59.8096 30.9029C59.9428 31.3405 60.454 31.533 60.9032 31.6106C62.0154 31.803 63.1803 31.6788 64.2244 31.2598C64.8812 30.996 65.5039 30.6049 65.9438 30.0493C66.6843 29.112 66.8609 26.9672 65.3273 26.691C64.15 26.4768 62.316 27.4452 61.4175 28.1094C60.708 28.6371 60.1132 29.3665 59.853 30.2325Z" fill="#66A986"/>
<path d="M56.5469 30.7854C56.3734 31.0833 56.3579 31.4899 56.5748 31.7569C56.7607 31.9866 57.0736 32.0735 57.3648 32.1293C57.6622 32.1852 57.9844 32.2193 58.2509 32.0735C58.3934 31.9959 58.5049 31.8748 58.601 31.7444C58.8612 31.403 59.0471 30.9312 58.8488 30.5495C58.7249 30.3136 58.477 30.1615 58.2168 30.0994C57.5786 29.9411 56.8908 30.2018 56.5469 30.7854Z" fill="#66A986"/>
<path d="M45.9948 40.4132C46.0753 40.8353 46.0939 41.2295 46.0815 41.6486C46.0599 42.0614 45.9979 42.4835 45.8399 42.8963C45.6881 43.3091 45.4185 43.7157 45.0282 43.9951C44.644 44.2806 44.1762 44.411 43.7332 44.4389C43.507 44.4544 43.2716 44.4327 43.0361 44.3768C42.8006 44.3148 42.5683 44.203 42.3731 44.0478C41.9734 43.7343 41.7566 43.2936 41.6419 42.8777C41.4158 42.0334 41.4499 41.2264 41.5862 40.4132C41.6172 40.2301 41.7907 40.1059 41.9734 40.137C42.1469 40.168 42.2678 40.3263 42.2523 40.5001L42.2492 40.5219C42.2151 40.8695 42.2027 41.2513 42.2244 41.6082C42.2461 41.9682 42.2926 42.3252 42.3979 42.6449C42.5032 42.9615 42.655 43.2408 42.875 43.4022C42.9834 43.4829 43.1043 43.5419 43.2406 43.576C43.38 43.604 43.5287 43.6195 43.6898 43.6071C44.012 43.5885 44.3187 43.5015 44.5542 43.3308C44.7989 43.1632 44.9755 42.9025 45.1056 42.6014C45.2358 42.2973 45.3039 41.9496 45.338 41.5958C45.3752 41.2451 45.369 40.8664 45.338 40.525L45.3349 40.5063C45.3163 40.3201 45.4526 40.1556 45.6385 40.1401C45.8089 40.1246 45.9638 40.2456 45.9948 40.4132Z" fill="#3F4553"/>
<path d="M61.2621 40.5251C61.2312 40.8665 61.225 41.2452 61.2621 41.5959C61.2931 41.9497 61.3644 42.2974 61.4945 42.6016C61.6246 42.9057 61.8012 43.1634 62.046 43.331C62.2845 43.5048 62.5881 43.5917 62.9103 43.6072C63.0683 43.6196 63.2202 43.6041 63.3596 43.5762C63.4959 43.542 63.6167 43.483 63.7251 43.4023C63.942 43.2409 64.0969 42.9616 64.2023 42.645C64.3076 42.3284 64.3541 41.9684 64.3757 41.6083C64.4005 41.2514 64.385 40.8696 64.351 40.522L64.3479 40.5003C64.3293 40.314 64.4656 40.1495 64.6515 40.134C64.8281 40.1185 64.9861 40.2426 65.014 40.4133C65.1503 41.2266 65.1844 42.0305 64.9582 42.8778C64.8436 43.2937 64.6236 43.7345 64.227 44.0479C64.0319 44.2031 63.7995 44.3149 63.564 44.377C63.3286 44.4328 63.09 44.4546 62.867 44.439C62.427 44.4142 61.9592 44.2807 61.572 43.9952C61.1847 43.7158 60.9121 43.3092 60.7603 42.8964C60.6023 42.4836 60.5403 42.0615 60.5186 41.6487C60.5062 41.2297 60.5248 40.8355 60.6054 40.4133C60.6394 40.2302 60.816 40.1092 60.9988 40.1433C61.1692 40.1743 61.2869 40.3326 61.2714 40.5034L61.2621 40.5251Z" fill="#3F4553"/>
<path d="M53.133 46.4254C52.563 46.4254 52.0549 46.3509 51.6305 46.2516C50.2952 45.935 49.4742 45.3111 49.437 45.2832C49.2914 45.1684 49.2635 44.9573 49.375 44.8114C49.4897 44.6655 49.7003 44.6376 49.8459 44.7494C49.9668 44.8425 52.8573 46.9934 56.575 44.7276C56.733 44.6314 56.9406 44.6811 57.0367 44.8394C57.1327 44.9977 57.0831 45.2056 56.9251 45.3018C55.5186 46.1585 54.2112 46.4254 53.133 46.4254Z" fill="#3F4553"/>
<path d="M95.9828 56.3363C95.2424 56.3363 94.5112 56.2649 93.7832 56.1253C87.4568 54.8993 83.9715 48.8188 83.8259 48.5612C83.6833 48.3098 83.7732 47.9932 84.0241 47.8535C84.2751 47.7139 84.5911 47.8008 84.7305 48.0522C84.7646 48.1112 88.1353 53.9774 93.9876 55.1072C97.6527 55.8149 101.532 54.5423 105.528 51.3329C105.751 51.1529 106.08 51.1902 106.259 51.4136C106.439 51.6371 106.402 51.9661 106.179 52.1462C102.706 54.9303 99.2854 56.3363 95.9828 56.3363Z" fill="#E9F2DE"/>
<path d="M49.2326 75.6723C48.8516 75.6723 48.4736 75.6661 48.0956 75.6568C47.8075 75.6475 47.5814 75.4085 47.5907 75.123C47.5999 74.8343 47.8354 74.617 48.1235 74.617C52.5848 74.7381 57.328 74.1297 61.8419 72.8571C62.5173 72.6678 63.3011 72.4164 64.0044 71.9974C64.3142 71.8112 64.3979 71.6839 64.4134 71.6094C64.4443 71.4542 64.2182 71.2121 63.9146 71.0662C63.2082 70.731 62.3562 70.7217 61.7769 70.7403C59.7445 70.8117 57.7555 71.4108 56.0206 72.4785C55.7758 72.6275 55.4567 72.553 55.3049 72.3078C55.1562 72.0626 55.2306 71.7429 55.4753 71.5908C57.3621 70.4299 59.5277 69.7781 61.7397 69.7005C62.4244 69.6757 63.4437 69.6943 64.3545 70.1258C64.9462 70.4051 65.5844 71.0135 65.4295 71.8049C65.3211 72.3636 64.8657 72.6926 64.5342 72.8913C63.7225 73.3755 62.8178 73.6641 62.1208 73.8597C57.8888 75.0516 53.4554 75.6723 49.2326 75.6723Z" fill="#E9F2DE"/>
<path d="M60.8255 75.688C56.5997 75.688 52.2778 75.0735 47.9622 73.8599C47.2651 73.6643 46.3604 73.3757 45.5487 72.8915C45.2172 72.6928 44.7618 72.3638 44.6534 71.8051C44.5016 71.0137 45.1367 70.4053 45.7284 70.126C46.6393 69.6945 47.6586 69.6759 48.3432 69.7007C50.5553 69.7783 52.7209 70.4301 54.6076 71.591C54.8524 71.74 54.9298 72.0628 54.778 72.308C54.6293 72.5532 54.3071 72.6308 54.0623 72.4787C52.3274 71.414 50.3384 70.8119 48.3061 70.7405C47.7298 70.7219 46.8778 70.7312 46.1715 71.0664C45.8648 71.2123 45.6417 71.4544 45.6727 71.6065C45.6882 71.681 45.7687 71.8113 46.0785 71.9945C46.7818 72.4135 47.5656 72.6649 48.241 72.8542C52.8541 74.1516 57.4703 74.7538 61.9594 74.6296C62.2506 74.6327 62.4861 74.85 62.4923 75.1356C62.4985 75.4242 62.2723 75.6632 61.9873 75.6694C61.6031 75.6818 61.2128 75.688 60.8255 75.688Z" fill="#E9F2DE"/>
<path d="M60.9433 76.4204C60.8442 76.6531 60.7575 76.8952 60.7544 77.1467C60.7482 77.3981 60.838 77.665 61.0332 77.8202C61.3027 78.0375 61.7179 77.994 61.9998 77.7892C62.2817 77.5843 62.4459 77.2584 62.5451 76.9263C62.7186 76.3552 62.7248 75.7344 62.5668 75.1602C62.5141 74.9708 62.4088 74.7194 62.1826 74.6884C61.9719 74.6574 61.8666 74.8498 61.7644 75.0019C61.4545 75.4582 61.1602 75.9144 60.9433 76.4204Z" fill="#E9F2DE"/>
<path d="M49.1704 76.4204C49.2696 76.6531 49.3563 76.8952 49.3594 77.1467C49.3656 77.3981 49.2758 77.665 49.0806 77.8202C48.811 78.0375 48.3959 77.994 48.114 77.7892C47.832 77.5843 47.6678 77.2584 47.5687 76.9263C47.3952 76.3552 47.389 75.7344 47.547 75.1602C47.5997 74.9708 47.705 74.7194 47.9312 74.6884C48.1418 74.6574 48.2472 74.8498 48.3494 75.0019C48.6592 75.4582 48.9536 75.9144 49.1704 76.4204Z" fill="#E9F2DE"/>
<path d="M55.6853 89.0002C64.6631 89.0002 71.9411 88.1094 71.9411 87.0106C71.9411 85.9118 64.6631 85.0211 55.6853 85.0211C46.7075 85.0211 39.4296 85.9118 39.4296 87.0106C39.4296 88.1094 46.7075 89.0002 55.6853 89.0002Z" fill="#808AFF"/>
<path d="M34.5408 84.9149C34.6089 84.918 34.674 84.8714 34.6895 84.8C35.5043 81.3517 36.062 77.8133 36.347 74.2811C36.4244 73.3221 36.4988 72.1891 36.4585 71.0469C36.3408 67.6669 35.2502 64.2899 33.3015 61.2761C31.4984 58.4857 28.9394 56.015 25.9064 54.1248C25.8382 54.0814 25.7453 54.1031 25.7019 54.1714C25.6585 54.2397 25.6802 54.3328 25.7484 54.3762C28.7473 56.2416 31.2723 58.6812 33.0506 61.4343C34.9683 64.4016 36.0434 67.7289 36.158 71.0531C36.1983 72.1798 36.1239 73.3034 36.0465 74.2532C35.7614 77.7698 35.2069 81.2958 34.3983 84.7286C34.3797 84.8093 34.4293 84.8869 34.5067 84.9056C34.5222 84.9118 34.5315 84.9149 34.5408 84.9149Z" fill="#565D70"/>
<path d="M25.4015 53.1565C25.259 53.0293 25.0886 52.933 24.9151 52.8523C24.3761 52.5947 23.7503 52.4364 23.1833 52.6227C23.1306 52.6382 23.0811 52.6599 23.0408 52.7003C23.0036 52.7375 22.985 52.7903 22.9757 52.8399C22.9416 53.0355 23.047 53.2248 23.1616 53.3831C23.5117 53.858 24.026 54.1963 24.5867 54.3577C24.9089 54.4508 26.0583 54.6867 25.922 54.0784C25.8539 53.74 25.6618 53.3862 25.4015 53.1565Z" fill="#565D70"/>
<path d="M27.954 56.5928C27.2786 56.5276 26.5971 56.571 25.9217 56.6238C25.491 56.6579 25.0604 56.6983 24.6298 56.7417C24.543 56.7511 24.4377 56.779 24.4222 56.8628C24.4036 56.9559 24.5151 57.018 24.6019 57.0583C25.2029 57.3284 25.5716 57.946 26.12 58.3123C26.5165 58.5761 26.9905 58.6972 27.4645 58.7623C27.8611 58.8151 28.2638 58.8306 28.6635 58.8089C28.9888 58.7903 29.3265 58.7406 29.5929 58.5544C29.8625 58.365 30.0267 58.036 30.0329 57.707C30.0391 57.2973 29.7199 57.0521 29.3699 56.9187C28.9175 56.7417 28.4342 56.6393 27.954 56.5928Z" fill="#565D70"/>
<path d="M32.1426 62.2573C31.4672 62.1921 30.7856 62.2355 30.1102 62.2883C29.6796 62.3224 29.249 62.3628 28.8183 62.4062C28.7316 62.4156 28.6263 62.4435 28.6108 62.5273C28.5922 62.6204 28.7037 62.6825 28.7905 62.7228C29.3915 62.9929 29.7602 63.6105 30.3085 63.9768C30.7051 64.2406 31.1791 64.3616 31.6531 64.4268C32.0497 64.4796 32.4524 64.4951 32.8521 64.4734C33.1774 64.4548 33.5151 64.4051 33.7815 64.2189C34.051 64.0295 34.2152 63.7005 34.2214 63.3715C34.2276 62.9618 33.9085 62.7166 33.5584 62.5832C33.103 62.4093 32.6197 62.3038 32.1426 62.2573Z" fill="#565D70"/>
<path d="M34.3731 67.5618C33.7535 67.2887 33.0905 67.1148 32.4337 66.9534C32.0124 66.851 31.591 66.7548 31.1697 66.6586C31.086 66.64 30.9776 66.6337 30.9342 66.7082C30.8878 66.792 30.9714 66.8852 31.0427 66.9472C31.5291 67.3942 31.684 68.0957 32.0898 68.614C32.3841 68.9896 32.7962 69.2534 33.2237 69.4613C33.5831 69.6352 33.9611 69.7779 34.3483 69.8803C34.6612 69.9642 34.9989 70.0231 35.3119 69.93C35.6279 69.8338 35.885 69.5762 35.9965 69.2627C36.1329 68.8778 35.9067 68.5426 35.6155 68.3067C35.2406 68.0056 34.8131 67.7542 34.3731 67.5618Z" fill="#565D70"/>
<path d="M34.643 74.0734C34.0513 73.7382 33.4131 73.5023 32.7718 73.2757C32.3628 73.1329 31.9539 72.9933 31.5418 72.8598C31.4613 72.8319 31.3528 72.8133 31.3032 72.8846C31.2506 72.9622 31.3249 73.0647 31.3869 73.1361C31.8268 73.6265 31.9136 74.3434 32.2668 74.899C32.5208 75.3025 32.9081 75.6067 33.3139 75.855C33.6547 76.0661 34.0172 76.243 34.3921 76.3827C34.6957 76.4975 35.0241 76.5906 35.3432 76.5254C35.6654 76.4602 35.9504 76.2306 36.0898 75.9295C36.2633 75.557 36.0712 75.2032 35.8048 74.9394C35.4609 74.6011 35.0613 74.3093 34.643 74.0734Z" fill="#565D70"/>
<path d="M31.294 57.3742C31.294 56.9862 31.3064 56.5951 31.3745 56.2134C31.4272 55.9092 31.514 55.6081 31.6038 55.3133C31.8919 54.3511 32.2234 53.3547 32.9329 52.644C32.9546 52.6222 32.9794 52.5974 33.0103 52.5881C33.0878 52.5602 33.1714 52.6222 33.2024 52.6998C33.2334 52.7743 33.2272 52.8612 33.2303 52.9419C33.2365 53.1219 33.2923 53.2958 33.348 53.4665C33.4936 53.9196 33.6393 54.3759 33.7849 54.8291C34.0048 55.5119 34.2248 56.2041 34.2744 56.921C34.3239 57.638 34.1876 58.3923 33.7508 58.9603C33.6052 59.1496 33.4286 59.3172 33.2396 59.4631C33.0599 59.6028 32.8616 59.73 32.6417 59.7797C32.3442 59.848 32.0189 59.7642 31.7897 59.5624C31.5263 59.3327 31.4334 58.9572 31.3962 58.6219C31.3436 58.206 31.2971 57.7901 31.294 57.3742Z" fill="#565D70"/>
<path d="M34.9311 61.7052C35.0922 61.3513 35.2657 61.0006 35.4856 60.6809C35.6622 60.4264 35.8636 60.1905 36.0681 59.9577C36.728 59.2004 37.4436 58.4337 38.3824 58.083C38.4133 58.0706 38.4443 58.0612 38.4753 58.0643C38.5558 58.0706 38.6085 58.1637 38.6054 58.2444C38.6023 58.3251 38.562 58.4027 38.5311 58.4772C38.4629 58.6448 38.4412 58.8248 38.4195 59.0017C38.3638 59.4766 38.308 59.9484 38.2522 60.4233C38.1686 61.1372 38.0818 61.8572 37.8309 62.5277C37.5799 63.2012 37.14 63.8282 36.508 64.1665C36.2973 64.2782 36.0681 64.3558 35.8326 64.4117C35.6126 64.4645 35.3803 64.4986 35.1572 64.4521C34.8598 64.39 34.5965 64.1789 34.4694 63.8996C34.3238 63.5799 34.3982 63.2012 34.5004 62.8815C34.6336 62.4811 34.7607 62.0838 34.9311 61.7052Z" fill="#565D70"/>
<path d="M38.0544 68.0019C38.4045 67.8342 38.7639 67.6822 39.1387 67.5797C39.4361 67.499 39.7429 67.4494 40.0496 67.4028C41.041 67.2507 42.0819 67.1266 43.0268 67.4649C43.0578 67.4742 43.0888 67.4866 43.1105 67.5114C43.1694 67.5704 43.1477 67.6728 43.095 67.7349C43.0392 67.797 42.9618 67.828 42.8874 67.8653C42.7294 67.9491 42.5962 68.0732 42.4661 68.1943C42.1191 68.5202 41.7721 68.8461 41.422 69.172C40.8984 69.6624 40.3687 70.159 39.7429 70.5097C39.117 70.8605 38.3797 71.0591 37.6795 70.907C37.4441 70.8574 37.221 70.7674 37.0072 70.6587C36.8028 70.5563 36.6076 70.4322 36.4651 70.2521C36.2761 70.0131 36.2141 69.681 36.2947 69.3862C36.3907 69.0478 36.6881 68.8057 36.9732 68.6257C37.3263 68.4022 37.6764 68.1788 38.0544 68.0019Z" fill="#565D70"/>
<path d="M37.8344 74.4862C38.1845 74.3186 38.5439 74.1665 38.9188 74.0641C39.2162 73.9834 39.5229 73.9337 39.8296 73.8872C40.821 73.7351 41.862 73.6109 42.8069 73.9492C42.8379 73.9616 42.8688 73.971 42.8905 73.9958C42.9494 74.0548 42.9277 74.1572 42.875 74.2193C42.8193 74.2813 42.7418 74.3124 42.6675 74.3496C42.5095 74.4334 42.3762 74.5576 42.2461 74.6786C41.8991 75.0045 41.5521 75.3304 41.2021 75.6563C40.6785 76.1467 40.1487 76.6434 39.5229 76.9941C38.8971 77.3448 38.1597 77.5435 37.4595 77.3914C37.2241 77.3417 37.001 77.2517 36.7873 77.1431C36.5828 77.0406 36.3876 76.9165 36.2451 76.7365C36.0561 76.4975 35.9941 76.1654 36.0747 75.8705C36.1707 75.5322 36.4682 75.2901 36.7532 75.1101C37.1033 74.8866 37.4564 74.6662 37.8344 74.4862Z" fill="#565D70"/>
<path d="M45.4184 74.9456C45.4339 74.8369 45.4463 74.7314 45.4524 74.6228C45.7839 69.787 39.817 72.4966 38.3082 74.7004C38.8411 73.6637 38.3268 72.2297 37.2611 71.7641C36.1953 71.3017 34.7981 71.91 34.4077 73.0057C34.7113 70.5412 35.018 68.0768 35.3216 65.6123C35.458 64.5105 35.5385 63.2379 34.7516 62.4557C33.8686 61.5836 32.2886 61.8691 31.4149 62.7506C30.5413 63.6321 30.2098 64.9078 29.9898 66.1338C28.921 65.0009 26.6067 65.9569 26.6469 67.515C26.7802 64.3553 26.8948 61.0838 25.7051 58.1538C24.943 56.276 23.1523 54.4199 21.1881 54.9041C19.4469 55.3324 18.6259 57.3189 18.2975 59.085C17.5416 63.1572 18.0249 67.4498 19.67 71.2489C19.1991 70.1532 17.3898 70.3643 16.7764 71.3855C16.1629 72.4097 16.4325 73.7289 16.891 74.8307C15.7509 73.6668 14.2514 72.7667 12.6249 72.7046C10.9984 72.6425 9.28205 73.5954 8.79255 75.1473C8.29995 76.7023 9.43386 78.6578 11.0604 78.7074C10.0287 78.8285 9.47104 80.1104 9.73438 81.116C11.0542 86.1597 24.4287 86.8736 28.4562 86.4732C34.5037 85.868 40.4242 82.9162 43.9994 77.9904C44.6593 77.0779 45.2542 76.0567 45.4184 74.9456Z" fill="#F2EDE4"/>
<path d="M28.351 85.5018C28.32 85.5018 28.289 85.4863 28.2673 85.4584C24.94 80.9888 23.3042 73.2448 22.5141 67.5399C21.6591 61.3633 21.5909 56.1737 21.5909 56.1209C21.5909 56.065 21.6374 56.0154 21.6931 56.0154C21.7489 56.0154 21.7954 56.0619 21.7985 56.1178C21.8016 56.3226 22.1145 76.839 28.4346 85.3342C28.4687 85.3808 28.4594 85.446 28.4129 85.4801C28.3943 85.4956 28.3727 85.5018 28.351 85.5018Z" fill="#D9C9AC"/>
<path d="M26.5012 84.5948C19.0905 84.5948 11.8905 80.327 11.8161 80.2836C11.7666 80.2556 11.7511 80.1904 11.779 80.1408C11.8099 80.0911 11.8719 80.0756 11.9215 80.1035C12.002 80.1501 19.9425 84.8555 27.6908 84.3465C27.7466 84.3465 27.7962 84.3868 27.8024 84.4427C27.8055 84.4986 27.7621 84.5482 27.7063 84.5544C27.3067 84.5824 26.9039 84.5948 26.5012 84.5948Z" fill="#D9C9AC"/>
<path d="M25.6157 80.2967C25.5785 80.2967 25.5413 80.275 25.5227 80.2377C25.4979 80.185 25.5196 80.1229 25.5692 80.0981C33.0821 76.3486 33.3609 63.4025 33.3609 63.2722C33.3609 63.2163 33.4105 63.1697 33.4663 63.1697C33.522 63.1697 33.5685 63.2163 33.5685 63.2753C33.5654 63.4056 33.2866 76.4759 25.6621 80.2843C25.6467 80.2936 25.6312 80.2967 25.6157 80.2967Z" fill="#D9C9AC"/>
<path d="M26.0673 81.8674C17.089 81.8674 11.1189 74.8807 11.0601 74.8093C11.0229 74.7658 11.0291 74.7007 11.0724 74.6634C11.1158 74.6262 11.1809 74.6324 11.2181 74.6758C11.2769 74.7472 17.2842 81.765 26.2656 81.6564C26.3213 81.6564 26.3678 81.7029 26.3709 81.7588C26.3709 81.8147 26.3244 81.8643 26.2687 81.8643C26.2005 81.8674 26.1354 81.8674 26.0673 81.8674Z" fill="#D9C9AC"/>
<path d="M24.7296 77.7113C24.7203 77.7113 24.7141 77.7113 24.7048 77.7082C19.3822 76.4232 18.1461 71.8078 18.1337 71.7643C18.1182 71.7085 18.1523 71.6526 18.2081 71.6371C18.2638 71.6216 18.3196 71.6557 18.3351 71.7116C18.3475 71.7581 19.5557 76.2494 24.7544 77.5064C24.8101 77.5189 24.8442 77.5747 24.8318 77.6306C24.8194 77.6771 24.7791 77.7113 24.7296 77.7113Z" fill="#D9C9AC"/>
<path d="M24.2579 76.0565C24.2207 76.0565 24.1836 76.0348 24.165 75.9975C24.1402 75.9448 24.1619 75.8827 24.2114 75.8579C27.1051 74.4208 28.7409 66.7481 28.7564 66.6705C28.7688 66.6147 28.8245 66.5774 28.8803 66.5898C28.9361 66.6022 28.9732 66.6581 28.9608 66.714C28.8927 67.0337 27.2879 74.5605 24.3044 76.0441C24.2889 76.0534 24.2734 76.0565 24.2579 76.0565Z" fill="#D9C9AC"/>
<path d="M22.4551 66.4064C22.4334 66.4064 22.4117 66.4002 22.39 66.3847C20.305 64.7676 19.4096 60.236 19.3724 60.0435C19.36 59.9877 19.3972 59.9318 19.4561 59.9225C19.5119 59.9101 19.5676 59.9473 19.5769 60.0063C19.5862 60.0528 20.494 64.6527 22.517 66.2202C22.5635 66.2543 22.5697 66.3195 22.5356 66.366C22.517 66.394 22.486 66.4064 22.4551 66.4064Z" fill="#D9C9AC"/>
<path d="M23.1246 70.8639C23.1091 70.8639 23.0936 70.8608 23.0781 70.8546C23.0254 70.8297 23.0038 70.7677 23.0285 70.7149C23.0533 70.6621 25.5535 65.4104 24.9153 61.4251C24.906 61.3692 24.9463 61.3165 25.002 61.3072C25.0578 61.2978 25.1136 61.3351 25.1198 61.3941C25.7673 65.4446 23.2392 70.7553 23.2144 70.808C23.202 70.8422 23.1649 70.8639 23.1246 70.8639Z" fill="#D9C9AC"/>
<path d="M27.0715 72.363C27.0343 72.363 26.9971 72.3413 26.9785 72.304C26.9413 72.2295 26.0708 70.4386 26.0212 68.7284C26.0181 68.6726 26.0646 68.6229 26.1234 68.6229C26.1823 68.6229 26.2288 68.6663 26.2288 68.7253C26.2752 70.3921 27.1551 72.1985 27.1644 72.2171C27.1892 72.2699 27.1675 72.332 27.1179 72.3568C27.1024 72.3599 27.087 72.363 27.0715 72.363Z" fill="#D9C9AC"/>
<path d="M19.4439 76.2307C18.9328 76.2307 18.3534 76.1873 17.771 76.0507C17.7152 76.0383 17.6811 75.9824 17.6935 75.9265C17.7059 75.8707 17.7648 75.8365 17.8174 75.8489C19.4811 76.2338 21.1665 75.852 21.1851 75.8489C21.2408 75.8365 21.2966 75.8707 21.309 75.9265C21.3214 75.9824 21.2873 76.0383 21.2315 76.0507C21.1851 76.0631 20.4384 76.2307 19.4439 76.2307Z" fill="#D9C9AC"/>
<path d="M18.7031 80.2962C18.6598 80.2962 18.6195 80.2714 18.604 80.228C18.5947 80.2062 17.7737 77.9498 17.058 76.8324C17.0271 76.7827 17.0394 76.7206 17.089 76.6896C17.1386 76.6586 17.2005 76.6741 17.2315 76.7206C17.9596 77.8566 18.7651 80.0635 18.7992 80.1566C18.8178 80.2093 18.7899 80.2714 18.7372 80.29C18.7279 80.2963 18.7155 80.2962 18.7031 80.2962Z" fill="#D9C9AC"/>
<path d="M15.2925 81.9971C15.2615 81.9971 15.2306 81.9815 15.2089 81.9567C15.1748 81.9102 15.181 81.845 15.2275 81.8108C15.2306 81.8077 15.6333 81.488 15.6922 80.9573C15.7355 80.5538 15.5744 80.1286 15.212 79.6909C15.1748 79.6475 15.181 79.5823 15.2244 79.545C15.2677 79.5078 15.3328 79.514 15.37 79.5575C15.7696 80.0386 15.9493 80.5197 15.8966 80.9821C15.8285 81.6029 15.3731 81.9598 15.3545 81.9753C15.339 81.9909 15.3142 81.9971 15.2925 81.9971Z" fill="#D9C9AC"/>
<path d="M11.7294 77.2454C11.2709 77.2454 10.7442 77.1523 10.1989 76.8699C10.1494 76.8419 10.1277 76.7798 10.1556 76.7302C10.1835 76.6805 10.2454 76.6588 10.295 76.6867C11.7976 77.4658 13.1886 76.696 13.2041 76.6898C13.2537 76.6619 13.3187 76.6805 13.3466 76.7302C13.3745 76.7798 13.3559 76.845 13.3063 76.873C13.2661 76.8916 12.6217 77.2454 11.7294 77.2454Z" fill="#D9C9AC"/>
<path d="M30.5634 75.1844C30.5262 75.1844 30.489 75.1627 30.4704 75.1255C30.4581 75.1006 29.256 72.6114 29.8508 70.0848C29.8632 70.0289 29.9221 69.9948 29.9747 70.0072C30.0305 70.0196 30.0646 70.0755 30.0522 70.1314C29.476 72.5896 30.6439 75.0106 30.6563 75.0355C30.6811 75.0882 30.6594 75.1503 30.6099 75.1751C30.5944 75.1813 30.5789 75.1844 30.5634 75.1844Z" fill="#D9C9AC"/>
<path d="M26.9042 83.1768C26.8639 83.1768 26.8268 83.1551 26.8113 83.1179C26.7865 83.0651 26.8082 83.003 26.8608 82.9813C26.929 82.9503 33.5713 79.7999 36.53 73.7257C36.5548 73.6729 36.6168 73.6512 36.6695 73.6791C36.7221 73.7039 36.7438 73.766 36.7159 73.8188C33.7263 79.9613 27.0158 83.1396 26.9476 83.1737C26.9352 83.1737 26.9197 83.1768 26.9042 83.1768Z" fill="#D9C9AC"/>
<path d="M28.0222 85.0419C27.9727 85.0419 27.9293 85.0047 27.92 84.955C27.9107 84.8992 27.951 84.8464 28.0068 84.8371C34.3889 83.8252 43.6057 73.7998 43.6987 73.7005C43.7358 73.6571 43.804 73.654 43.8443 73.6943C43.8877 73.7316 43.8908 73.7999 43.8505 73.8402C43.7575 73.9426 34.4911 84.0208 28.0377 85.0419C28.0315 85.0419 28.0284 85.0419 28.0222 85.0419Z" fill="#D9C9AC"/>
<path d="M32.3074 79.4588C32.2517 79.4588 32.2052 79.4153 32.2021 79.3563C32.2021 79.3346 32.1494 77.165 32.958 75.042C32.9797 74.9893 33.0386 74.9613 33.0912 74.9831C33.1439 75.0048 33.1718 75.0637 33.1501 75.1165C32.3539 77.1992 32.4066 79.3284 32.4066 79.3501C32.4128 79.4091 32.3694 79.4557 32.3074 79.4588C32.3105 79.4588 32.3105 79.4588 32.3074 79.4588Z" fill="#D9C9AC"/>
<path d="M35.0277 77.8509C34.4174 77.8509 34.0332 77.7143 33.9991 77.7019C33.9464 77.6832 33.9186 77.6212 33.9371 77.5684C33.9557 77.5156 34.0146 77.4877 34.0704 77.5063C34.089 77.5125 35.7836 78.1023 37.8036 76.69C37.8501 76.6559 37.9151 76.6683 37.9492 76.7148C37.9833 76.7614 37.9709 76.8266 37.9244 76.8607C36.7812 77.6615 35.7464 77.8509 35.0277 77.8509Z" fill="#D9C9AC"/>
<path d="M37.1806 81.4265C36.2698 81.4265 35.8484 81.023 35.8236 80.9982C35.7834 80.9578 35.7834 80.8927 35.8236 80.8492C35.8639 80.8089 35.929 80.8089 35.9693 80.8492C35.9786 80.8585 36.8522 81.6779 38.8598 80.8275C38.9125 80.8027 38.9744 80.8306 38.9961 80.8834C39.0178 80.9361 38.993 80.9982 38.9403 81.0199C38.2247 81.3241 37.6391 81.4265 37.1806 81.4265Z" fill="#D9C9AC"/>
<path d="M31.7655 83.6917C31.7097 83.6917 31.6632 83.6451 31.6601 83.5893C31.6601 83.5303 31.6446 82.1584 32.6019 81.0503C32.6391 81.0069 32.7042 81.0038 32.7476 81.041C32.7909 81.0783 32.7971 81.1435 32.7568 81.1869C31.8522 82.2329 31.8646 83.5706 31.8646 83.5862C31.8708 83.6451 31.8243 83.6917 31.7655 83.6917Z" fill="#D9C9AC"/>
<path d="M19.0752 36.7068C20.2555 36.7068 20.2555 34.8693 19.0752 34.8693C17.8948 34.8724 17.8948 36.7068 19.0752 36.7068Z" fill="#8E97FD"/>
<path d="M40.548 4.7711C41.7284 4.7711 41.7284 2.93362 40.548 2.93362C39.3676 2.93362 39.3645 4.7711 40.548 4.7711Z" fill="#8E97FD"/>
<path d="M85.071 23.1176C85.6597 23.1176 85.6628 22.1989 85.071 22.1989C84.4824 22.1989 84.4793 23.1176 85.071 23.1176Z" fill="#8E97FD"/>
<path d="M35.8175 15.8922C36.4061 15.8922 36.4092 14.9734 35.8175 14.9734C35.2288 14.9734 35.2288 15.8922 35.8175 15.8922Z" fill="#8E97FD"/>
<path d="M93.8946 22.1993C94.4832 22.1993 94.4863 21.2806 93.8946 21.2806C93.3028 21.2806 93.3028 22.1993 93.8946 22.1993Z" fill="#8E97FD"/>
<path d="M34.3955 7.74749C34.9842 7.74749 34.9873 6.82875 34.3955 6.82875C33.8069 6.82875 33.8038 7.74749 34.3955 7.74749Z" fill="#59D6B8"/>
<path d="M70.4543 74.4833C71.0429 74.4833 71.046 73.5645 70.4543 73.5645C69.8656 73.5645 69.8656 74.4833 70.4543 74.4833Z" fill="#59D6B8"/>
<path d="M13.2541 17.8474C13.8427 17.8474 13.8458 16.9287 13.2541 16.9287C12.6654 16.9287 12.6654 17.8474 13.2541 17.8474Z" fill="#59D6B8"/>
<path d="M3.43263 52.3992C4.02127 52.3992 4.02436 51.4805 3.43263 51.4805C2.84089 51.4805 2.84089 52.3992 3.43263 52.3992Z" fill="#8ABFA3"/>
<path d="M82.9648 2.02727C83.5534 2.02727 83.5565 1.10854 82.9648 1.10854C82.3761 1.10854 82.3761 2.02727 82.9648 2.02727Z" fill="#8E97FD"/>
<path d="M4.34694 42.6473C4.34694 42.6069 4.34694 42.5666 4.34694 42.5262C4.34694 42.0452 3.92559 41.5858 3.4299 41.6075C2.9342 41.6292 2.51286 42.011 2.51286 42.5262C2.51286 42.5666 2.51286 42.6069 2.51286 42.6473C2.51286 43.1284 2.9342 43.5878 3.4299 43.566C3.92869 43.5412 4.34694 43.1594 4.34694 42.6473Z" fill="#8E97FD"/>
<path d="M74.9279 1.56807C76.1082 1.56807 76.1082 -0.269394 74.9279 -0.269394C73.7475 -0.269394 73.7444 1.56807 74.9279 1.56807Z" fill="#8E97FD"/>
<path d="M14.8093 67.5647C15.9896 67.5647 15.9896 65.7272 14.8093 65.7272C13.6289 65.7272 13.6289 67.5647 14.8093 67.5647Z" fill="#E9F2DE"/>
</svg>
