<svg width="110" height="88" viewBox="0 0 110 88" fill="none" xmlns="http://www.w3.org/2000/svg">
<path d="M94.6242 -3.63141C94.6242 -3.63141 77.418 -15.0276 56.4597 -9.01588C35.4988 -3.00606 21.1914 15.781 9.19664 30.6922C-2.8 45.606 -2.27616 63.9671 9.94474 75.3454C22.1656 86.7236 34.4757 77.5595 54.3582 81.9507C74.2406 86.3419 78.881 90.4995 97.9123 83.4512C116.944 76.403 126.146 50.7889 117.837 28.0461C109.525 5.3015 94.6242 -3.63141 94.6242 -3.63141Z" fill="#F1B869"/>
<path d="M39.9087 64.5631C39.0782 64.8376 38.1792 64.384 37.905 63.5545L32.3592 46.7747C32.1213 46.0547 31.3447 45.6628 30.6262 45.9003C29.9078 46.1377 29.5176 46.9152 29.7556 47.6352L33.8954 60.161C34.1391 60.8983 33.7394 61.695 33.0037 61.9381C32.268 62.1812 31.4723 61.7797 31.2286 61.0424L28.9431 54.1272C28.767 53.5943 28.1931 53.3048 27.6615 53.4805C27.1299 53.6562 26.8416 54.2307 27.0177 54.7635L27.8677 57.3355L25.7469 58.0364L25.6517 57.7484L27.4852 57.1425L26.7303 54.8585C26.5019 54.1673 26.8766 53.4204 27.5663 53.1925C28.256 52.9645 29.002 53.341 29.2305 54.0322L31.516 60.9474C31.7073 61.5263 32.3309 61.841 32.9085 61.6501C33.4861 61.4592 33.7994 60.8349 33.6081 60.256L29.4682 47.7302C29.1779 46.8518 29.6545 45.902 30.531 45.6123C31.4075 45.3226 32.3563 45.8013 32.6466 46.6798L38.1924 63.4595C38.4142 64.1306 39.141 64.4974 39.8135 64.2751C40.4831 64.0538 40.8482 63.3261 40.6264 62.6551L33.8603 42.183C33.5081 41.1173 34.0866 39.9645 35.1499 39.6131C36.2132 39.2616 37.3647 39.8427 37.7169 40.9083L44.4516 61.2854C44.6896 62.0054 45.4662 62.3973 46.1846 62.1599C46.903 61.9224 47.2932 61.1449 47.0552 60.4249L41.6884 44.1866C41.3514 43.167 41.9049 42.064 42.9222 41.7278C43.9395 41.3916 45.0413 41.9475 45.3783 42.9671L49.3372 54.9456C49.5438 55.5706 50.2209 55.9123 50.8445 55.7062C51.4681 55.5001 51.8083 54.8222 51.6017 54.1972L49.4495 47.6852C49.201 46.9335 49.6085 46.1215 50.3585 45.8736C51.1086 45.6257 51.9225 46.034 52.1709 46.7857L52.8249 48.7644L54.9457 48.0635L55.0409 48.3515L52.6327 49.1474L51.8835 46.8807C51.6874 46.2874 51.0457 45.966 50.4537 46.1616C49.8617 46.3573 49.5417 46.9998 49.7369 47.5902L51.8891 54.1022C52.148 54.8856 51.7214 55.7359 50.9397 55.9942C50.1581 56.2526 49.3088 55.824 49.0498 55.0406L45.0909 43.0621C44.8063 42.2009 43.8766 41.7318 43.0174 42.0158C42.1581 42.2998 41.6911 43.2305 41.9758 44.0916L47.3426 60.3299C47.6329 61.2084 47.1563 62.1582 46.2798 62.4479C45.4033 62.7376 44.4545 62.2588 44.1642 61.3804L37.4295 41.0033C37.1297 40.0961 36.1503 39.6019 35.2451 39.9011C34.3398 40.2003 33.8479 41.1807 34.1477 42.088L40.9138 62.5601C41.1908 63.3886 40.7392 64.2886 39.9087 64.5631Z" fill="#FEDEA5"/>
<path d="M67.6399 55.3968C66.8094 55.6713 65.9103 55.2176 65.6362 54.3882L60.0904 37.6084C59.8525 36.8884 59.0758 36.4965 58.3574 36.7339C57.639 36.9714 57.2488 37.7489 57.4868 38.4689L61.6266 50.9947C61.8703 51.732 61.4706 52.5286 60.7349 52.7718C59.9992 53.0149 59.2035 52.6134 58.9598 51.8761L56.6743 44.9608C56.4982 44.428 55.9243 44.1385 55.3927 44.3142C54.8611 44.4899 54.5728 45.0644 54.7489 45.5972L55.5989 48.1692L53.4781 48.8701L53.3829 48.5821L55.2164 47.9761L54.4615 45.6922C54.2331 45.0009 54.6078 44.2541 55.2975 44.0261C55.9872 43.7982 56.7332 44.1746 56.9617 44.8659L59.2472 51.7811C59.4385 52.36 60.0621 52.6747 60.6397 52.4837C61.2173 52.2928 61.5306 51.6686 61.3393 51.0897L57.1994 38.5639C56.9091 37.6854 57.3857 36.7356 58.2622 36.4459C59.1387 36.1563 60.0875 36.635 60.3778 37.5134L65.9236 54.2932C66.1454 54.9643 66.8722 55.331 67.5447 55.1088C68.2143 54.8875 68.5794 54.1598 68.3576 53.4887L61.5915 33.0166C61.2393 31.951 61.8178 30.7981 62.8811 30.4467C63.9444 30.0953 65.0959 30.6764 65.4481 31.742L72.1828 52.1191C72.4208 52.8391 73.1974 53.231 73.9158 52.9935C74.6342 52.7561 75.0244 51.9786 74.7864 51.2586L69.4196 35.0203C69.0826 34.0007 69.6361 32.8977 70.6534 32.5615C71.6707 32.2252 72.7725 32.7812 73.1095 33.8008L77.0684 45.7793C77.275 46.4043 77.9521 46.746 78.5757 46.5399C79.1993 46.3338 79.5395 45.6559 79.3329 45.0309L77.1807 38.5188C76.9322 37.7671 77.3397 36.9552 78.0926 36.7063C78.8426 36.4584 79.6537 36.8677 79.9021 37.6194L80.5561 39.5981L82.6769 38.8971L82.7721 39.1851L80.3639 39.9811L79.6147 37.7144C79.4186 37.1211 78.7798 36.7987 78.1878 36.9944C77.5958 37.19 77.2729 37.8334 77.468 38.4239L79.6203 44.9359C79.8792 45.7193 79.4526 46.5695 78.6709 46.8279C77.8892 47.0862 77.04 46.6577 76.781 45.8743L72.8221 33.8957C72.5375 33.0346 71.6078 32.5655 70.7486 32.8495C69.8893 33.1335 69.4223 34.0641 69.7069 34.9253L75.0738 51.1636C75.3641 52.042 74.8875 52.9918 74.011 53.2815C73.1345 53.5712 72.1857 53.0925 71.8954 52.214L65.1607 31.837C64.8609 30.9297 63.8815 30.4356 62.9763 30.7347C62.071 31.0339 61.5791 32.0144 61.8789 32.9216L68.645 53.3937C68.922 54.2223 68.4704 55.1223 67.6399 55.3968Z" fill="#FEDEA5"/>
<path d="M95.3715 46.2317C94.541 46.5062 93.642 46.0525 93.3678 45.2231L87.822 28.4433C87.5841 27.7233 86.8075 27.3314 86.089 27.5689C85.3706 27.8063 84.9804 28.5838 85.2184 29.3038L89.3582 41.8296C89.6019 42.5669 89.2022 43.3635 88.4665 43.6067C87.7308 43.8498 86.9351 43.4483 86.6914 42.711L84.4059 35.7957C84.2298 35.2629 83.6559 34.9734 83.1243 35.1491C82.5927 35.3248 82.3044 35.8993 82.4805 36.4321L83.3305 39.0041L81.2097 39.705L81.1145 39.417L82.948 38.811L82.1931 36.5271C81.9647 35.8358 82.3394 35.089 83.0291 34.8611C83.7188 34.6331 84.4648 35.0095 84.6933 35.7008L86.9788 42.616C87.1701 43.1949 87.7937 43.5096 88.3713 43.3187C88.9489 43.1278 89.2622 42.5035 89.0709 41.9246L84.931 29.3988C84.6407 28.5204 85.1173 27.5705 85.9938 27.2808C86.8703 26.9912 87.8191 27.4699 88.1094 28.3483L93.6552 45.1281C93.877 45.7992 94.6038 46.1659 95.2763 45.9437C95.9488 45.7214 96.311 44.9947 96.0892 44.3236L89.3231 23.8515C88.9709 22.7859 89.5494 21.6331 90.6127 21.2816C91.676 20.9302 92.8275 21.5113 93.1797 22.5769L99.9144 42.954C100.152 43.674 100.929 44.0659 101.647 43.8284C102.366 43.591 102.756 42.8135 102.518 42.0935L97.1512 25.8552C96.8142 24.8356 97.3677 23.7326 98.385 23.3964C99.4023 23.0601 100.504 23.6161 100.841 24.6357L104.8 36.6142C105.007 37.2392 105.684 37.5809 106.307 37.3748C106.931 37.1687 107.271 36.4908 107.065 35.8658L104.912 29.3538C104.664 28.602 105.071 27.7901 105.824 27.5413C106.574 27.2934 107.385 27.7026 107.634 28.4543L108.288 30.433L110.408 29.732L110.504 30.0201L108.095 30.816L107.346 28.5493C107.15 27.956 106.511 27.6336 105.919 27.8293C105.327 28.0249 105.005 28.6683 105.2 29.2588L107.352 35.7708C107.611 36.5542 107.184 37.4044 106.403 37.6628C105.621 37.9211 104.772 37.4926 104.513 36.7092L100.554 24.7306C100.269 23.8695 99.3394 23.4004 98.4802 23.6844C97.621 23.9684 97.1539 24.899 97.4386 25.7602L102.805 41.9985C103.096 42.8769 102.619 43.8268 101.743 44.1164C100.866 44.4061 99.9173 43.9274 99.627 43.0489L92.8923 22.6719C92.5925 21.7646 91.6131 21.2705 90.7079 21.5697C89.8027 21.8688 89.3107 22.8493 89.6105 23.7565L96.3766 44.2286C96.6536 45.0572 96.202 45.9572 95.3715 46.2317Z" fill="#FEDEA5"/>
<path d="M52.5501 -0.222687L51.6677 -2.89259L49.8036 -0.79735L52.5501 -0.222687Z" fill="#263238"/>
<path d="M48.9942 -2.07962L48.5746 -1.94095L49.4761 0.786552L49.8957 0.647885L48.9942 -2.07962Z" fill="#263238"/>
<path d="M57.0633 -7.49692C55.1034 -6.84917 54.0435 -4.73217 54.6917 -2.77079C55.3409 -0.806524 57.4556 0.258088 59.4126 -0.388713C61.3725 -1.03647 62.4324 -3.15347 61.7841 -5.11485C61.1349 -7.07911 59.0232 -8.14467 57.0633 -7.49692ZM58.3538 -1.90451L57.2991 -1.55594L56.0607 -5.30301L57.1153 -5.65158L58.3538 -1.90451ZM60.4142 -2.5855L59.3596 -2.23693L58.1211 -5.98401L59.1758 -6.33258L60.4142 -2.5855Z" fill="#263238"/>
<path d="M96.868 12.7161C96.6295 12.7949 96.3732 12.6656 96.2942 12.4265L95.0044 8.5239C94.9253 8.28484 95.0541 8.02824 95.2926 7.94941C95.5312 7.87057 95.7875 7.99991 95.8665 8.23896L97.1563 12.1416C97.2344 12.3777 97.1065 12.6372 96.868 12.7161Z" fill="#FFDB9D"/>
<path d="M95.2861 12.6667C95.0476 12.7455 94.7913 12.6162 94.7123 12.3772L93.7632 9.50565C93.6842 9.26659 93.813 9.00999 94.0515 8.93116C94.29 8.85232 94.5464 8.98166 94.6254 9.22071L95.5744 12.0922C95.6534 12.3313 95.5247 12.5879 95.2861 12.6667Z" fill="#FFDB9D"/>
<path d="M93.8755 13.1328C93.637 13.2117 93.3807 13.0823 93.3017 12.8433L92.3527 9.97177C92.2736 9.73272 92.4024 9.47611 92.6409 9.39728C92.8795 9.31845 93.1358 9.44778 93.2148 9.68684L94.1638 12.5584C94.2428 12.7974 94.1141 13.054 93.8755 13.1328Z" fill="#FFDB9D"/>
<path d="M110.802 7.53894C110.563 7.61777 110.307 7.48844 110.228 7.24938L109.279 4.37787C109.2 4.13882 109.329 3.88221 109.567 3.80338C109.806 3.72455 110.062 3.85388 110.141 4.09293L111.09 6.96445C111.169 7.2035 111.04 7.46011 110.802 7.53894Z" fill="#FFDB9D"/>
<path d="M109.391 8.00505C109.152 8.08388 108.896 7.95455 108.817 7.71549L107.868 4.84398C107.789 4.60493 107.917 4.34832 108.156 4.26949C108.395 4.19066 108.651 4.31999 108.73 4.55905L109.679 7.43056C109.758 7.66961 109.629 7.92622 109.391 8.00505Z" fill="#FFDB9D"/>
<path d="M98.2791 12.2494C98.0406 12.3283 97.7843 12.1989 97.7053 11.9599L96.4155 8.05727C96.3365 7.81821 96.4652 7.56161 96.7037 7.48278C96.9423 7.40394 97.1986 7.53328 97.2776 7.77233L98.5674 11.6749C98.6455 11.9111 98.5148 12.1715 98.2791 12.2494Z" fill="#FFDB9D"/>
<path d="M99.9135 12.4695C99.675 12.5483 99.4187 12.419 99.3397 12.1799L97.5958 6.90347C97.5168 6.66442 97.6456 6.40782 97.8841 6.32898C98.1226 6.25015 98.3789 6.37949 98.4579 6.61854L100.202 11.895C100.281 12.134 100.152 12.3906 99.9135 12.4695Z" fill="#FFDB9D"/>
<path d="M101.683 13.0865C101.444 13.1654 101.188 13.036 101.109 12.797L98.6501 5.35757C98.5711 5.11852 98.6998 4.86192 98.9384 4.78308C99.1769 4.70425 99.4332 4.83359 99.5122 5.07264L101.971 12.5121C102.049 12.7482 101.921 13.0077 101.683 13.0865Z" fill="#FFDB9D"/>
<path d="M108.153 8.9861C107.915 9.06494 107.658 8.9356 107.579 8.69655L106.29 4.79395C106.211 4.55489 106.339 4.29829 106.578 4.21946C106.816 4.14062 107.073 4.26996 107.152 4.50901L108.442 8.41161C108.52 8.64779 108.389 8.90822 108.153 8.9861Z" fill="#FFDB9D"/>
<path d="M106.742 9.45273C106.503 9.53156 106.247 9.40223 106.168 9.16318L104.878 5.26057C104.799 5.02152 104.928 4.76492 105.166 4.68609C105.405 4.60725 105.661 4.73659 105.74 4.97564L107.03 8.87824C107.108 9.11441 106.98 9.3739 106.742 9.45273Z" fill="#FFDB9D"/>
<path d="M105.557 10.6045C105.319 10.6833 105.063 10.554 104.984 10.3149L103.24 5.0385C103.161 4.79945 103.289 4.54284 103.528 4.46401C103.767 4.38518 104.023 4.51451 104.102 4.75356L105.846 10.03C105.925 10.2691 105.796 10.5257 105.557 10.6045Z" fill="#FFDB9D"/>
<path d="M104.504 12.1538C104.266 12.2326 104.01 12.1033 103.931 11.8643L101.472 4.42484C101.393 4.18578 101.522 3.92918 101.76 3.85035C101.999 3.77151 102.255 3.90085 102.334 4.1399L104.793 11.5793C104.871 11.8155 104.743 12.075 104.504 12.1538Z" fill="#FFDB9D"/>
<path d="M103.547 13.9936C103.309 14.0724 103.053 13.9431 102.974 13.704L99.6058 3.51404C99.5268 3.27499 99.6556 3.01838 99.8941 2.93955C100.133 2.86072 100.389 2.99005 100.468 3.2291L103.836 13.4191C103.915 13.6581 103.786 13.9147 103.547 13.9936Z" fill="#FFDB9D"/>
<path d="M17.431 28.0737C16.5539 26.6448 14.7831 25.9745 13.1681 26.5082C11.5416 27.0458 10.5113 28.6642 10.6833 30.3517C9.09169 31.1589 8.29549 33.0418 8.86568 34.767C9.46443 36.5786 11.313 37.6193 13.1691 37.188L13.001 36.4672C11.5213 36.8125 10.0447 35.9811 9.56687 34.5352C9.08712 33.0836 9.81767 31.494 11.227 30.9164L11.5019 30.8032L11.4489 30.5076C11.1883 29.0826 12.0267 27.665 13.4004 27.211C14.7769 26.7561 16.2959 27.3977 16.9348 28.7041L17.0931 29.0287L17.4199 28.8792C17.5195 28.8335 17.6201 28.7907 17.7236 28.7565C19.2524 28.2512 20.906 29.088 21.4115 30.6174C21.9179 32.1496 21.0848 33.8051 19.5588 34.3094L19.7911 35.0122C21.705 34.3796 22.7467 32.3038 22.1127 30.3856C21.474 28.4434 19.3536 27.3807 17.431 28.0737Z" fill="#4A5161"/>
<path d="M17.2144 31.2666C17.1782 31.1572 17.0913 31.0677 16.9803 31.0309C16.8693 30.9941 16.7477 31.012 16.6519 31.0788L13.3323 33.3899C13.1972 33.4825 13.1423 33.654 13.1937 33.8095L14.5901 38.0347C14.4542 38.0285 14.3125 38.0434 14.1774 38.088C13.5797 38.2856 13.2549 38.9328 13.4529 39.5319C13.6509 40.131 14.2974 40.4572 14.8952 40.2597C15.4613 40.0726 15.7764 39.4828 15.6425 38.9137L15.654 38.9099L14.5888 35.687L17.2795 33.8169L17.8963 35.6832C17.7633 35.6761 17.6254 35.6929 17.4903 35.7376C16.8926 35.9351 16.5678 36.5824 16.7658 37.1815C16.9638 37.7805 17.6103 38.1068 18.2081 37.9092C18.8058 37.7116 19.1306 37.0644 18.9326 36.4653C18.9307 36.4596 18.9259 36.4547 18.924 36.449L17.2115 31.2676L17.2144 31.2666ZM17.0358 33.0796L14.3461 34.9526L13.9777 33.8379L16.6684 31.9679L17.0358 33.0796Z" fill="#4A5161"/>
<path d="M46.9754 15.0273C46.8431 14.627 47.2463 14.0145 47.0699 13.6447C46.8878 13.2672 46.1584 13.2016 45.9303 12.8585C45.7002 12.5096 45.9313 11.8103 45.6629 11.4996C45.3897 11.1842 44.6666 11.3113 44.3589 11.0361C44.0473 10.7589 44.0918 10.0253 43.7466 9.79118C43.4015 9.55703 42.7394 9.8685 42.3683 9.68126C41.9972 9.49401 41.8521 8.77523 41.4589 8.63682C41.0695 8.50035 40.5048 8.97133 40.0971 8.88563C39.6933 8.80185 39.3643 8.14386 38.9489 8.11183C38.5373 8.08174 38.1178 8.68362 37.7013 8.70625C37.2915 8.72987 36.8034 8.17877 36.3925 8.25705C35.9903 8.33248 35.7411 9.02506 35.3416 9.15708C34.9422 9.28909 34.3303 8.88433 33.9614 9.06057C33.5848 9.24253 33.5202 9.9731 33.178 10.2012C32.8301 10.4312 32.1317 10.1988 31.822 10.4673C31.5075 10.7406 31.6353 11.465 31.361 11.773C31.0847 12.0847 30.3524 12.0392 30.1191 12.3847C29.8859 12.7301 30.1977 13.3938 30.0112 13.7653C29.8248 14.1368 29.1075 14.2812 28.9699 14.675C28.8342 15.0649 29.3051 15.6312 29.22 16.0395C29.137 16.4439 28.4806 16.7727 28.4492 17.1888C28.4197 17.6011 29.021 18.0221 29.0442 18.4394C29.0683 18.8499 28.5188 19.3382 28.5975 19.7499C28.6762 20.152 29.365 20.4036 29.4973 20.8039C29.6296 21.2042 29.2264 21.8167 29.4028 22.1865C29.585 22.564 30.3143 22.6296 30.5425 22.9727C30.7725 23.3216 30.5414 24.021 30.8099 24.3316C31.0831 24.647 31.8061 24.5199 32.1138 24.7952C32.4254 25.0724 32.3809 25.8059 32.7261 26.04C33.0712 26.2742 33.7333 25.9627 34.1044 26.15C34.4755 26.3372 34.6206 27.056 35.0138 27.1944C35.4032 27.3309 35.9679 26.8599 36.3756 26.9456C36.7794 27.0294 37.1084 27.6874 37.5239 27.7194C37.9355 27.7495 38.3549 27.1476 38.7714 27.125C39.1812 27.1013 39.6693 27.6524 40.0802 27.5742C40.4814 27.4958 40.7316 26.8062 41.1311 26.6741C41.5305 26.5421 42.1425 26.9469 42.5114 26.7706C42.8879 26.5887 42.9525 25.8581 43.2947 25.63C43.6426 25.4 44.341 25.6324 44.6507 25.3639C44.9653 25.0906 44.8374 24.3662 45.1118 24.0582C45.388 23.7465 46.1203 23.792 46.3536 23.4465C46.5869 23.1011 46.2751 22.4374 46.4615 22.0659C46.6479 21.6944 47.3652 21.55 47.5028 21.1562C47.6386 20.7664 47.1677 20.2 47.2527 19.7917C47.3358 19.3873 47.9922 19.0585 48.0236 18.6424C48.0531 18.2301 47.4517 17.8091 47.4286 17.3918C47.4044 16.9813 47.9539 16.493 47.8752 16.0813C47.7984 15.6754 47.1077 15.4277 46.9754 15.0273Z" fill="#4A5161"/>
<path d="M40.1796 27.7035C40.1566 27.7111 40.1327 27.7159 40.1088 27.7206C39.8387 27.7715 39.5738 27.6258 39.3194 27.4831C39.1281 27.377 38.9331 27.2689 38.7827 27.2771C38.6267 27.2871 38.4407 27.4189 38.2605 27.5487C38.0266 27.7187 37.7812 27.8924 37.5132 27.8724C37.2413 27.8504 37.0225 27.6416 36.8152 27.4386C36.6594 27.2856 36.496 27.1287 36.3448 27.0956C36.1936 27.0626 35.9809 27.1424 35.774 27.2204C35.5019 27.3231 35.2212 27.4286 34.9648 27.3377C34.7085 27.2467 34.5529 26.9882 34.404 26.7403C34.2905 26.551 34.175 26.356 34.0373 26.2865C33.8995 26.217 33.6745 26.2402 33.4553 26.2616C33.1651 26.2904 32.8655 26.3191 32.6398 26.1669C32.4142 26.0146 32.3314 25.7257 32.2515 25.4454C32.1907 25.2323 32.1279 25.0135 32.0113 24.9114C31.8976 24.8084 31.6727 24.7741 31.4564 24.737C31.1693 24.6881 30.8697 24.6402 30.693 24.4334C30.5173 24.2295 30.5102 23.9284 30.5069 23.6387C30.5035 23.4162 30.4981 23.188 30.4132 23.0563C30.3301 22.9304 30.1235 22.8358 29.9284 22.7469C29.6616 22.6242 29.3851 22.5016 29.2669 22.2499C29.1515 22.0069 29.2219 21.7185 29.2923 21.4396C29.3454 21.224 29.4023 21.0007 29.3528 20.851C29.3033 20.7012 29.1246 20.5558 28.9535 20.4143C28.7308 20.2323 28.4985 20.0407 28.4502 19.7787C28.399 19.5081 28.544 19.243 28.6862 18.9883C28.7919 18.7968 28.8994 18.6015 28.8911 18.451C28.8809 18.2946 28.7491 18.1081 28.6202 17.9303C28.4502 17.6957 28.2765 17.4497 28.2961 17.1812C28.3177 16.9089 28.5259 16.69 28.7282 16.4825C28.8807 16.3267 29.0371 16.1632 29.0699 16.0118C29.1028 15.8603 29.0227 15.6472 28.9446 15.4398C28.8418 15.1671 28.736 14.8857 28.8265 14.629C28.917 14.3723 29.1748 14.2168 29.422 14.068C29.6109 13.9545 29.8054 13.839 29.8746 13.7012C29.9438 13.5633 29.9203 13.3378 29.8987 13.1182C29.8695 12.8275 29.8404 12.5272 29.9931 12.3042C30.1447 12.0784 30.433 11.9959 30.7127 11.9162C30.9254 11.8555 31.1438 11.793 31.2455 11.6763C31.3481 11.5625 31.382 11.3372 31.4188 11.1206C31.4672 10.833 31.5147 10.533 31.7208 10.3563C31.9241 10.1805 32.2247 10.1738 32.5139 10.1708C32.736 10.1677 32.9638 10.1627 33.0951 10.0778C33.2207 9.99474 33.3149 9.7879 33.4033 9.59254C33.5254 9.32536 33.6475 9.0486 33.8957 8.93144C34.1381 8.81617 34.4261 8.88711 34.7046 8.95801C34.9199 9.01145 35.1428 9.06875 35.2922 9.01936C35.4417 8.96998 35.5866 8.7911 35.7276 8.61989C35.909 8.39702 36.0999 8.16459 36.3614 8.11652C36.6314 8.0656 36.8963 8.21127 37.1536 8.35307C37.3448 8.45918 37.5399 8.56722 37.6902 8.55908C37.8463 8.54903 38.0323 8.41728 38.2096 8.28838C38.4435 8.11843 38.6889 7.94467 38.9569 7.96471C39.2288 7.98669 39.4476 8.1955 39.655 8.39853C39.8107 8.55151 39.9741 8.70836 40.1253 8.74145C40.2765 8.77455 40.4921 8.69372 40.6961 8.6167C40.9682 8.514 41.2489 8.40845 41.5053 8.49942C41.7617 8.5904 41.9172 8.84887 42.067 9.09966C42.1806 9.28896 42.2961 9.48401 42.4338 9.55351C42.5715 9.623 42.7965 9.59975 43.0158 9.57839C43.3059 9.5496 43.6056 9.52083 43.8312 9.67309C44.0569 9.82534 44.1396 10.1143 44.2195 10.3946C44.2804 10.6077 44.3432 10.8265 44.4598 10.9286C44.5735 11.0315 44.7984 11.0658 45.0147 11.103C45.3018 11.1518 45.6013 11.1998 45.778 11.4066C45.9538 11.6104 45.9609 11.9116 45.9642 12.2012C45.9676 12.4237 45.9729 12.652 46.0579 12.7837C46.1409 12.9096 46.3475 13.0042 46.5426 13.0931C46.8095 13.2157 47.0859 13.3384 47.2032 13.5872C47.3186 13.8302 47.2482 14.1186 47.1778 14.3975C47.1247 14.6131 47.0678 14.8364 47.1173 14.9861C47.1668 15.1359 47.3455 15.2813 47.5166 15.4228C47.7394 15.6048 47.9716 15.7964 48.0199 16.0584C48.0711 16.329 47.9261 16.5941 47.7849 16.8517C47.6792 17.0431 47.5687 17.2394 47.58 17.389C47.5902 17.5454 47.7219 17.7319 47.8518 17.9126C48.0218 18.1471 48.1955 18.3932 48.1759 18.6617C48.1543 18.9339 47.9462 19.1529 47.7438 19.3604C47.5913 19.5162 47.4349 19.6797 47.4021 19.8311C47.3693 19.9825 47.4493 20.1957 47.5274 20.4031C47.6302 20.6758 47.736 20.9571 47.6455 21.2138C47.555 21.4706 47.2972 21.6261 47.0471 21.7758C46.8583 21.8893 46.6637 22.0048 46.5945 22.1426C46.5254 22.2805 46.5489 22.506 46.5705 22.7256C46.5996 23.0163 46.6287 23.3166 46.477 23.5424C46.3244 23.7654 46.037 23.8508 45.7574 23.9304C45.5447 23.9911 45.3263 24.0537 45.2246 24.1704C45.122 24.2842 45.0881 24.5095 45.0513 24.7261C45.0029 25.0136 44.9554 25.3137 44.7492 25.4904C44.546 25.6662 44.2453 25.6729 43.9562 25.6758C43.7341 25.679 43.5092 25.683 43.375 25.7689C43.2494 25.8519 43.1552 26.0588 43.0668 26.2541C42.9447 26.5213 42.8226 26.7981 42.5715 26.9162C42.3329 27.0334 42.0411 26.9605 41.7626 26.8896C41.5474 26.8362 41.3244 26.7789 41.175 26.8283C41.0255 26.8777 40.8806 27.0565 40.7396 27.2277C40.5765 27.419 40.4067 27.6285 40.1796 27.7035ZM38.5822 27.0079C38.6397 26.9889 38.6991 26.9757 38.7613 26.9711C38.9987 26.9565 39.2369 27.0886 39.4635 27.215C39.671 27.3317 39.8891 27.4513 40.0509 27.4202C40.2061 27.3881 40.3586 27.2035 40.5083 27.0199C40.6762 26.8142 40.8518 26.6028 41.0846 26.5259C41.3174 26.449 41.5853 26.517 41.8417 26.5792C42.0676 26.6355 42.3039 26.6948 42.4476 26.6281C42.5961 26.5566 42.6971 26.3316 42.7971 26.1133C42.9038 25.8767 43.0162 25.6287 43.2156 25.4989C43.4198 25.3643 43.6926 25.3604 43.9559 25.3565C44.1904 25.3524 44.4345 25.3484 44.5563 25.2443C44.68 25.1363 44.7207 24.8929 44.7585 24.6599C44.8001 24.4002 44.8427 24.1337 45.003 23.953C45.1632 23.7722 45.4247 23.6954 45.6785 23.6243C45.9055 23.5588 46.1411 23.4905 46.2314 23.3585C46.3235 23.2226 46.2972 22.9789 46.2737 22.7439C46.2474 22.481 46.222 22.2114 46.3287 21.9941C46.4354 21.7767 46.6702 21.6384 46.8963 21.503C47.0986 21.3818 47.3085 21.255 47.3633 21.1026C47.4153 20.9513 47.3296 20.7208 47.2467 20.499C47.1524 20.2523 47.0581 19.9959 47.1074 19.7592C47.1566 19.5225 47.3446 19.3293 47.5278 19.141C47.6947 18.9708 47.8655 18.793 47.8753 18.63C47.8862 18.4699 47.7439 18.2709 47.6074 18.0796C47.4536 17.8653 47.2942 17.6432 47.2803 17.3986C47.2654 17.1607 47.397 16.9223 47.5229 16.6955C47.6391 16.4877 47.7582 16.2695 47.7269 16.1073C47.6975 15.9509 47.5102 15.7987 47.3267 15.6485C47.1212 15.48 46.9099 15.3039 46.8328 15.0706C46.7557 14.8373 46.8232 14.569 46.885 14.3121C46.9409 14.086 46.9998 13.8493 46.933 13.7052C46.8615 13.5564 46.6367 13.4549 46.4187 13.3545C46.1824 13.2473 45.9347 13.1343 45.8049 12.9344C45.6703 12.7297 45.666 12.4563 45.6617 12.1926C45.6573 11.9576 45.653 11.713 45.5489 11.5909C45.441 11.4669 45.1979 11.4258 44.9653 11.3876C44.706 11.3456 44.4399 11.3025 44.2593 11.1418C44.0786 10.981 44.0016 10.719 43.9303 10.4646C43.8647 10.2371 43.7962 10.001 43.6642 9.91039C43.5294 9.82076 43.2853 9.84395 43.0507 9.86717C42.7883 9.89318 42.5193 9.91821 42.3022 9.81106C42.0879 9.70296 41.9467 9.4685 41.8112 9.24174C41.69 9.03899 41.563 8.82855 41.4109 8.7734C41.2598 8.72113 41.0299 8.8067 40.8086 8.88942C40.5614 8.98069 40.3066 9.0777 40.0702 9.02802C39.8338 8.97835 39.6408 8.78976 39.4526 8.60598C39.2825 8.43856 39.1047 8.26729 38.942 8.25717C38.7822 8.24611 38.5837 8.38836 38.393 8.52489C38.1792 8.67861 37.9578 8.83805 37.7136 8.85165C37.4762 8.86623 37.2381 8.73408 37.0114 8.60772C36.8039 8.49101 36.5858 8.37139 36.424 8.40251C36.2679 8.43174 36.1163 8.61922 35.9666 8.80288C35.7987 9.00853 35.6241 9.22279 35.3913 9.29972C35.1585 9.37665 34.8906 9.30866 34.6332 9.24358C34.4074 9.18722 34.171 9.12796 34.0273 9.19463C33.8788 9.26608 33.7778 9.49113 33.6779 9.70946C33.5712 9.946 33.4587 10.194 33.2593 10.3238C33.0552 10.4584 32.7823 10.4623 32.519 10.4662C32.2845 10.4703 32.0404 10.4743 31.9186 10.5784C31.7949 10.6864 31.7542 10.9299 31.7165 11.1628C31.6748 11.4226 31.6322 11.689 31.472 11.8698C31.3118 12.0505 31.0493 12.1245 30.7964 12.1985C30.5694 12.2639 30.3338 12.3322 30.2436 12.4643C30.1543 12.5992 30.1778 12.8438 30.2013 13.0789C30.2276 13.3417 30.2529 13.6113 30.1462 13.8286C30.0396 14.046 29.8048 14.1843 29.5786 14.3198C29.3764 14.4409 29.1665 14.5678 29.1116 14.7201C29.0596 14.8714 29.1454 15.1019 29.2282 15.3237C29.3197 15.5714 29.4168 15.8268 29.3676 16.0635C29.3183 16.3003 29.1303 16.4934 28.9471 16.6817C28.7802 16.8519 28.6095 17.0297 28.5996 17.1927C28.5887 17.3529 28.731 17.5518 28.8675 17.7431C29.0213 17.9575 29.1807 18.1795 29.1946 18.4241C29.2095 18.662 29.0779 18.9004 28.9521 19.1273C28.8358 19.335 28.7167 19.5533 28.748 19.7155C28.7774 19.8719 28.9647 20.024 29.1483 20.1742C29.3538 20.3427 29.565 20.5189 29.6421 20.7522C29.7192 20.9855 29.6517 21.2538 29.5899 21.5106C29.534 21.7367 29.4751 21.9734 29.5419 22.1175C29.6134 22.2664 29.8391 22.3707 30.0563 22.4682C30.2925 22.5755 30.5403 22.6885 30.6701 22.8884C30.8047 23.0931 30.8089 23.3664 30.8132 23.6301C30.8176 23.8651 30.8219 24.1097 30.926 24.2318C31.034 24.3559 31.277 24.3969 31.5096 24.4351C31.769 24.4772 32.035 24.5202 32.2156 24.681C32.3963 24.8417 32.4733 25.1038 32.5446 25.3581C32.6103 25.5856 32.6788 25.8218 32.8107 25.9123C32.9465 26.0048 33.1897 25.9788 33.4243 25.9556C33.6866 25.9295 33.9557 25.9045 34.1728 26.0117C34.3899 26.1188 34.5282 26.3542 34.6638 26.581C34.785 26.7837 34.9119 26.9942 35.064 27.0493C35.2152 27.1016 35.4451 27.016 35.6664 26.9333C35.9126 26.8392 36.1684 26.745 36.4047 26.7947C36.6411 26.8444 36.8341 27.033 37.0224 27.2167C37.1924 27.3842 37.3702 27.5554 37.5329 27.5656C37.6928 27.5766 37.8883 27.4353 38.082 27.2978C38.242 27.1842 38.4069 27.0658 38.5822 27.0079Z" fill="#4A5161"/>
<path d="M34.3566 22.3147C34.2474 22.3508 34.1201 22.3226 34.038 22.2283C33.6654 21.8148 33.3408 21.3534 33.0746 20.8567C31.4396 17.7902 32.3962 14.078 35.203 12.5785C38.0098 11.079 41.6222 12.3546 43.2573 15.4211C43.3508 15.5979 43.4395 15.7794 43.5157 15.9619C43.5825 16.1155 43.5103 16.2927 43.357 16.3593C43.1999 16.4241 43.0268 16.3535 42.96 16.1998C42.8895 16.0346 42.8094 15.8694 42.7236 15.7061C41.2468 12.9355 38.0028 11.7714 35.4882 13.1136C32.9766 14.4549 32.1317 17.8011 33.6084 20.5717C33.8507 21.0251 34.1467 21.448 34.4839 21.8222C34.5957 21.9482 34.5886 22.139 34.463 22.2508C34.4352 22.2824 34.3968 22.3014 34.3566 22.3147Z" fill="white"/>
<path d="M34.4045 22.459C34.235 22.515 34.0465 22.4655 33.9261 22.3328C33.544 21.9096 33.2127 21.4376 32.9427 20.9294C32.1357 19.4135 31.9149 17.6942 32.3296 16.094C32.7423 14.4879 33.7385 13.1907 35.1347 12.4481C36.5299 11.7026 38.1585 11.5957 39.7217 12.1493C41.2811 12.7009 42.5848 13.8387 43.3918 15.3547C43.4862 15.5343 43.5768 15.7216 43.6569 15.906C43.7551 16.1355 43.6493 16.4037 43.4174 16.5027C43.1798 16.6036 42.9206 16.4944 42.8214 16.262C42.7528 16.1026 42.6765 15.9393 42.5926 15.7817C41.1569 13.087 38.0018 11.951 35.563 13.2522C33.1242 14.5534 32.3091 17.8067 33.7458 20.5043C33.9823 20.95 34.2707 21.3595 34.6022 21.726C34.7693 21.9135 34.7554 22.1993 34.5722 22.3684C34.5214 22.4076 34.4649 22.439 34.4045 22.459ZM36.0912 12.362C35.8124 12.4541 35.5384 12.5703 35.2758 12.7113C33.9563 13.4158 33.0139 14.6442 32.6214 16.1668C32.2279 17.6962 32.4383 19.3358 33.2101 20.7836C33.4696 21.2697 33.7856 21.7243 34.1515 22.1273C34.2059 22.186 34.3045 22.1949 34.3649 22.1366C34.4263 22.0812 34.4322 21.9834 34.374 21.9228C34.0272 21.539 33.7245 21.1055 33.4755 20.6415C31.9587 17.7979 32.8306 14.3597 35.4151 12.9784C38.0005 11.6 41.3393 12.7903 42.8533 15.6349C42.9429 15.8001 43.0221 15.972 43.0936 16.1401C43.126 16.2188 43.213 16.2508 43.2954 16.2203C43.3318 16.2051 43.3606 16.1764 43.3731 16.1372C43.3894 16.0998 43.3886 16.0586 43.3733 16.0221C43.299 15.8454 43.2112 15.6667 43.1197 15.4957C42.347 14.0451 41.1016 12.9583 39.6149 12.4338C38.4334 12.0128 37.2091 11.9925 36.0912 12.362Z" fill="#263238"/>
<path d="M67.329 57.4C67.329 57.4 78.057 50.6724 80.5528 46.0138C80.5528 46.0138 81.3068 51.8347 84.1755 54.0813C87.0442 56.328 97.207 61.4224 99.0564 62.514C100.906 63.6056 104.608 66.3881 105.341 66.0404C106.077 65.6918 107.041 61.5394 107.393 60.3562C107.746 59.1758 108.711 58.1796 108.364 56.4858C108.017 54.7891 107.026 55.0113 106.803 55.6186C106.579 56.2259 105.095 58.3808 103.978 59.1752C102.86 59.9695 101.661 60.8642 101.661 60.8642C101.661 60.8642 97.2781 57.7314 93.3923 53.69C89.5065 49.6486 84.1352 41.4211 82.7672 39.8477C81.3974 38.2782 80.0575 38.082 78.6206 38.5569C77.1838 39.0318 72.5858 40.5515 65.713 46.7621C58.8402 52.9727 60.2699 56.3339 61.4503 57.3303C62.6288 58.3305 64.8949 58.754 67.329 57.4Z" fill="#4592D0"/>
<path d="M105.365 66.1986C104.767 66.3961 103.195 65.4013 100.886 63.8739C100.176 63.4026 99.5025 62.9574 98.9803 62.6507C98.4582 62.3441 97.2714 61.714 95.768 60.917C91.9387 58.8888 86.1508 55.8243 84.086 54.2065C81.6264 52.2815 80.709 47.8756 80.4704 46.4689C77.6491 51.0785 67.8355 57.2643 67.4109 57.5325C67.408 57.5334 67.4052 57.5344 67.4032 57.5382C64.9222 58.9141 62.5785 58.4875 61.3541 57.4545C61.0492 57.1974 60.3393 56.4481 60.3133 55.0382C60.2847 53.4279 61.1821 50.665 65.6144 46.6571C72.5111 40.4225 77.0746 38.9143 78.5747 38.4185C80.2386 37.8686 81.6097 38.294 82.883 39.7549C83.3444 40.2829 84.2429 41.5449 85.3829 43.1425C87.7184 46.4184 90.9179 50.9007 93.5033 53.5923C97.0308 57.2633 101.018 60.2137 101.661 60.6818C101.96 60.4584 102.959 59.7193 103.89 59.0567C104.987 58.2758 106.453 56.1332 106.662 55.569C106.79 55.2232 107.115 55.0008 107.455 55.0259C107.69 55.0439 108.261 55.2193 108.515 56.4611C108.769 57.7001 108.359 58.5638 107.961 59.3949C107.798 59.7397 107.643 60.0624 107.54 60.4063C107.474 60.6296 107.383 60.963 107.277 61.3559C106.639 63.736 106.013 65.8947 105.407 66.1814C105.393 66.1891 105.379 66.1938 105.365 66.1986ZM80.506 45.8725C80.529 45.8649 80.5567 45.8621 80.5807 45.867C80.6448 45.8778 80.6945 45.9316 80.703 45.9959C80.7096 46.0544 81.4838 51.7823 84.2674 53.9644C86.3111 55.5668 92.0837 58.6236 95.9054 60.648C97.4126 61.4469 98.6062 62.0779 99.133 62.3894C99.6599 62.7009 100.337 63.148 101.051 63.6212C102.556 64.6158 104.835 66.1182 105.278 65.9077C105.81 65.6553 106.604 62.6963 106.986 61.2763C107.094 60.8796 107.184 60.5433 107.25 60.32C107.359 59.955 107.527 59.6055 107.687 59.2684C108.064 58.4794 108.451 57.6645 108.218 56.5244C108.069 55.8037 107.775 55.3578 107.431 55.3308C107.228 55.3148 107.027 55.458 106.946 55.6764C106.722 56.2808 105.226 58.4779 104.068 59.3047C102.964 60.0914 101.766 60.9823 101.754 60.9928C101.7 61.033 101.63 61.0337 101.576 60.9942C101.531 60.9643 97.137 57.8065 93.2856 53.8017C90.683 51.0965 87.4787 46.5999 85.1356 43.3201C84.0013 41.7302 83.1047 40.4739 82.6529 39.9555C81.4521 38.5793 80.2246 38.1927 78.6671 38.7075C77.1813 39.1985 72.6638 40.6916 65.8131 46.8821C61.4633 50.8116 60.5833 53.4826 60.611 55.0325C60.6335 56.3157 61.2707 56.99 61.545 57.222C62.6901 58.1886 64.8941 58.5783 67.2486 57.273C67.4911 57.1194 77.9834 50.4888 80.4187 45.9461C80.4389 45.9107 80.4715 45.8839 80.506 45.8725ZM67.3298 57.4027L67.3327 57.4018L67.3298 57.4027Z" fill="#263238"/>
<path d="M108.366 56.4882C108.019 54.7915 107.028 55.0137 106.805 55.621C106.581 56.2283 105.097 58.3833 103.979 59.1776C102.862 59.9719 101.662 60.8667 101.662 60.8667C101.662 60.8667 98.2485 58.4264 94.7759 55.0759C94.2812 57.0125 93.2468 58.2617 92.45 58.9755C95.4156 60.5704 98.1786 61.9957 99.0584 62.5164C100.908 63.608 104.61 66.3906 105.343 66.0429C106.079 65.6942 107.043 61.5419 107.395 60.3586C107.75 59.1773 108.716 58.1839 108.366 56.4882Z" fill="#FEDEA5"/>
<path d="M105.365 66.1983C104.767 66.3958 103.195 65.401 100.886 63.8735C100.176 63.4023 99.5027 62.9571 98.9806 62.6504C98.4584 62.3438 97.2678 61.7118 95.7605 60.9128C94.7401 60.3715 93.5743 59.7569 92.3788 59.1105C92.3358 59.0864 92.3062 59.045 92.2996 58.9961C92.293 58.9472 92.3122 58.8993 92.3487 58.8649C93.1178 58.173 94.1415 56.9497 94.6295 55.0409C94.644 54.9882 94.6852 54.949 94.734 54.9329C94.7867 54.9186 94.8422 54.9322 94.8805 54.9707C97.9966 57.9758 101.099 60.2731 101.658 60.6825C101.957 60.459 102.956 59.7199 103.888 59.0574C104.984 58.2764 106.45 56.1339 106.659 55.5697C106.787 55.2239 107.112 55.0015 107.452 55.0265C107.687 55.0445 108.259 55.22 108.513 56.4618C108.766 57.7007 108.357 58.5644 107.959 59.3956C107.795 59.7403 107.641 60.063 107.537 60.407C107.471 60.6302 107.38 60.9636 107.274 61.3565C106.636 63.7367 106.011 65.8954 105.404 66.1821C105.394 66.1888 105.379 66.1935 105.365 66.1983ZM92.7094 58.9437C93.8408 59.5506 94.9349 60.1314 95.9037 60.6419C97.4147 61.4427 98.6083 62.0738 99.1352 62.3852C99.6621 62.6967 100.339 63.1439 101.053 63.6171C102.558 64.6116 104.837 66.1141 105.28 65.9036C105.812 65.6511 106.606 62.6922 106.988 61.2721C107.096 60.8755 107.186 60.5391 107.252 60.3159C107.361 59.9509 107.529 59.6013 107.689 59.2643C108.066 58.4753 108.453 57.6604 108.22 56.5203C108.071 55.7996 107.777 55.3536 107.433 55.3266C107.23 55.3106 107.029 55.4538 106.948 55.6722C106.724 56.2767 105.228 58.4738 104.07 59.3006C102.966 60.0873 101.769 60.9782 101.756 60.9887C101.702 61.0288 101.633 61.0295 101.578 60.99C101.545 60.966 98.2386 58.5923 94.8596 55.361C94.3605 57.0818 93.4517 58.2383 92.7094 58.9437Z" fill="#263238"/>
<path d="M40.5388 25.547C40.5388 25.547 42.66 27.7308 43.0797 28.5281C43.4994 29.3255 42.6794 30.1428 41.766 30.6779C40.8527 31.213 39.1239 31.1614 38.1613 33.4283C37.1988 35.6952 35.9442 44.6111 35.776 45.9925C35.6107 47.373 36.4966 48.1728 37.9465 47.3805C39.3964 46.5882 41.7222 39.7367 41.7222 39.7367C41.7222 39.7367 48.9117 44.3028 49.9846 45.4273C51.0585 46.5548 51.5893 48.8744 52.2186 51.2414C52.845 53.6094 53.6091 57.0979 56.6189 59.1446C59.6287 61.1912 64.3045 60.5052 67.3259 57.3981C70.3454 54.2948 72.1188 46.4374 69.4805 44.3479C66.8442 42.2544 62.4683 42.2375 60.439 40.1C58.4097 37.9625 58.3609 36.426 57.5013 33.8252C56.6417 31.2244 54.959 28.0619 54.959 28.0619C54.959 28.0619 60.5179 24.6273 67.1927 21.3574C69.5135 20.2198 67.0813 17.963 65.4933 17.8649C63.5014 17.7405 55.981 21.1333 53.7907 21.6336C50.6292 22.359 49.2763 23.5122 48.7379 24.2365C48.1994 24.9607 47.5207 25.9645 46.7248 26.1509C45.929 26.3373 43.8343 22.8157 43.8343 22.8157C43.8343 22.8157 42.3613 25.1778 40.5388 25.547Z" fill="#F37630"/>
<path d="M63.4778 59.9822C61.0667 60.7791 58.4727 60.5885 56.5357 59.2703C53.6454 57.3056 52.7985 54.0585 52.1798 51.6848L51.9118 50.6616C51.3567 48.5384 50.8301 46.5305 49.8785 45.5319C48.9202 44.5228 42.8782 40.651 41.8073 39.9666C41.4184 41.0855 39.3878 46.766 38.0213 47.5116C37.2997 47.9034 36.6486 47.9493 36.1916 47.6371C35.7432 47.3316 35.5366 46.7258 35.628 45.9704C35.7729 44.7596 37.0402 35.6798 38.022 33.3649C38.7672 31.6075 39.9484 31.198 40.8948 30.8692C41.1928 30.7675 41.4696 30.6697 41.6891 30.5428C42.0973 30.3025 43.3951 29.455 42.9449 28.5943C42.5414 27.8267 40.4509 25.6679 40.4279 25.6468C40.3897 25.6083 40.3764 25.5488 40.3909 25.4961C40.4082 25.4424 40.4494 25.4032 40.5059 25.3909C42.2441 25.0369 43.6921 22.7533 43.7074 22.7323C43.7343 22.6882 43.7861 22.6616 43.8368 22.6608C43.8885 22.6628 43.9382 22.6879 43.9659 22.7331C44.9679 24.4146 46.2629 26.0952 46.6929 25.9978C47.3652 25.8427 47.9833 25.0026 48.4814 24.33L48.6196 24.1406C49.1168 23.4747 50.4431 22.2409 53.7588 21.4805C54.5795 21.2923 56.211 20.6732 57.9383 20.0161C60.8899 18.8968 64.2352 17.6282 65.5035 17.7042C66.5708 17.77 68.0595 18.7827 68.2747 19.8681C68.3677 20.3325 68.2669 20.992 67.2598 21.4846C61.2021 24.4515 56.0056 27.5938 55.1593 28.1099C55.4807 28.7257 56.8876 31.4779 57.6453 33.7705C57.8338 34.3407 57.9803 34.8514 58.1239 35.3438C58.6261 37.0851 58.9884 38.3455 60.5515 39.9886C61.5834 41.0756 63.2424 41.6007 64.998 42.1578C66.6187 42.6732 68.2921 43.2032 69.5759 44.2229C70.3444 44.8315 70.8018 45.9455 70.8986 47.4438C71.1153 50.8001 69.5627 55.3131 67.4352 57.4986C66.3082 58.6698 64.9261 59.5035 63.4778 59.9822ZM41.6778 39.5941C41.7209 39.5798 41.7678 39.5867 41.807 39.6089C42.1015 39.7959 49.0232 44.198 50.0971 45.3255C51.1032 46.3827 51.6383 48.4262 52.2039 50.5906L52.4719 51.6138C53.0783 53.9404 53.91 57.1223 56.7056 59.0225C59.6867 61.0499 64.3062 60.2898 67.2192 57.2984C69.2613 55.2018 70.8063 50.7042 70.5969 47.4764C70.5039 46.0663 70.0875 45.0282 69.3878 44.4736C68.148 43.4904 66.4995 42.9682 64.9075 42.4625C63.1126 41.8928 61.4172 41.3541 60.3319 40.2113C58.7191 38.5144 58.3282 37.158 57.8336 35.4398C57.691 34.9502 57.5455 34.4424 57.3589 33.8779C56.5126 31.3175 54.8442 28.1693 54.828 28.1396C54.7918 28.0685 54.8139 27.9813 54.8829 27.9393C54.9385 27.905 60.5242 24.4647 67.1301 21.2272C67.7999 20.9004 68.0869 20.4668 67.9836 19.9419C67.7948 18.9948 66.4314 18.0812 65.4905 18.0216C64.2863 17.9468 60.8279 19.2591 58.0497 20.3147C56.2372 21.0032 54.6709 21.5975 53.829 21.7895C50.6053 22.5291 49.3356 23.7027 48.8624 24.3351L48.7233 24.5216C48.1973 25.2354 47.5437 26.1223 46.7622 26.3039C45.9778 26.4865 44.3733 23.9946 43.8302 23.1038C43.4443 23.6626 42.2793 25.201 40.8252 25.6336C41.3526 26.1877 42.8555 27.7836 43.2103 28.4618C43.5986 29.2025 43.0886 30.0803 41.8389 30.8128C41.5954 30.9539 41.3013 31.0575 40.9929 31.1659C40.1001 31.4737 38.9908 31.8595 38.2975 33.4943C37.3282 35.7795 36.0705 44.8114 35.9237 46.0164C35.8469 46.652 36.0039 47.156 36.3567 47.394C36.7181 47.6388 37.2562 47.5887 37.8724 47.2541C38.9802 46.6515 40.779 42.0444 41.5771 39.6945C41.5982 39.6427 41.6318 39.6093 41.6778 39.5941Z" fill="#263238"/>
<path d="M57.0875 20.5081C56.8921 20.5822 56.6995 20.6555 56.5118 20.7239C56.8751 21.9584 57.6976 23.9165 59.462 25.4355C59.645 25.3335 59.8357 25.2257 60.0264 25.118C58.2581 23.6737 57.4404 21.7013 57.0875 20.5081Z" fill="#263238"/>
<path d="M59.6436 39.1512C59.5185 38.9849 59.4029 38.8186 59.2979 38.6552C55.2698 41.06 52.5243 45.0982 51.145 47.5125C51.2365 47.7602 51.3212 48.0165 51.4068 48.2853C52.6451 46.0135 55.4314 41.6455 59.6436 39.1512Z" fill="#263238"/>
<path d="M49.1667 44.7385C49.3541 44.881 49.5224 45.0139 49.659 45.1285C50.5315 43.4184 52.9176 39.5948 58.16 36.0028C58.1 35.8022 58.0401 35.592 57.9802 35.3818C52.5817 39.0125 50.1161 42.8848 49.1667 44.7385Z" fill="#263238"/>
<path d="M41.7212 36.551C42.7158 36.0977 47.3881 33.7229 53.0102 26.7372C53.9332 27.6493 54.7123 28.2512 54.7811 28.3051C54.8624 28.3677 54.9696 28.3834 55.0615 28.353C55.0759 28.3483 55.0922 28.3397 55.1056 28.3321C55.0179 28.163 54.9663 28.065 54.9663 28.065C54.9663 28.065 55.0564 28.0097 55.2232 27.9066C55.2032 27.8749 55.1812 27.847 55.1506 27.822C55.1162 27.795 51.8737 25.295 50.7672 22.68C50.5755 22.7752 50.3944 22.8734 50.2324 22.9717C50.4545 23.4797 50.7446 23.9813 51.074 24.4571C46.9754 30.1885 41.9035 32.7625 40.5104 33.389C40.1192 32.6877 39.7249 32.1407 39.4135 31.758C39.2582 31.8765 39.1048 32.0102 38.9571 32.1709C39.2245 32.5074 39.5625 32.9803 39.9031 33.577C39.426 33.281 38.9008 33.0904 38.3879 32.966C38.311 33.1096 38.2332 33.2599 38.1639 33.4266C38.1495 33.4601 38.136 33.4965 38.1216 33.53C39.0776 33.7412 40.0877 34.2029 40.6573 35.1743C40.8574 35.6928 41.0334 36.264 41.1653 36.8849C40.5022 36.2287 39.332 35.4174 37.583 35.3821C37.5376 35.5728 37.4923 35.7731 37.4479 35.9762C40.1025 35.955 41.2477 37.896 41.3145 38.0113C41.3278 38.0324 41.3431 38.0497 41.3613 38.0661C41.398 38.399 41.4213 38.7395 41.4273 39.0953C40.6587 38.5347 39.0798 37.6444 37.0633 37.8604C37.0256 38.0646 36.985 38.2697 36.9482 38.4767C39.3154 38.1257 41.0168 39.493 41.422 39.8606C41.4158 40.1215 41.4134 40.3746 41.4101 40.6249C41.6093 40.0799 41.7267 39.7312 41.7267 39.7312C41.7267 39.7312 41.8357 39.8006 42.025 39.9201C42.0271 39.8587 42.0272 39.8012 42.0292 39.7398C42.0659 38.568 41.9396 37.5012 41.7212 36.551ZM51.4425 24.9742C51.8073 25.4511 52.1971 25.8973 52.5821 26.3004C47.2393 32.9542 42.6759 35.4176 41.5644 35.9511C41.4854 35.6737 41.3979 35.4087 41.3074 35.1543C41.3046 35.1169 41.2941 35.0756 41.276 35.0401C41.2684 35.0266 41.2608 35.0132 41.2522 34.9968C41.1064 34.6137 40.9501 34.2565 40.788 33.9299C42.2779 33.249 47.3259 30.6509 51.4425 24.9742Z" fill="#263238"/>
<path d="M61.9639 41.1857C61.7602 41.0805 61.5651 40.9724 61.3787 40.852C56.8505 43.9331 53.8434 48.0866 52.1474 50.9602C52.1721 51.0542 52.1968 51.1483 52.2215 51.2424C52.2672 51.419 52.3156 51.6042 52.3641 51.7895C53.9845 48.9281 57.0937 44.4086 61.9639 41.1857Z" fill="#263238"/>
<path d="M57.2952 33.2216C57.2267 33.0334 57.1543 32.8433 57.0819 32.6532C49.8373 35.482 47.4538 40.4709 46.688 42.9859C46.8649 43.1063 47.0379 43.2248 47.21 43.3405C47.8653 41.0313 50.0746 36.0457 57.2952 33.2216Z" fill="#263238"/>
<path d="M60.8716 19.0909C60.6752 19.1622 60.4788 19.2335 60.2796 19.3058C60.5146 20.5859 61.0753 22.2727 62.3676 23.8391C62.5487 23.7409 62.7336 23.6446 62.9205 23.5445C61.63 22.0127 61.0923 20.3278 60.8716 19.0909Z" fill="#263238"/>
<path d="M53.0265 21.831C53.7227 23.2238 54.9528 25.2868 56.7772 26.9777C56.9507 26.8756 57.1347 26.7669 57.3273 26.6553C55.5602 25.0605 54.3386 23.0522 53.6309 21.6727C53.425 21.7248 53.2219 21.776 53.0265 21.831Z" fill="#263238"/>
<path d="M56.0055 30.1686C55.9159 29.9746 55.8272 29.7931 55.7442 29.6192C47.7263 33.3874 44.7072 38.3243 43.6205 40.9581C43.7916 41.0709 43.9695 41.1846 44.1531 41.3061C45.1821 38.8159 48.1217 33.8892 56.0055 30.1686Z" fill="#263238"/>
<path d="M67.3296 57.3999C69.8282 54.833 71.4714 49.0121 70.4702 45.8959C70.2559 45.315 69.9437 44.8335 69.5231 44.4965C69.1676 44.2115 68.7823 43.9235 68.3798 43.6316C67.0849 42.9351 65.5703 42.5188 64.1543 42.0539C58.6059 46.5425 55.1195 53.0364 53.6634 55.5942C54.3052 56.9188 55.2161 58.1895 56.6225 59.1464C59.6323 61.193 64.3082 60.507 67.3296 57.3999Z" fill="#4592D0"/>
<path d="M63.4776 59.9824C61.0665 60.7792 58.4726 60.5887 56.5355 59.2705C55.2697 58.411 54.283 57.2291 53.5249 55.6587C53.5039 55.6145 53.5049 55.5598 53.5289 55.5168L53.8008 55.0372C55.426 52.1615 58.8051 46.1823 64.0572 41.9353C64.0975 41.9028 64.1483 41.8925 64.199 41.9108C64.4602 41.997 64.7233 42.0794 64.9902 42.1637C66.166 42.5386 67.384 42.9252 68.4503 43.4992C68.9111 43.8325 69.2878 44.1138 69.6147 44.3795C70.04 44.7214 70.3751 45.2144 70.6085 45.8433C71.6154 48.9768 70.0114 54.8582 67.435 57.5083C66.308 58.6699 64.926 59.5037 63.4776 59.9824ZM53.8332 55.5983C54.5628 57.0824 55.5036 58.2026 56.7074 59.0188C59.6885 61.0462 64.308 60.2862 67.221 57.2947C69.736 54.7096 71.3014 48.9816 70.3249 45.9402C70.1135 45.368 69.8099 44.922 69.4275 44.6139C69.1026 44.3539 68.7326 44.0736 68.2919 43.7529C67.2648 43.201 66.064 42.8183 64.8997 42.4492C64.6605 42.3717 64.4223 42.2971 64.1859 42.2186C59.0162 46.4256 55.6755 52.3378 54.0686 55.1819L53.8332 55.5983Z" fill="#4592D0"/>
<path d="M34.3745 21.1332C34.2528 21.1798 34.1398 21.2427 34.0362 21.3248C33.1964 21.9762 33.2854 23.4994 34.2366 24.7281C35.1849 25.9578 36.6344 26.4276 37.4751 25.7791C37.6525 25.6406 37.7859 25.4655 37.8811 25.2616L34.3745 21.1332Z" fill="white"/>
<path d="M37.1127 26.1392C36.742 26.2618 36.3084 26.2517 35.8482 26.1035C35.2091 25.8962 34.5934 25.4416 34.114 24.8205C33.6356 24.2023 33.3526 23.4908 33.3117 22.8174C33.2699 22.122 33.495 21.5492 33.9418 21.2035C34.0559 21.1146 34.1824 21.0441 34.3184 20.9927C34.3788 20.9728 34.4467 20.9855 34.4887 21.0355L37.9915 25.1619C38.0287 25.2071 38.0372 25.2714 38.0132 25.3241C37.9026 25.5587 37.7529 25.7519 37.565 25.8971C37.4279 26.0031 37.2765 26.0851 37.1127 26.1392ZM34.3331 21.3169C34.2593 21.3541 34.1932 21.3951 34.1299 21.4448C33.7647 21.7284 33.5828 22.2102 33.6181 22.7992C33.6543 23.4102 33.9182 24.0642 34.3585 24.6343C34.7987 25.2044 35.3647 25.6244 35.9464 25.8123C36.5099 25.9934 37.0212 25.9395 37.3836 25.6568C37.5101 25.5574 37.6186 25.4321 37.7021 25.2799L34.3331 21.3169Z" fill="#263238"/>
<path d="M34.3746 21.1336C34.2529 21.1802 34.1398 21.2431 34.0363 21.3253C33.9394 21.3988 33.8569 21.4868 33.7869 21.5834L37.4234 25.8158C37.4416 25.8034 37.4608 25.7939 37.4781 25.7786C37.6554 25.6401 37.7888 25.465 37.884 25.2611L34.3746 21.1336Z" fill="white"/>
<path d="M37.482 25.9461C37.4217 25.966 37.3432 25.96 37.305 25.9119L33.6684 21.6795C33.6216 21.6247 33.6179 21.5461 33.663 21.4896C33.7475 21.3787 33.8396 21.2811 33.9412 21.2028C34.0553 21.114 34.1818 21.0434 34.3178 20.9921C34.3782 20.9721 34.4461 20.9848 34.4881 21.0348L37.9909 25.1613C38.0281 25.2065 38.0366 25.2708 38.0126 25.3235C37.902 25.5581 37.7523 25.7513 37.5644 25.8965C37.5491 25.9079 37.5357 25.9156 37.5203 25.927C37.5069 25.9346 37.4964 25.9413 37.482 25.9461ZM33.9826 21.5789L37.4396 25.6055C37.545 25.5099 37.6285 25.4057 37.6958 25.2812L34.3296 21.3172C34.2559 21.3544 34.1897 21.3954 34.1265 21.4451C34.0756 21.4843 34.0267 21.5292 33.9826 21.5789Z" fill="#263238"/>
<path d="M42.0774 15.3775C42.1542 15.2723 42.2434 15.1757 42.3479 15.0964C43.1877 14.4451 44.6372 14.9149 45.5855 16.1445C46.5366 17.3732 46.6257 18.8964 45.7887 19.5469C45.6114 19.6853 45.4063 19.7691 45.187 19.8096L42.0774 15.3775Z" fill="white"/>
<path d="M45.434 19.9032C45.3622 19.9269 45.2884 19.9449 45.2108 19.9609C45.1534 19.9704 45.095 19.9481 45.0597 19.8991L41.95 15.467C41.9138 15.4151 41.9129 15.3451 41.9494 15.2915C42.0339 15.1709 42.1365 15.0667 42.2506 14.9779C43.1547 14.2798 44.7027 14.7585 45.7016 16.0545C46.1801 16.6727 46.4659 17.3833 46.5039 18.0576C46.5457 18.753 46.3235 19.3249 45.8767 19.6706C45.7473 19.7709 45.6007 19.8481 45.434 19.9032ZM45.2488 19.6417C45.4164 19.5991 45.5649 19.5276 45.6914 19.4283C46.0567 19.1447 46.2386 18.6629 46.2033 18.0739C46.1662 17.46 45.9032 16.8089 45.4629 16.2388C44.5662 15.0784 43.2067 14.6204 42.4349 15.2173C42.3716 15.267 42.3131 15.3214 42.2604 15.3836L45.2488 19.6417Z" fill="#263238"/>
<path d="M45.4341 19.9035C45.3623 19.9273 45.2885 19.9453 45.211 19.9613C45.1535 19.9707 45.0951 19.9485 45.0598 19.8995L41.9502 15.4674C41.9139 15.4155 41.9131 15.3455 41.9495 15.2919C42.034 15.1713 42.1366 15.0671 42.2507 14.9783C42.3524 14.9 42.4674 14.8332 42.5967 14.7809C42.6638 14.7523 42.7384 14.7756 42.7804 14.8352L45.9568 19.4209C46.0007 19.4863 45.9909 19.5725 45.9305 19.6213C45.9037 19.6461 45.8922 19.6595 45.8759 19.6681C45.7474 19.7712 45.6008 19.8484 45.4341 19.9035ZM45.2489 19.6421C45.3906 19.608 45.5152 19.5509 45.6273 19.4755L42.6037 15.1108C42.5443 15.1432 42.4859 15.1785 42.435 15.2177C42.3718 15.2673 42.3133 15.3218 42.2605 15.384L45.2489 19.6421Z" fill="#263238"/>
<path d="M48.0522 25.1435C47.6579 25.6189 47.2158 26.0366 46.7302 26.1491C45.9343 26.3355 43.8396 22.8139 43.8396 22.8139C43.8396 22.8139 42.3628 25.1741 40.5404 25.5432C40.5404 25.5432 42.6615 27.7271 43.0812 28.5244C43.4218 29.169 42.9476 29.8273 42.2717 30.3382C42.9927 31.2948 44.9973 33.367 47.8448 31.5856C50.3339 30.0314 49.0732 26.921 48.0522 25.1435Z" fill="#FEDEA5"/>
<path d="M46.8167 32.2471C44.4573 33.0269 42.8044 31.3049 42.1464 30.4329C42.1226 30.3993 42.1131 30.3609 42.116 30.3216C42.1218 30.2813 42.142 30.2459 42.1756 30.222C42.6089 29.8935 43.285 29.2484 42.9425 28.598C42.539 27.8304 40.4485 25.6717 40.4256 25.6505C40.3873 25.612 40.374 25.5525 40.3885 25.4998C40.4058 25.4461 40.4471 25.407 40.5036 25.3947C42.2418 25.0406 43.6897 22.757 43.7051 22.736C43.732 22.692 43.7837 22.6653 43.8344 22.6645C43.8861 22.6666 43.9359 22.6917 43.9635 22.7368C44.9656 24.4183 46.2605 26.0989 46.6905 26.0015C47.066 25.9126 47.4629 25.6089 47.9302 25.0455C47.9618 25.0063 48.0097 24.9873 48.0585 24.9903C48.1074 24.9933 48.1523 25.0232 48.1762 25.0664C49.199 26.8497 50.5284 30.0811 47.9157 31.7145C47.5371 31.9579 47.1701 32.1303 46.8167 32.2471ZM42.4816 30.3669C43.2514 31.3361 45.1378 33.0991 47.7611 31.4589C50.0729 30.0144 48.9774 27.1242 48.0271 25.4064C47.7096 25.7669 47.2694 26.1808 46.7627 26.2971C45.9784 26.4797 44.3738 23.9878 43.8308 23.097C43.4449 23.6558 42.2798 25.1942 40.8258 25.6268C41.3532 26.1809 42.856 27.7768 43.2109 28.455C43.5276 29.0564 43.2659 29.7307 42.4816 30.3669Z" fill="#FEDEA5"/>
<path d="M45.1682 24.7993C44.8388 24.3619 44.5228 23.8977 44.2822 23.5267C44.116 23.3229 43.9518 23.1056 43.7904 22.8874C43.537 23.2683 42.1806 25.2117 40.5344 25.5449C40.5344 25.5449 41.251 26.2857 41.934 27.0599C42.6788 27.0374 43.6843 26.8776 44.3059 26.2409C44.6991 25.8393 44.9739 25.3108 45.1682 24.7993Z" fill="#263238"/>
<path d="M43.3427 26.9834C42.8657 27.1411 42.3611 27.196 41.9417 27.21C41.8977 27.2118 41.8528 27.1915 41.8231 27.1598C41.1497 26.3952 40.434 25.6573 40.4283 25.6496C40.3901 25.6111 40.3768 25.5516 40.3912 25.4989C40.4086 25.4453 40.4498 25.4061 40.5063 25.3938C42.0903 25.0747 43.414 23.1772 43.6656 22.8002C43.6934 22.759 43.7394 22.7343 43.7901 22.7335C43.8409 22.7327 43.8868 22.7558 43.9154 22.7943C44.0844 23.0259 44.2477 23.2403 44.4015 23.4259C44.7127 23.9045 45.0163 24.3409 45.2885 24.7014C45.3209 24.7418 45.3266 24.7974 45.3112 24.8473C45.0726 25.4756 44.7729 25.9772 44.4209 26.3395C44.1188 26.6502 43.7393 26.8523 43.3427 26.9834ZM42.0036 26.9052C42.7082 26.8768 43.6333 26.7148 44.2002 26.1345C44.509 25.8152 44.7779 25.3749 44.9943 24.8242C44.6639 24.3839 44.3556 23.9235 44.1532 23.6102C44.0424 23.4775 43.9202 23.3198 43.7941 23.1506C43.3795 23.7382 42.2375 25.2114 40.8237 25.6307C41.075 25.8895 41.546 26.3888 42.0036 26.9052Z" fill="#263238"/>
<path d="M34.2373 20.1403C34.2373 20.1403 36.6147 24.0349 37.6871 24.9264C38.7605 25.8208 41.7272 26.3194 42.9665 26.0664C44.2057 25.8133 44.5594 24.0575 44.8656 22.6305C45.1717 21.2035 45.0559 20.1492 44.266 18.6947C43.4732 17.2411 41.7493 15.0825 40.6064 13.9779C39.8659 13.261 37.4308 13.0787 35.6279 14.2208C33.8251 15.363 33.1433 18.0067 34.2373 20.1403Z" fill="#FEDEA5"/>
<path d="M43.1761 26.1696C43.1186 26.1886 43.0602 26.2048 42.997 26.2161C41.6562 26.4899 38.6819 25.949 37.5923 25.044C36.5112 24.1457 34.2083 20.3799 34.1109 20.2204C34.11 20.2175 34.1062 20.2156 34.1043 20.2098C32.994 18.0465 33.6425 15.3019 35.5479 14.0939C37.438 12.8974 39.9438 13.1299 40.7121 13.8727C41.8311 14.9533 43.5808 17.1225 44.4003 18.6279C45.1769 20.0517 45.3414 21.1475 45.015 22.6674L44.9966 22.747C44.7059 24.105 44.3457 25.7831 43.1761 26.1696ZM34.3688 20.0649C34.4652 20.2215 36.7576 23.9557 37.7822 24.8087C38.7897 25.6482 41.6673 26.1763 42.9334 25.9176C44.051 25.692 44.4103 24.0206 44.7 22.6789L44.7183 22.5993C45.0332 21.1407 44.88 20.1371 44.1339 18.7671C43.3287 17.2857 41.6038 15.153 40.5021 14.0859C39.8188 13.4268 37.4527 13.2408 35.7111 14.3467C33.9322 15.4745 33.332 18.0371 34.3688 20.0649Z" fill="#263238"/>
<path d="M39.4943 21.2142C39.4856 21.2171 39.477 21.2199 39.4674 21.2199C39.3851 21.2311 39.3096 21.1762 39.2954 21.0947C39.2935 21.0793 39.2386 20.7109 39.4967 20.4019C39.7097 20.1494 40.0613 20.0173 40.54 20.0092C40.6223 20.0076 40.6921 20.074 40.6948 20.1593C40.6966 20.2418 40.6275 20.3126 40.5452 20.3142C40.1584 20.3206 39.8835 20.4147 39.73 20.5964C39.5601 20.7963 39.5922 21.0477 39.5932 21.0506C39.6074 21.1225 39.5632 21.1914 39.4943 21.2142Z" fill="#263238"/>
<path d="M40.4755 22.7454C39.7916 22.9714 39.1935 22.8592 39.1791 22.8544C39.0968 22.8369 39.0453 22.7581 39.0598 22.6766C39.0772 22.5942 39.1558 22.5426 39.2371 22.5573C39.3261 22.5758 41.4372 22.9643 42.0318 20.3653C42.0492 20.2829 42.1316 20.2333 42.2139 20.2508C42.2962 20.2683 42.3459 20.351 42.3285 20.4334C41.9935 21.9083 41.1882 22.5099 40.4755 22.7454Z" fill="#263238"/>
<path d="M37.3386 21.789C37.0139 21.8964 36.7708 21.8553 36.7507 21.8524C36.588 21.8231 36.4782 21.6645 36.5063 21.4987C36.5353 21.3357 36.6906 21.2269 36.8524 21.2533C36.8897 21.2601 37.5597 21.3294 38.0739 20.2138C38.1451 20.0625 38.3232 19.994 38.4744 20.0655C38.6255 20.1369 38.6941 20.3155 38.623 20.4668C38.2308 21.3249 37.7266 21.6608 37.3386 21.789Z" fill="#263238"/>
<path d="M41.066 18.9472C40.77 19.0451 40.4732 19.0825 40.2434 19.0817C40.0778 19.0822 39.9402 18.9455 39.9415 18.7758C39.9408 18.6099 40.077 18.4722 40.2436 18.4747C40.2982 18.4758 41.5877 18.4617 41.6259 17.5067C41.631 17.3388 41.7729 17.2089 41.9404 17.2142C42.1079 17.2195 42.2379 17.3619 42.2328 17.5297C42.2016 18.3419 41.6379 18.7582 41.066 18.9472Z" fill="#263238"/>
<path d="M35.919 20.5232C35.8443 20.5479 35.762 20.5112 35.7315 20.4382C35.7172 20.4046 35.3808 19.5893 35.745 18.8971C35.9669 18.4787 36.3886 18.2019 37.0044 18.0783C37.0849 18.0613 37.1661 18.1143 37.1842 18.1978C37.2012 18.2784 37.1513 18.3588 37.0651 18.3777C36.5422 18.4834 36.1886 18.7057 36.0127 19.0418C35.7149 19.6066 36.0065 20.3153 36.0094 20.324C36.0418 20.4027 36.0071 20.4909 35.9286 20.5232C35.9276 20.5203 35.9219 20.5222 35.919 20.5232Z" fill="#263238"/>
<path d="M38.8253 17.0675C38.7908 17.0789 38.7525 17.0788 38.7152 17.0624C38.6396 17.0266 38.6044 16.9393 38.639 16.8607C38.6448 16.8492 39.2484 15.5603 40.8684 15.9386C40.9507 15.9561 41.0003 16.0388 40.9829 16.1212C40.9655 16.2036 40.8831 16.2532 40.8008 16.2357C39.4191 15.9128 38.9193 16.9758 38.9135 16.9872C38.8952 17.0284 38.8626 17.0552 38.8253 17.0675Z" fill="#263238"/>
<path d="M32.4358 22.9228C32.4358 22.9228 32.9466 25.1724 33.342 25.6647C33.7374 26.157 36.3289 27.6422 36.8423 28.0188C37.3557 28.3955 37.4475 28.4418 37.188 30.0099C36.9285 31.5781 33.9639 42.1485 34.4718 44.3991C34.9826 46.6487 35.7736 48.5693 37.948 47.3842C40.1252 46.1982 39.5263 39.9204 39.4172 36.292C39.3082 32.6637 38.9426 28.0275 38.6399 27.1116C38.3382 26.1986 34.6368 24.8949 34.2321 24.7315C33.8304 24.5672 33.2945 23.4185 33.0861 22.7877C32.8786 22.1503 32.528 22.2661 32.4358 22.9228Z" fill="#FEDEA5"/>
<path d="M37.4348 47.773C36.9348 47.9383 36.4868 47.933 36.0965 47.7553C35.0989 47.3023 34.6412 45.821 34.327 44.4265C33.9406 42.7173 35.4908 36.4128 36.4169 32.6468C36.7276 31.3781 36.9765 30.3757 37.0404 29.9808C37.2825 28.5239 37.2241 28.4824 36.7729 28.1492C36.5922 28.0172 36.1992 27.7733 35.7422 27.4899C34.7477 26.8729 33.5065 26.1074 33.2248 25.7565C32.8189 25.2517 32.3403 23.1863 32.289 22.9541C32.2862 22.9358 32.2834 22.9176 32.2863 22.8975C32.3464 22.4814 32.5096 22.2326 32.7318 22.2103C32.8524 22.1992 33.0773 22.2527 33.2353 22.7308C33.4866 23.4911 34.0027 24.4643 34.2935 24.5822C34.3346 24.6006 34.414 24.6286 34.5231 24.6693C37.2332 25.6936 38.5893 26.4498 38.7892 27.0547C39.108 28.0195 39.4659 32.719 39.574 36.2773C39.5895 36.7386 39.6086 37.2403 39.6335 37.7688C39.7922 41.4222 40.0078 46.4243 38.025 47.5045C37.819 47.6237 37.6216 47.7113 37.4348 47.773ZM32.5859 22.9166C32.7331 23.5549 33.1531 25.1923 33.4559 25.5683C33.7051 25.8788 35.0238 26.6954 35.8968 27.2343C36.3777 27.5322 36.7545 27.7655 36.9275 27.8936C37.5241 28.329 37.5908 28.4922 37.3342 30.0307C37.2674 30.4361 37.0175 31.4452 36.7059 32.7206C35.7875 36.4617 34.2478 42.7211 34.6181 44.3623C34.9011 45.6042 35.3348 47.0805 36.2186 47.4785C36.672 47.6833 37.214 47.6064 37.8762 47.247C39.6941 46.2564 39.4793 41.3627 39.3252 37.7908C39.3022 37.2585 39.2793 36.7549 39.2667 36.2926C39.1505 32.4398 38.7759 27.9983 38.497 27.1544C38.3847 26.8146 37.5837 26.156 34.4115 24.9585C34.3015 24.915 34.2182 24.885 34.1742 24.8676C33.6844 24.6685 33.1316 23.4104 32.9393 22.8286C32.8546 22.5723 32.7685 22.5144 32.7494 22.5144C32.7312 22.5172 32.6372 22.5994 32.5859 22.9166Z" fill="#263238"/>
<path d="M39.4183 36.2879C39.4075 35.9273 39.3939 35.558 39.3783 35.183L35.9974 34.9937C35.1281 38.6132 34.1624 43.0312 34.4729 44.395C34.9837 46.6446 35.7747 48.5652 37.9491 47.3801C40.1263 46.1941 39.5283 39.9191 39.4183 36.2879Z" fill="#F26F1F"/>
<path d="M37.4351 47.7734C36.9351 47.9386 36.4871 47.9333 36.0968 47.7556C35.0992 47.3026 34.6415 45.8214 34.3272 44.4269C34.0045 42.9969 35.0433 38.3374 35.8548 34.9576C35.8731 34.8876 35.9363 34.8379 36.011 34.842L39.391 35.0284C39.4685 35.0315 39.5306 35.0941 39.5343 35.1727C39.5498 35.5477 39.5645 35.9199 39.5753 36.2805C39.5907 36.7419 39.6098 37.2435 39.6347 37.772C39.7934 41.4255 40.009 46.4275 38.0263 47.5077C37.8193 47.624 37.6219 47.7116 37.4351 47.7734ZM36.1167 35.1521C35.3177 38.4927 34.3146 43.0094 34.6213 44.3617C34.9042 45.6036 35.338 47.0799 36.2218 47.4779C36.6752 47.6827 37.2172 47.6058 37.8793 47.2464C39.6972 46.2558 39.4824 41.3621 39.3283 37.7902C39.3054 37.2579 39.2824 36.7543 39.2699 36.292C39.2609 35.9755 39.25 35.6532 39.2343 35.3262L36.1167 35.1521Z" fill="#263238"/>
<path d="M35.3852 37.6464C35.3804 37.6704 35.3756 37.6943 35.3708 37.7183C35.3582 37.7767 35.3447 37.8323 35.3321 37.8908C35.3041 38.0182 35.279 38.1447 35.2501 38.2693C36.0764 38.1943 37.5134 38.1251 39.4968 38.2331C39.4886 38.025 39.4794 37.8236 39.4711 37.625C37.6237 37.5232 36.2479 37.5753 35.3852 37.6464Z" fill="#263238"/>
<path d="M39.1287 45.5973C39.1932 45.3779 39.2492 45.1421 39.2985 44.8958C37.3912 45.5677 35.8554 45.6855 34.8082 45.6419C34.8805 45.8608 34.9587 46.0682 35.0425 46.2641C36.0649 46.2808 37.4485 46.1462 39.1287 45.5973Z" fill="#263238"/>
<path d="M34.6389 41.4746C34.6292 41.5321 34.6195 41.5896 34.6127 41.6462C34.604 41.7066 34.5933 41.7708 34.5846 41.8312C34.5701 41.9318 34.5594 42.0248 34.5467 42.1217C35.7161 41.8598 37.5345 41.6038 39.5712 41.8539C39.5745 41.6516 39.5768 41.4464 39.5762 41.2421C37.6008 41.0037 35.8427 41.2205 34.6389 41.4746Z" fill="#263238"/>
<path d="M43.8325 13.6576C43.8325 13.6576 46.0369 14.3284 46.4975 14.7576C46.9591 15.1897 48.2512 17.8839 48.5891 18.424C48.927 18.964 48.968 19.0591 50.5488 18.9136C52.1286 18.7653 62.8681 16.5576 65.0697 17.2293C67.2741 17.9 69.1295 18.8267 67.793 20.9169C66.4565 23.0071 60.2493 21.9629 56.6428 21.5926C53.0363 21.2224 48.4463 20.5286 47.5567 20.1613C46.6671 19.794 45.6336 16.0016 45.5004 15.5887C45.3671 15.1759 44.2607 14.5576 43.6446 14.3044C43.0343 14.0492 43.1757 13.7054 43.8325 13.6576Z" fill="#FEDEA5"/>
<path d="M66.5209 21.9592C64.4575 22.6412 60.8913 22.2288 58.1138 21.9072C57.5874 21.848 57.0897 21.7889 56.6312 21.7423C53.0946 21.3809 48.4405 20.686 47.503 20.2993C46.9157 20.0558 46.2559 18.6477 45.4321 15.8658C45.3988 15.7554 45.375 15.6738 45.3607 15.6306C45.2646 15.3301 44.3313 14.744 43.5929 14.4386C43.128 14.2472 43.0901 14.0169 43.1085 13.899C43.1434 13.6766 43.405 13.5327 43.8225 13.5033C43.8416 13.5034 43.8608 13.5035 43.8789 13.5102C44.1086 13.5781 46.1292 14.2041 46.6032 14.6449C46.9349 14.9538 47.6073 16.2459 48.1511 17.2834C48.4 17.757 48.6127 18.1691 48.7206 18.3411C49.0308 18.836 49.067 18.8975 50.5358 18.7603C50.9341 18.7213 51.9511 18.5481 53.2363 18.3278C57.0515 17.6707 63.4398 16.572 65.1161 17.0819C66.4776 17.4977 67.922 18.0586 68.304 19.0888C68.5088 19.6409 68.3802 20.284 67.9242 20.997C67.6381 21.443 67.1502 21.7512 66.5209 21.9592ZM43.5576 13.8592C43.4455 13.8963 43.409 13.9403 43.4062 13.9508C43.4052 13.9671 43.4576 14.0584 43.7054 14.1618C44.2698 14.3938 45.4834 15.0374 45.6462 15.5395C45.6604 15.5827 45.6852 15.6671 45.7194 15.7804C46.6869 19.0356 47.2855 19.8824 47.6146 20.0197C48.4344 20.3589 52.8291 21.0501 56.6586 21.4394C57.117 21.4859 57.6176 21.5441 58.145 21.6062C61.6911 22.0156 66.5494 22.576 67.666 20.8332C68.0741 20.1967 68.1871 19.661 68.0166 19.1934C67.6804 18.2822 66.2426 17.7415 65.0274 17.3731C63.422 16.8846 57.0787 17.9748 53.2874 18.6272C51.9937 18.8503 50.9738 19.0245 50.563 19.0644C49.0109 19.2099 48.8541 19.1308 48.4752 18.5244C48.3482 18.3236 48.1441 17.9278 47.8799 17.4273C47.4039 16.5176 46.6875 15.141 46.3941 14.8705C46.0396 14.5405 44.44 14.0021 43.8161 13.8121C43.7041 13.8204 43.6208 13.8383 43.5576 13.8592Z" fill="#263238"/>
<path d="M56.6448 21.5914C56.2888 21.5557 55.9184 21.5152 55.547 21.4718L55.6022 18.0799C59.268 17.4722 63.7389 16.822 65.0717 17.2281C67.2761 17.8988 69.1315 18.8255 67.795 20.9157C66.4585 23.0059 60.2513 21.9617 56.6448 21.5914Z" fill="#F26F1F"/>
<path d="M66.5208 21.9596C64.4575 22.6416 60.8913 22.2292 58.1138 21.9076C57.5873 21.8484 57.0896 21.7893 56.6312 21.7427C56.2713 21.7051 55.9047 21.6665 55.5305 21.6241C55.4539 21.6143 55.3937 21.5479 55.3967 21.4702L55.452 18.0783C55.453 18.0045 55.5029 17.9432 55.5786 17.931C59.0021 17.3618 63.7163 16.6568 65.1189 17.0813C66.4804 17.4971 67.9249 18.058 68.3068 19.0883C68.5116 19.6404 68.3831 20.2835 67.927 20.9965C67.638 21.4434 67.1473 21.7526 66.5208 21.9596ZM56.6595 21.4426C57.118 21.4892 57.6185 21.5474 58.1459 21.6095C61.692 22.0189 66.5503 22.5793 67.6669 20.8365C68.075 20.2 68.188 19.6643 68.0175 19.1967C67.6813 18.2855 66.2435 17.7448 65.0284 17.3764C63.7032 16.9742 59.1336 17.6538 55.7513 18.2126L55.7014 21.3408C56.0249 21.3744 56.3456 21.409 56.6595 21.4426Z" fill="#263238"/>
<path d="M62.1556 22.14C62.3604 22.1522 62.5605 22.1596 62.7606 22.1669L63.0352 17.1243C62.9031 17.1296 62.7691 17.1388 62.6293 17.1498C62.6015 17.1526 62.5699 17.1535 62.5421 17.1563C62.5048 17.159 62.4646 17.1627 62.4272 17.1655L62.1556 22.14Z" fill="#263238"/>
<path d="M59.4161 17.4963C59.3644 17.5038 59.3098 17.5123 59.2572 17.5169C59.1174 17.5376 58.9766 17.5553 58.8368 17.576L58.5579 21.8054C58.713 21.8212 58.869 21.8399 59.025 21.8587C59.0681 21.8636 59.114 21.8676 59.1609 21.8744L59.4497 17.4917C59.4382 17.4954 59.4286 17.4954 59.4161 17.4963Z" fill="#263238"/>
<path d="M66.1971 17.6162C66.0995 18.6229 65.9132 20.4511 65.6939 22.0156C65.9161 21.9741 66.1296 21.9258 66.327 21.867C66.5221 20.4416 66.6849 18.8607 66.7796 17.8741C66.596 17.7815 66.3989 17.6964 66.1971 17.6162Z" fill="#263238"/>
<path d="M102.173 61.7655C102.843 61.8636 103.513 62.281 103.513 62.281C103.513 62.281 103.486 63.0664 102.335 64.7822C103.703 65.4675 104.972 66.2235 105.347 66.0453C106.083 65.6967 107.047 61.5444 107.399 60.3611C107.751 59.1807 108.716 58.1845 108.37 56.4907C108.023 54.794 107.032 55.0162 106.808 55.6235C106.585 56.2308 104.757 58.5793 103.64 59.3765C102.523 60.1708 101.664 60.873 101.664 60.873C101.664 60.873 101.503 61.6675 102.173 61.7655Z" fill="#F37630"/>
<path d="M105.365 66.1985C105.003 66.3182 104.285 65.9611 103.082 65.3396C102.817 65.2035 102.54 65.0587 102.261 64.9178C102.222 64.8985 102.192 64.8639 102.181 64.8226C102.171 64.7814 102.178 64.7344 102.201 64.698C103.096 63.364 103.297 62.6042 103.342 62.3626C103.146 62.2517 102.642 61.9902 102.146 61.9176C101.925 61.8853 101.758 61.7869 101.644 61.6235C101.42 61.3044 101.505 60.8578 101.512 60.8396C101.52 60.8051 101.538 60.7735 101.566 60.7515C101.574 60.7458 102.439 60.0379 103.549 59.2493C104.657 58.4617 106.45 56.1437 106.665 55.568C106.793 55.2223 107.118 54.9998 107.457 55.0249C107.693 55.0429 108.264 55.2184 108.518 56.4602C108.772 57.6991 108.362 58.5628 107.964 59.394C107.801 59.7387 107.646 60.0614 107.543 60.4053C107.477 60.6286 107.386 60.962 107.28 61.3549C106.642 63.7351 106.016 65.8937 105.41 66.1805C105.395 66.1852 105.379 66.1938 105.365 66.1985ZM102.55 64.7231C102.78 64.8389 103.004 64.9567 103.223 65.0696C104.078 65.5154 105.046 66.0162 105.278 65.9077C105.81 65.6552 106.604 62.6963 106.986 61.2763C107.094 60.8796 107.184 60.5432 107.25 60.32C107.359 59.955 107.527 59.6055 107.687 59.2684C108.064 58.4794 108.451 57.6645 108.218 56.5244C108.069 55.8037 107.775 55.3578 107.431 55.3308C107.228 55.3148 107.027 55.458 106.946 55.6764C106.717 56.2952 104.894 58.6677 103.724 59.4983C102.766 60.179 101.995 60.7951 101.804 60.9508C101.793 61.0534 101.782 61.2902 101.896 61.4507C101.962 61.544 102.059 61.598 102.193 61.6176C102.887 61.7205 103.563 62.136 103.592 62.1553C103.64 62.1842 103.666 62.2361 103.661 62.2888C103.659 62.3186 103.621 63.0914 102.55 64.7231Z" fill="#263238"/>
<path d="M107.675 55.2478C108.08 57.3023 107.668 58.1478 106.193 61.3827C105.042 63.907 104.747 65.3302 104.677 66.0051C104.981 66.0867 105.214 66.1056 105.344 66.0466C106.08 65.698 107.044 61.5456 107.396 60.3623C107.748 59.1819 108.713 58.1857 108.367 56.4919C108.218 55.7616 107.952 55.3896 107.675 55.2478Z" fill="white"/>
<path d="M105.356 66.2016C105.198 66.2538 104.967 66.2377 104.638 66.1513C104.566 66.1338 104.517 66.0636 104.528 65.9898C104.609 65.2123 104.939 63.771 106.057 61.3185L106.142 61.1337C107.542 58.0674 107.917 57.2438 107.528 55.2766C107.516 55.22 107.541 55.1606 107.587 55.1262C107.633 55.0918 107.695 55.0872 107.748 55.1143C107.999 55.2455 108.338 55.587 108.518 56.4603C108.772 57.6993 108.362 58.563 107.964 59.3941C107.801 59.7389 107.646 60.0616 107.543 60.4055C107.477 60.6288 107.386 60.9622 107.28 61.3551C106.642 63.7352 106.016 65.8939 105.41 66.1806C105.394 66.1892 105.376 66.1949 105.356 66.2016ZM104.845 65.8882C105.137 65.9515 105.246 65.925 105.278 65.9078C105.81 65.6554 106.605 62.6965 106.986 61.2764C107.094 60.8798 107.184 60.5434 107.25 60.3202C107.359 59.9551 107.527 59.6056 107.687 59.2686C108.064 58.4795 108.451 57.6647 108.218 56.5246C108.134 56.1177 108.017 55.8497 107.902 55.6767C108.161 57.4412 107.704 58.4419 106.415 61.2641L106.329 61.4489C105.248 63.819 104.933 65.2105 104.845 65.8882Z" fill="#263238"/>
<path d="M58.7924 52.4224C58.7493 52.4366 58.6967 52.4317 58.6575 52.3999C58.5905 52.3517 58.5745 52.2548 58.6224 52.1878C58.6224 52.1878 58.8605 51.8568 59.255 51.3143C59.3029 51.2473 59.3997 51.2313 59.4675 51.2824C59.5345 51.3305 59.5506 51.4274 59.4997 51.4954C59.1043 52.035 58.8701 52.368 58.8701 52.368C58.847 52.3948 58.8211 52.4129 58.7924 52.4224Z" fill="white"/>
<path d="M57.885 53.2946C57.885 53.2946 64.9572 42.8649 71.445 37.7367C77.9338 32.6114 81.025 33.6121 81.4047 36.3619C81.7815 39.1126 81.1912 48.5725 80.1279 54.0355C79.0645 59.4986 77.1654 68.538 77.1654 68.538C77.1654 68.538 83.3164 73 83.9214 73.5477C84.5254 74.0924 81.7817 75.1078 80.4095 74.8138C79.3186 74.5801 79.372 74.6839 76.9646 74.0355C72.8846 72.9367 72.4065 72.1363 72.6294 71.2097C73.3473 68.2409 74.5145 65.5709 74.2745 62.3564C73.8365 56.5174 74.0216 48.7057 74.5535 49.3797C74.5535 49.3797 72.3422 53.9443 67.8383 57.3497C63.3315 60.7561 59.8763 61.4028 56.6295 59.1406" fill="#73B4EA"/>
<path d="M82.8012 74.691C81.9937 74.9579 81.0074 75.0985 80.3739 74.9661C80.0553 74.8989 79.8351 74.8598 79.6217 74.8217C79.1107 74.7318 78.6265 74.6459 76.9223 74.1868C72.8634 73.0939 72.2198 72.2555 72.4793 71.1794C72.6617 70.4194 72.8766 69.6711 73.0876 68.9497C73.7111 66.7852 74.2989 64.7444 74.1214 62.375C73.8506 58.7394 73.7788 53.1596 74.0507 50.5874C73.0924 52.1724 71.0496 55.1158 67.9253 57.4775C63.2939 60.9793 59.7814 61.53 56.5356 59.2706C56.4658 59.2234 56.4506 59.1294 56.4977 59.0595C56.5447 58.9897 56.6414 58.9737 56.7084 59.0218C59.8271 61.1954 63.2314 60.6454 67.74 57.2352C71.3313 54.5212 73.4707 51.0314 74.1623 49.7869C74.23 49.4515 74.3117 49.2456 74.4114 49.2094C74.4459 49.198 74.5618 49.1629 74.6659 49.2946C74.7031 49.3398 74.7078 49.4022 74.6837 49.4549C74.6799 49.4625 74.5886 49.6492 74.4099 49.9671C74.1435 51.6685 74.0409 57.3283 74.4182 62.3568C74.6003 64.7789 74.0029 66.8485 73.3746 69.0369C73.1665 69.7574 72.9535 70.5019 72.7721 71.2551C72.6004 71.97 72.7827 72.7627 76.9985 73.8964C78.6892 74.3536 79.1658 74.4357 79.6711 74.5275C79.8874 74.5646 80.1113 74.6056 80.4367 74.6738C81.5783 74.9162 83.6053 74.2304 83.8388 73.7698C83.8599 73.7277 83.859 73.7056 83.8179 73.6681C83.2273 73.1349 77.1375 68.7133 77.0754 68.67C77.0256 68.6353 77.0028 68.5758 77.0153 68.5173C77.0337 68.4282 78.926 59.4165 79.9778 54.0148C81.0527 48.4904 81.6256 39.1034 81.2545 36.3891C81.1223 35.4201 80.6506 34.7453 79.8968 34.4417C78.9029 34.0386 76.4954 33.9494 71.5378 37.8626C65.143 42.9152 58.0814 53.2807 58.0104 53.3841C57.9634 53.4539 57.8705 53.4718 57.8007 53.4246C57.7309 53.3774 57.7129 53.2843 57.7599 53.2145C57.8309 53.1111 64.9203 42.7045 71.3506 37.6241C75.1117 34.6527 78.1861 33.4225 80.0074 34.1592C80.8684 34.5072 81.4021 35.2637 81.5532 36.3479C81.9281 39.0833 81.3532 48.5221 80.2735 54.0704C79.2817 59.1712 77.5371 67.4919 77.3313 68.48C78.0856 69.0262 83.445 72.9255 84.0203 73.4414C84.1618 73.5704 84.195 73.7383 84.1104 73.9069C83.9596 74.1931 83.4363 74.4811 82.8012 74.691Z" fill="#73B4EA"/>
<path d="M60.3808 50.2549C60.3349 50.2701 60.2841 50.2613 60.243 50.2334C60.1751 50.1823 60.1629 50.0874 60.2109 50.0204C61.6946 48.0381 63.803 45.3222 65.4336 43.6491C65.4901 43.5889 65.5888 43.5882 65.6461 43.646C65.7072 43.7056 65.7071 43.8015 65.6495 43.8589C64.0314 45.5214 61.9317 48.2249 60.4527 50.2024C60.4355 50.2273 60.4096 50.2454 60.3808 50.2549Z" fill="white"/>
<path d="M72.0028 53.168C71.9626 53.1813 71.9166 53.1773 71.8765 53.1522C71.8048 53.1089 71.7829 53.0138 71.8261 52.9421L73.6026 50.0515C73.575 49.4472 73.3807 43.3616 76.0564 39.2761C76.1034 39.2062 76.1954 39.1854 76.2652 39.2326C76.335 39.2799 76.3558 39.372 76.3088 39.4419C73.5611 43.6374 73.9033 50.016 73.908 50.0784C73.9088 50.11 73.903 50.1407 73.8858 50.1656L72.0872 53.0954C72.0651 53.1346 72.0373 53.1566 72.0028 53.168Z" fill="white"/>
<path d="M81.069 47.98C81.0518 47.9857 81.0307 47.9894 81.0106 47.9865C80.9264 47.9824 80.8643 47.9103 80.8683 47.8259L80.9592 46.3358C80.9632 46.2515 81.0351 46.1894 81.1193 46.1935C81.2035 46.1976 81.2656 46.2697 81.2616 46.3541L81.1708 47.8441C81.1697 47.9084 81.1265 47.961 81.069 47.98Z" fill="white"/>
<path d="M81.2399 45.1789C81.2226 45.1846 81.2016 45.1884 81.1815 45.1854C81.0972 45.1813 81.0352 45.1092 81.0391 45.0248L81.3662 39.6294C81.3702 39.5451 81.4421 39.4829 81.5263 39.4871C81.6105 39.4912 81.6726 39.5633 81.6686 39.6477L81.3416 45.0431C81.3377 45.1083 81.2974 45.1599 81.2399 45.1789Z" fill="white"/>
<path d="M80.4046 74.8186C81.7759 75.1098 84.5234 74.0963 83.9165 73.5525C83.3125 73.0077 77.1606 68.5428 77.1606 68.5428C77.1606 68.5428 77.6639 66.1498 78.2976 63.081C76.3679 63.4536 75.0678 63.0111 74.277 62.5185C74.4683 65.6628 73.3328 68.2936 72.6246 71.2145C72.4017 72.1411 72.8798 72.9415 76.9597 74.0403C79.3671 74.6887 79.3137 74.5849 80.4046 74.8186Z" fill="#FEDEA5"/>
<path d="M82.8013 74.6911C81.9938 74.958 81.0075 75.0986 80.374 74.9662C80.0553 74.899 79.8352 74.8599 79.6218 74.8218C79.1107 74.7319 78.6265 74.646 76.9224 74.1869C72.8635 73.094 72.2198 72.2556 72.4794 71.1795C72.6627 70.4224 72.8757 69.6779 73.0838 68.9574C73.6938 66.839 74.2691 64.8374 74.1279 62.5295C74.1251 62.4729 74.152 62.4193 74.2028 62.3898C74.2507 62.3611 74.3111 62.3604 74.3598 62.3922C75.0865 62.8453 76.3541 63.3049 78.2714 62.9332C78.3221 62.9228 78.3719 62.9383 78.4063 62.9749C78.4407 63.0114 78.4578 63.0633 78.4453 63.1121C77.8868 65.8205 77.428 68.0009 77.3304 68.4772C78.0847 69.0234 83.4441 72.9228 84.0194 73.4387C84.1609 73.5676 84.1941 73.7356 84.1095 73.9041C83.9596 74.1932 83.4364 74.4812 82.8013 74.6911ZM74.4433 62.7895C74.5272 65.03 73.9673 66.9818 73.3756 69.0399C73.1694 69.7566 72.9565 70.501 72.7741 71.2514C72.6024 71.9663 72.7847 72.759 77.0005 73.8927C78.6912 74.3499 79.1678 74.4319 79.6731 74.5237C79.8894 74.5609 80.1133 74.6019 80.4387 74.67C81.5803 74.9125 83.6073 74.2266 83.8408 73.7661C83.8619 73.7239 83.861 73.7019 83.8199 73.6643C83.2293 73.1311 77.1395 68.7096 77.0773 68.6663C77.0276 68.6316 77.0047 68.572 77.0173 68.5136C77.0173 68.5136 77.4974 66.2336 78.1061 63.2722C76.4063 63.5496 75.2065 63.1986 74.4433 62.7895Z" fill="#263238"/>
<path d="M77.161 68.5429C77.161 68.5429 76.6836 68.3812 76.4579 69.3088C76.2321 70.2364 76.198 71.0975 76.198 71.0975L73.1408 69.3029C72.9596 69.9315 72.7804 70.5658 72.625 71.2145C72.4021 72.1412 72.8802 72.9416 76.9602 74.0404C79.3676 74.6887 79.3142 74.585 80.4051 74.8187C81.7764 75.1098 84.5239 74.0963 83.917 73.5525C83.312 73.0049 77.161 68.5429 77.161 68.5429Z" fill="#F37630"/>
<path d="M82.8014 74.6909C81.9938 74.9578 81.0075 75.0985 80.374 74.966C80.0554 74.8988 79.8353 74.8598 79.6219 74.8217C79.1108 74.7318 78.6266 74.6459 76.9225 74.1867C72.8636 73.0938 72.2199 72.2555 72.4795 71.1793C72.6425 70.5056 72.8324 69.8359 72.9962 69.261C73.0097 69.215 73.0423 69.1787 73.0844 69.1615C73.1295 69.1435 73.1754 69.1475 73.2185 69.1716L76.0653 70.8408C76.0917 70.5158 76.156 69.9099 76.3114 69.2707C76.4127 68.8539 76.5798 68.5782 76.8088 68.4514C77.0139 68.3389 77.1909 68.3922 77.2091 68.399C77.2234 68.4038 77.2387 68.4115 77.2511 68.4202C77.5026 68.6023 83.4155 72.8938 84.0195 73.4385C84.1609 73.5675 84.1941 73.7354 84.1096 73.9039C83.9597 74.1931 83.4365 74.481 82.8014 74.6909ZM73.2321 69.5312C73.0818 70.0601 72.9141 70.6523 72.7703 71.2493C72.5986 71.9642 72.7809 72.7569 76.9967 73.8906C78.6874 74.3478 79.164 74.4299 79.6693 74.5217C79.8856 74.5588 80.1095 74.5998 80.4349 74.668C81.5765 74.9104 83.6035 74.2245 83.837 73.764C83.8581 73.7219 83.8572 73.6998 83.8161 73.6623C83.2437 73.1454 77.5391 69.0023 77.0984 68.6815C77.0716 68.6776 77.0123 68.6813 76.9452 68.7194C76.8436 68.7785 76.7007 68.9344 76.6023 69.3407C76.3833 70.2405 76.3491 71.092 76.3481 71.0987C76.3461 71.1505 76.3144 71.1993 76.2694 71.227C76.2234 71.2518 76.166 71.2516 76.1191 71.2256L73.2321 69.5312Z" fill="#F37630"/>
<path d="M76.9616 74.0403C79.369 74.6886 79.3155 74.5849 80.4065 74.8186C81.6409 75.0815 83.9859 74.2873 84.0051 73.7282C79.5667 74.9396 74.8006 72.6523 72.5993 71.364C72.4637 72.2267 73.1017 72.9998 76.9616 74.0403Z" fill="white"/>
<path d="M82.7778 74.7049C81.9933 74.9642 81.0338 75.1088 80.3745 74.9657C80.0558 74.8985 79.8357 74.8594 79.6223 74.8213C79.1112 74.7314 78.627 74.6455 76.9229 74.1864C72.996 73.1265 72.2997 72.312 72.447 71.34C72.4557 71.2892 72.4865 71.2471 72.5305 71.2261C72.5775 71.2042 72.6292 71.2063 72.6732 71.2333C75.0361 72.6152 79.6435 74.76 83.9622 73.5818C84.0091 73.5695 84.057 73.5793 84.0952 73.6081C84.1335 73.637 84.1554 73.6841 84.1524 73.733C84.1474 73.8816 84.0504 74.0319 83.8654 74.1761C83.6199 74.369 83.2261 74.5567 82.7778 74.7049ZM72.7327 71.6161C72.7613 72.2041 73.3765 72.9177 77.001 73.8922C78.6917 74.3494 79.1683 74.4315 79.6736 74.5232C79.8899 74.5604 80.1138 74.6014 80.4392 74.6695C81.3511 74.8633 82.9678 74.4504 83.6274 73.9768C79.4498 74.9167 75.111 72.977 72.7327 71.6161Z" fill="#263238"/>
</svg>