<svg width="26" height="22" viewBox="0 0 26 22" fill="none" xmlns="http://www.w3.org/2000/svg">
<path d="M9.96381 10.4887C9.86426 10.4706 9.76471 10.4616 9.66516 10.4616H5.52037C2.47964 10.4616 0 12.9322 0 15.9819V16.4797C0 19.5204 2.47964 22 5.52037 22H6.2534C8.29865 22 10.0996 20.8779 11.0407 19.2037C11.5113 18.3982 11.7738 17.4752 11.7738 16.4797V12.5611C11.7738 11.5023 10.9774 10.6245 9.96381 10.4887ZM9.96381 16.4797C9.96381 18.5249 8.29865 20.1901 6.2534 20.1901H5.52037C3.47512 20.1901 1.80995 18.5249 1.80995 16.4797V15.9819C1.80995 13.9367 3.47512 12.2715 5.52037 12.2715H9.66516C9.82806 12.2715 9.96381 12.3982 9.96381 12.5611V16.4797V16.4797Z" fill="#000"/>
<path d="M20.9052 0.0361991H20.3079V0H15.593C12.4889 0 9.96402 2.52489 9.96402 5.62896V15.9005C9.96402 17.1403 10.3622 18.2805 11.0409 19.2036C11.5115 18.3982 11.774 17.4751 11.774 16.4796V5.62896C11.774 3.52036 13.4844 1.80995 15.593 1.80995H19.8554V1.819H20.9052C22.6518 1.819 24.0726 3.23982 24.0726 4.98642V9.14027C24.0274 9.13122 23.9731 9.13122 23.9278 9.13122H20.3713C17.7649 9.13122 15.6292 11.2489 15.6292 13.8643V14.2896C15.6292 16.8959 17.7649 19.0317 20.3713 19.0317H20.9957C22.7514 19.0317 24.2988 18.0633 25.1043 16.6244C25.3758 16.1629 25.5749 15.6561 25.6654 15.1041C25.783 14.6787 25.8464 14.2443 25.8464 13.7919V4.98642C25.8464 2.25339 23.6292 0.0361991 20.9052 0.0361991ZM24.1812 14.2896C24.1812 14.5158 24.154 14.733 24.1179 14.9502C23.8102 16.3891 22.5251 17.4751 20.9957 17.4751H20.3713C18.6156 17.4751 17.1857 16.0452 17.1857 14.2896V13.8643C17.1857 12.1086 18.6156 10.6787 20.3713 10.6787H23.9278C23.9821 10.6787 24.0274 10.6968 24.0726 10.724C24.136 10.7692 24.1812 10.8416 24.1812 10.9321V14.2896V14.2896Z" fill="#000"/>
</svg>