<svg width="415" height="755" viewBox="0 0 415 755" fill="none" xmlns="http://www.w3.org/2000/svg">
<path fill-rule="evenodd" clip-rule="evenodd" d="M415 149.339C440.53 136.247 458 109.664 458 79C458 35.3695 422.63 0 379 0C352.485 0 329.02 13.0631 314.691 33.1047C309.863 31.7338 304.767 31 299.5 31C280.219 31 263.235 40.8316 253.287 55.755C245.984 47.9081 235.565 43 224 43C208.366 43 194.826 51.9696 188.247 65.0435C177.307 58.6584 164.581 55 151 55C126.225 55 104.294 67.175 90.8628 85.8683C86.4494 84.6505 81.8007 84 77 84C68.8397 84 61.1184 85.8797 54.2455 89.2297C46.671 75.9515 32.3808 67 16 67C-8.30053 67 -28 86.6995 -28 111C-28 130.033 -15.9151 146.244 1 152.377V755H415V149.339ZM250.458 113H250.723C250.694 112.947 250.666 112.894 250.637 112.841C250.578 112.894 250.518 112.947 250.458 113Z" fill="url(#paint0_linear_1:1609)"/>
<defs>
<linearGradient id="paint0_linear_1:1609" x1="208" y1="32" x2="208" y2="545.5" gradientUnits="userSpaceOnUse">
<stop stop-color="#FAF8F5"/>
<stop offset="1" stop-color="white" stop-opacity="0"/>
</linearGradient>
</defs>
</svg>