<svg width="25" height="26" viewBox="0 0 25 26" fill="none" xmlns="http://www.w3.org/2000/svg">
<g clip-path="url(#clip0_1:1400)">
<path d="M22.788 14.1198C23.0337 14.1198 23.2444 14.3214 23.2444 14.5823V16.6459C23.2444 16.895 23.0454 17.1084 22.788 17.1084H16.0581C15.8123 17.1084 15.6016 16.9068 15.6016 16.6459V14.5823C15.6016 14.3333 15.8006 14.1198 16.0581 14.1198H22.788ZM22.788 12.3409H16.0581C14.8409 12.3409 13.846 13.3489 13.846 14.5823V16.6459C13.846 17.8793 14.8409 18.8874 16.0581 18.8874H22.788C24.0052 18.8874 25 17.8793 25 16.6459V14.5823C25 13.3489 24.0052 12.3409 22.788 12.3409Z" fill="white"/>
<path d="M16.8188 1.79774C17.0646 1.79774 17.2753 1.99935 17.2753 2.26026V9.07952C17.2753 9.32857 17.0763 9.54204 16.8188 9.54204H14.7823C14.5365 9.54204 14.3259 9.34043 14.3259 9.07952V2.26026C14.3259 2.01121 14.5248 1.79774 14.7823 1.79774H16.8188ZM16.8188 0.0187988H14.7823C13.5651 0.0187988 12.5703 1.02686 12.5703 2.26026V9.07952C12.5703 10.3129 13.5651 11.321 14.7823 11.321H16.8188C18.0361 11.321 19.0309 10.3129 19.0309 9.07952V2.26026C19.0309 1.02686 18.0478 0.0187988 16.8188 0.0187988Z" fill="white"/>
<path d="M10.5454 15.4956C10.7912 15.4956 11.0019 15.6972 11.0019 15.9581V22.7774C11.0019 23.0264 10.8029 23.2399 10.5454 23.2399H8.50889C8.26311 23.2399 8.05243 23.0383 8.05243 22.7774V15.9581C8.05243 15.709 8.2514 15.4956 8.50889 15.4956H10.5454ZM10.5454 13.7166H8.50889C7.29166 13.7166 6.29681 14.7247 6.29681 15.9581V22.7774C6.29681 24.0107 7.29166 25.0188 8.50889 25.0188H10.5454C11.7626 25.0188 12.7575 24.0107 12.7575 22.7774V15.9581C12.7575 14.7247 11.7626 13.7166 10.5454 13.7166Z" fill="white"/>
<path d="M8.94195 8.03588C9.18773 8.03588 9.39841 8.23749 9.39841 8.4984V10.5738C9.39841 10.8229 9.19944 11.0364 8.94195 11.0364H2.21208C1.95459 11.0364 1.75562 10.8229 1.75562 10.5738V8.4984C1.75562 8.24935 1.95459 8.03588 2.21208 8.03588H8.94195ZM8.94195 6.25694H2.21208C0.99485 6.25694 0 7.26501 0 8.4984V10.5738C0 11.8072 0.99485 12.8153 2.21208 12.8153H8.94195C10.1592 12.8153 11.154 11.8072 11.154 10.5738V8.4984C11.154 7.26501 10.1592 6.25694 8.94195 6.25694Z" fill="white"/>
</g>
<defs>
<clipPath id="clip0_1:1400">
<rect width="25" height="25" fill="white" transform="translate(0 0.0187988)"/>
</clipPath>
</defs>
</svg>