<svg width="29" height="27" viewBox="0 0 29 27" fill="none" xmlns="http://www.w3.org/2000/svg">
<mask id="path-1-outside-1_1:1438" maskUnits="userSpaceOnUse" x="-0.13623" y="0.0187073" width="29" height="27" fill="black">
<rect fill="white" x="-0.13623" y="0.0187073" width="29" height="27"/>
<path d="M25.5064 11.8229C24.6129 8.34521 22.1078 5.45427 18.7275 4.10332C18.1436 2.2799 16.4268 1.01871 14.5001 1.01871C12.5241 1.01871 10.8463 2.31692 10.2729 4.10498C8.2371 4.92038 6.49373 6.29594 5.21826 8.098C4.4125 9.23652 3.83157 10.4951 3.49141 11.823C2.02429 11.9326 0.86377 13.1605 0.86377 14.6551C0.86377 16.1505 2.02546 17.379 3.49376 17.4874C4.75548 22.3874 9.21161 26.0187 14.5001 26.0187C19.7884 26.0187 24.2446 22.3874 25.5062 17.4874C26.9745 17.379 28.1363 16.1505 28.1363 14.655C28.1363 13.1597 26.9746 11.9313 25.5064 11.8229ZM2.00021 14.655C2.00021 13.8709 2.53251 13.2089 3.25459 13.0109C3.2058 13.3491 3.17181 13.6905 3.15338 14.0346C3.15306 14.0394 3.1529 14.044 3.15264 14.0488C3.14933 14.1115 3.1464 14.1742 3.14417 14.237C3.14326 14.2608 3.14278 14.2846 3.14214 14.3084C3.14076 14.3535 3.13932 14.3985 3.13847 14.4436C3.13724 14.5141 3.1365 14.5845 3.1365 14.655C3.1365 14.741 3.13783 14.827 3.13985 14.9131C3.14044 14.94 3.14118 14.9669 3.14204 14.9937C3.14385 15.0563 3.1463 15.1189 3.14917 15.1815C3.15035 15.208 3.15141 15.2346 3.15274 15.2611C3.1569 15.3392 3.1619 15.4172 3.1676 15.4952C3.17032 15.5318 3.17352 15.5683 3.1765 15.6048C3.18039 15.6511 3.18444 15.6973 3.18886 15.7435C3.19275 15.7842 3.19674 15.825 3.20106 15.8655C3.20606 15.913 3.21176 15.9605 3.21736 16.0079C3.22476 16.07 3.2327 16.1319 3.24106 16.1937C3.24585 16.229 3.25027 16.2644 3.25539 16.2995C2.53288 16.1018 2.00021 15.4394 2.00021 14.655ZM14.5001 2.15515C15.6254 2.15515 16.6547 2.73309 17.2555 3.63772C17.2442 3.63761 17.2328 3.63756 17.2215 3.63756C17.2141 3.63756 17.207 3.63809 17.1996 3.63815C17.1968 3.63825 17.1939 3.6382 17.1911 3.63836C15.4219 3.65482 13.9878 5.09845 13.9878 6.87133C13.9878 7.56123 14.2045 8.21716 14.5939 8.75835C14.5627 8.7592 14.5313 8.75968 14.5001 8.75968C12.6793 8.75968 11.1979 7.27834 11.1979 5.45752C11.1979 3.63655 12.6792 2.15515 14.5001 2.15515ZM24.7235 14.9242C24.7232 14.9381 24.7224 14.9518 24.722 14.9657C24.7197 15.0418 24.7169 15.118 24.7129 15.1941C24.7122 15.2077 24.7111 15.2212 24.7103 15.2348C24.706 15.3108 24.7012 15.3869 24.6953 15.4629C24.6941 15.4782 24.6924 15.4934 24.6912 15.5088C24.6851 15.5822 24.6784 15.6555 24.6708 15.7288C24.6687 15.7492 24.6661 15.7695 24.6638 15.7898C24.6564 15.8569 24.6486 15.9239 24.6399 15.9909C24.6362 16.0189 24.632 16.0468 24.6281 16.0747C24.6201 16.1326 24.6119 16.1904 24.6028 16.2481C24.5969 16.2857 24.5905 16.323 24.5841 16.3604C24.5763 16.4071 24.5685 16.4538 24.56 16.5003C24.5513 16.5477 24.5421 16.5948 24.5328 16.6418C24.5259 16.6771 24.5189 16.7124 24.5116 16.7476C23.5433 21.3866 19.4222 24.8823 14.5 24.8823C9.57409 24.8823 5.45061 21.3817 4.48617 16.7376C4.47743 16.6955 4.46939 16.6532 4.46124 16.6109C4.45335 16.5705 4.44531 16.5301 4.43796 16.4896C4.42752 16.4322 4.41798 16.3745 4.4085 16.3168C4.40419 16.2904 4.39945 16.2639 4.39535 16.2374C4.38405 16.1644 4.37372 16.0914 4.36392 16.0181C4.36227 16.0057 4.36024 15.9933 4.3587 15.9809C4.34751 15.8947 4.33729 15.8082 4.32828 15.7217C4.32828 15.7213 4.32818 15.7208 4.32818 15.7205C4.29137 15.3668 4.27278 15.0109 4.27278 14.6552C4.27278 14.5749 4.27411 14.4946 4.27603 14.4143C4.27672 14.3879 4.27752 14.3616 4.27837 14.3353C4.28002 14.2813 4.28226 14.2273 4.28482 14.1733C4.28626 14.1418 4.28764 14.1104 4.2894 14.079C4.29212 14.0312 4.29553 13.9833 4.29888 13.9355C4.30479 13.853 4.31145 13.7706 4.31928 13.6884C4.32019 13.679 4.32093 13.6695 4.32184 13.6602C4.67105 10.1238 6.86122 6.98553 10.0619 5.43962C10.0619 5.44564 10.0615 5.45156 10.0615 5.45758C10.0615 5.86432 10.1175 6.25796 10.2205 6.63242C9.20064 7.17548 8.30506 7.89905 7.55438 8.78866C7.35196 9.02852 7.38238 9.387 7.62224 9.58931C7.72888 9.67933 7.85896 9.72322 7.98839 9.72322C8.15 9.72322 8.31055 9.65461 8.42289 9.52145C9.05703 8.76996 9.80921 8.15409 10.6633 7.68492C11.4331 9.00577 12.8642 9.89612 14.5001 9.89612C15.0017 9.89612 15.4947 9.81271 15.9649 9.64827C16.1697 9.57663 16.3159 9.39462 16.3416 9.1791C16.3672 8.96364 16.2679 8.75233 16.0856 8.63466C15.4836 8.24576 15.1242 7.58664 15.1242 6.87143C15.1242 5.7384 16.0274 4.813 17.1516 4.77587C20.9258 5.78564 23.7327 8.83734 24.5103 12.5567C24.5232 12.6183 24.5357 12.6799 24.5473 12.7417C24.5534 12.774 24.559 12.8065 24.5649 12.8388C24.574 12.8894 24.5829 12.94 24.5912 12.9908C24.5962 13.0211 24.6009 13.0515 24.6057 13.082C24.6145 13.139 24.6229 13.1962 24.6306 13.2534C24.6339 13.2772 24.6374 13.301 24.6405 13.3248C24.6621 13.4909 24.6798 13.6577 24.6933 13.8247C24.6949 13.8438 24.6961 13.8631 24.6975 13.8823C24.7024 13.9466 24.7067 14.0109 24.7103 14.0753C24.7117 14.1002 24.713 14.1253 24.7143 14.1504C24.7174 14.2116 24.7197 14.2729 24.7216 14.3342C24.7224 14.3579 24.7232 14.3816 24.7239 14.4053C24.7259 14.4886 24.7272 14.5719 24.7272 14.6551C24.7271 14.7448 24.7259 14.8346 24.7235 14.9242ZM25.7447 16.2995C25.7509 16.2566 25.7565 16.2134 25.7623 16.1703C25.7684 16.1249 25.7742 16.0793 25.7798 16.0336C25.7868 15.9762 25.7935 15.9188 25.7996 15.8614C25.8036 15.8238 25.8073 15.7861 25.8108 15.7483C25.8156 15.6988 25.8199 15.6493 25.824 15.5999C25.8269 15.5656 25.8299 15.5314 25.8324 15.497C25.8383 15.4181 25.8433 15.3392 25.8475 15.2601C25.8489 15.2347 25.8498 15.2092 25.851 15.1836C25.8539 15.1201 25.8563 15.0566 25.8582 14.993C25.859 14.9665 25.8597 14.94 25.8604 14.9135C25.8623 14.8273 25.8637 14.7412 25.8637 14.655C25.8637 14.58 25.8628 14.5051 25.8613 14.4301C25.8607 14.4029 25.8598 14.3757 25.8591 14.3485C25.8579 14.3015 25.8564 14.2545 25.8547 14.2074C25.8533 14.1739 25.8516 14.1405 25.8501 14.1071C25.8482 14.0666 25.8461 14.0262 25.8437 13.9858C25.8416 13.9495 25.8393 13.9133 25.8368 13.8771C25.8343 13.8398 25.8315 13.8026 25.8286 13.7654C25.8256 13.7276 25.8227 13.6898 25.8193 13.6521C25.8161 13.6157 25.8125 13.5794 25.809 13.543C25.8053 13.5056 25.8018 13.4681 25.7978 13.4306C25.7933 13.3883 25.7881 13.3463 25.7831 13.304C25.7775 13.2571 25.7718 13.2103 25.7656 13.1635C25.7588 13.1125 25.7522 13.0614 25.7448 13.0106C26.4674 13.2082 26.9999 13.8705 26.9999 14.6549C26.9998 15.4395 26.4673 16.1018 25.7447 16.2995Z"/>
</mask>
<path d="M25.5064 11.8229C24.6129 8.34521 22.1078 5.45427 18.7275 4.10332C18.1436 2.2799 16.4268 1.01871 14.5001 1.01871C12.5241 1.01871 10.8463 2.31692 10.2729 4.10498C8.2371 4.92038 6.49373 6.29594 5.21826 8.098C4.4125 9.23652 3.83157 10.4951 3.49141 11.823C2.02429 11.9326 0.86377 13.1605 0.86377 14.6551C0.86377 16.1505 2.02546 17.379 3.49376 17.4874C4.75548 22.3874 9.21161 26.0187 14.5001 26.0187C19.7884 26.0187 24.2446 22.3874 25.5062 17.4874C26.9745 17.379 28.1363 16.1505 28.1363 14.655C28.1363 13.1597 26.9746 11.9313 25.5064 11.8229ZM2.00021 14.655C2.00021 13.8709 2.53251 13.2089 3.25459 13.0109C3.2058 13.3491 3.17181 13.6905 3.15338 14.0346C3.15306 14.0394 3.1529 14.044 3.15264 14.0488C3.14933 14.1115 3.1464 14.1742 3.14417 14.237C3.14326 14.2608 3.14278 14.2846 3.14214 14.3084C3.14076 14.3535 3.13932 14.3985 3.13847 14.4436C3.13724 14.5141 3.1365 14.5845 3.1365 14.655C3.1365 14.741 3.13783 14.827 3.13985 14.9131C3.14044 14.94 3.14118 14.9669 3.14204 14.9937C3.14385 15.0563 3.1463 15.1189 3.14917 15.1815C3.15035 15.208 3.15141 15.2346 3.15274 15.2611C3.1569 15.3392 3.1619 15.4172 3.1676 15.4952C3.17032 15.5318 3.17352 15.5683 3.1765 15.6048C3.18039 15.6511 3.18444 15.6973 3.18886 15.7435C3.19275 15.7842 3.19674 15.825 3.20106 15.8655C3.20606 15.913 3.21176 15.9605 3.21736 16.0079C3.22476 16.07 3.2327 16.1319 3.24106 16.1937C3.24585 16.229 3.25027 16.2644 3.25539 16.2995C2.53288 16.1018 2.00021 15.4394 2.00021 14.655ZM14.5001 2.15515C15.6254 2.15515 16.6547 2.73309 17.2555 3.63772C17.2442 3.63761 17.2328 3.63756 17.2215 3.63756C17.2141 3.63756 17.207 3.63809 17.1996 3.63815C17.1968 3.63825 17.1939 3.6382 17.1911 3.63836C15.4219 3.65482 13.9878 5.09845 13.9878 6.87133C13.9878 7.56123 14.2045 8.21716 14.5939 8.75835C14.5627 8.7592 14.5313 8.75968 14.5001 8.75968C12.6793 8.75968 11.1979 7.27834 11.1979 5.45752C11.1979 3.63655 12.6792 2.15515 14.5001 2.15515ZM24.7235 14.9242C24.7232 14.9381 24.7224 14.9518 24.722 14.9657C24.7197 15.0418 24.7169 15.118 24.7129 15.1941C24.7122 15.2077 24.7111 15.2212 24.7103 15.2348C24.706 15.3108 24.7012 15.3869 24.6953 15.4629C24.6941 15.4782 24.6924 15.4934 24.6912 15.5088C24.6851 15.5822 24.6784 15.6555 24.6708 15.7288C24.6687 15.7492 24.6661 15.7695 24.6638 15.7898C24.6564 15.8569 24.6486 15.9239 24.6399 15.9909C24.6362 16.0189 24.632 16.0468 24.6281 16.0747C24.6201 16.1326 24.6119 16.1904 24.6028 16.2481C24.5969 16.2857 24.5905 16.323 24.5841 16.3604C24.5763 16.4071 24.5685 16.4538 24.56 16.5003C24.5513 16.5477 24.5421 16.5948 24.5328 16.6418C24.5259 16.6771 24.5189 16.7124 24.5116 16.7476C23.5433 21.3866 19.4222 24.8823 14.5 24.8823C9.57409 24.8823 5.45061 21.3817 4.48617 16.7376C4.47743 16.6955 4.46939 16.6532 4.46124 16.6109C4.45335 16.5705 4.44531 16.5301 4.43796 16.4896C4.42752 16.4322 4.41798 16.3745 4.4085 16.3168C4.40419 16.2904 4.39945 16.2639 4.39535 16.2374C4.38405 16.1644 4.37372 16.0914 4.36392 16.0181C4.36227 16.0057 4.36024 15.9933 4.3587 15.9809C4.34751 15.8947 4.33729 15.8082 4.32828 15.7217C4.32828 15.7213 4.32818 15.7208 4.32818 15.7205C4.29137 15.3668 4.27278 15.0109 4.27278 14.6552C4.27278 14.5749 4.27411 14.4946 4.27603 14.4143C4.27672 14.3879 4.27752 14.3616 4.27837 14.3353C4.28002 14.2813 4.28226 14.2273 4.28482 14.1733C4.28626 14.1418 4.28764 14.1104 4.2894 14.079C4.29212 14.0312 4.29553 13.9833 4.29888 13.9355C4.30479 13.853 4.31145 13.7706 4.31928 13.6884C4.32019 13.679 4.32093 13.6695 4.32184 13.6602C4.67105 10.1238 6.86122 6.98553 10.0619 5.43962C10.0619 5.44564 10.0615 5.45156 10.0615 5.45758C10.0615 5.86432 10.1175 6.25796 10.2205 6.63242C9.20064 7.17548 8.30506 7.89905 7.55438 8.78866C7.35196 9.02852 7.38238 9.387 7.62224 9.58931C7.72888 9.67933 7.85896 9.72322 7.98839 9.72322C8.15 9.72322 8.31055 9.65461 8.42289 9.52145C9.05703 8.76996 9.80921 8.15409 10.6633 7.68492C11.4331 9.00577 12.8642 9.89612 14.5001 9.89612C15.0017 9.89612 15.4947 9.81271 15.9649 9.64827C16.1697 9.57663 16.3159 9.39462 16.3416 9.1791C16.3672 8.96364 16.2679 8.75233 16.0856 8.63466C15.4836 8.24576 15.1242 7.58664 15.1242 6.87143C15.1242 5.7384 16.0274 4.813 17.1516 4.77587C20.9258 5.78564 23.7327 8.83734 24.5103 12.5567C24.5232 12.6183 24.5357 12.6799 24.5473 12.7417C24.5534 12.774 24.559 12.8065 24.5649 12.8388C24.574 12.8894 24.5829 12.94 24.5912 12.9908C24.5962 13.0211 24.6009 13.0515 24.6057 13.082C24.6145 13.139 24.6229 13.1962 24.6306 13.2534C24.6339 13.2772 24.6374 13.301 24.6405 13.3248C24.6621 13.4909 24.6798 13.6577 24.6933 13.8247C24.6949 13.8438 24.6961 13.8631 24.6975 13.8823C24.7024 13.9466 24.7067 14.0109 24.7103 14.0753C24.7117 14.1002 24.713 14.1253 24.7143 14.1504C24.7174 14.2116 24.7197 14.2729 24.7216 14.3342C24.7224 14.3579 24.7232 14.3816 24.7239 14.4053C24.7259 14.4886 24.7272 14.5719 24.7272 14.6551C24.7271 14.7448 24.7259 14.8346 24.7235 14.9242ZM25.7447 16.2995C25.7509 16.2566 25.7565 16.2134 25.7623 16.1703C25.7684 16.1249 25.7742 16.0793 25.7798 16.0336C25.7868 15.9762 25.7935 15.9188 25.7996 15.8614C25.8036 15.8238 25.8073 15.7861 25.8108 15.7483C25.8156 15.6988 25.8199 15.6493 25.824 15.5999C25.8269 15.5656 25.8299 15.5314 25.8324 15.497C25.8383 15.4181 25.8433 15.3392 25.8475 15.2601C25.8489 15.2347 25.8498 15.2092 25.851 15.1836C25.8539 15.1201 25.8563 15.0566 25.8582 14.993C25.859 14.9665 25.8597 14.94 25.8604 14.9135C25.8623 14.8273 25.8637 14.7412 25.8637 14.655C25.8637 14.58 25.8628 14.5051 25.8613 14.4301C25.8607 14.4029 25.8598 14.3757 25.8591 14.3485C25.8579 14.3015 25.8564 14.2545 25.8547 14.2074C25.8533 14.1739 25.8516 14.1405 25.8501 14.1071C25.8482 14.0666 25.8461 14.0262 25.8437 13.9858C25.8416 13.9495 25.8393 13.9133 25.8368 13.8771C25.8343 13.8398 25.8315 13.8026 25.8286 13.7654C25.8256 13.7276 25.8227 13.6898 25.8193 13.6521C25.8161 13.6157 25.8125 13.5794 25.809 13.543C25.8053 13.5056 25.8018 13.4681 25.7978 13.4306C25.7933 13.3883 25.7881 13.3463 25.7831 13.304C25.7775 13.2571 25.7718 13.2103 25.7656 13.1635C25.7588 13.1125 25.7522 13.0614 25.7448 13.0106C26.4674 13.2082 26.9999 13.8705 26.9999 14.6549C26.9998 15.4395 26.4673 16.1018 25.7447 16.2995Z" fill="white"/>
<path d="M25.5064 11.8229C24.6129 8.34521 22.1078 5.45427 18.7275 4.10332C18.1436 2.2799 16.4268 1.01871 14.5001 1.01871C12.5241 1.01871 10.8463 2.31692 10.2729 4.10498C8.2371 4.92038 6.49373 6.29594 5.21826 8.098C4.4125 9.23652 3.83157 10.4951 3.49141 11.823C2.02429 11.9326 0.86377 13.1605 0.86377 14.6551C0.86377 16.1505 2.02546 17.379 3.49376 17.4874C4.75548 22.3874 9.21161 26.0187 14.5001 26.0187C19.7884 26.0187 24.2446 22.3874 25.5062 17.4874C26.9745 17.379 28.1363 16.1505 28.1363 14.655C28.1363 13.1597 26.9746 11.9313 25.5064 11.8229ZM2.00021 14.655C2.00021 13.8709 2.53251 13.2089 3.25459 13.0109C3.2058 13.3491 3.17181 13.6905 3.15338 14.0346C3.15306 14.0394 3.1529 14.044 3.15264 14.0488C3.14933 14.1115 3.1464 14.1742 3.14417 14.237C3.14326 14.2608 3.14278 14.2846 3.14214 14.3084C3.14076 14.3535 3.13932 14.3985 3.13847 14.4436C3.13724 14.5141 3.1365 14.5845 3.1365 14.655C3.1365 14.741 3.13783 14.827 3.13985 14.9131C3.14044 14.94 3.14118 14.9669 3.14204 14.9937C3.14385 15.0563 3.1463 15.1189 3.14917 15.1815C3.15035 15.208 3.15141 15.2346 3.15274 15.2611C3.1569 15.3392 3.1619 15.4172 3.1676 15.4952C3.17032 15.5318 3.17352 15.5683 3.1765 15.6048C3.18039 15.6511 3.18444 15.6973 3.18886 15.7435C3.19275 15.7842 3.19674 15.825 3.20106 15.8655C3.20606 15.913 3.21176 15.9605 3.21736 16.0079C3.22476 16.07 3.2327 16.1319 3.24106 16.1937C3.24585 16.229 3.25027 16.2644 3.25539 16.2995C2.53288 16.1018 2.00021 15.4394 2.00021 14.655ZM14.5001 2.15515C15.6254 2.15515 16.6547 2.73309 17.2555 3.63772C17.2442 3.63761 17.2328 3.63756 17.2215 3.63756C17.2141 3.63756 17.207 3.63809 17.1996 3.63815C17.1968 3.63825 17.1939 3.6382 17.1911 3.63836C15.4219 3.65482 13.9878 5.09845 13.9878 6.87133C13.9878 7.56123 14.2045 8.21716 14.5939 8.75835C14.5627 8.7592 14.5313 8.75968 14.5001 8.75968C12.6793 8.75968 11.1979 7.27834 11.1979 5.45752C11.1979 3.63655 12.6792 2.15515 14.5001 2.15515ZM24.7235 14.9242C24.7232 14.9381 24.7224 14.9518 24.722 14.9657C24.7197 15.0418 24.7169 15.118 24.7129 15.1941C24.7122 15.2077 24.7111 15.2212 24.7103 15.2348C24.706 15.3108 24.7012 15.3869 24.6953 15.4629C24.6941 15.4782 24.6924 15.4934 24.6912 15.5088C24.6851 15.5822 24.6784 15.6555 24.6708 15.7288C24.6687 15.7492 24.6661 15.7695 24.6638 15.7898C24.6564 15.8569 24.6486 15.9239 24.6399 15.9909C24.6362 16.0189 24.632 16.0468 24.6281 16.0747C24.6201 16.1326 24.6119 16.1904 24.6028 16.2481C24.5969 16.2857 24.5905 16.323 24.5841 16.3604C24.5763 16.4071 24.5685 16.4538 24.56 16.5003C24.5513 16.5477 24.5421 16.5948 24.5328 16.6418C24.5259 16.6771 24.5189 16.7124 24.5116 16.7476C23.5433 21.3866 19.4222 24.8823 14.5 24.8823C9.57409 24.8823 5.45061 21.3817 4.48617 16.7376C4.47743 16.6955 4.46939 16.6532 4.46124 16.6109C4.45335 16.5705 4.44531 16.5301 4.43796 16.4896C4.42752 16.4322 4.41798 16.3745 4.4085 16.3168C4.40419 16.2904 4.39945 16.2639 4.39535 16.2374C4.38405 16.1644 4.37372 16.0914 4.36392 16.0181C4.36227 16.0057 4.36024 15.9933 4.3587 15.9809C4.34751 15.8947 4.33729 15.8082 4.32828 15.7217C4.32828 15.7213 4.32818 15.7208 4.32818 15.7205C4.29137 15.3668 4.27278 15.0109 4.27278 14.6552C4.27278 14.5749 4.27411 14.4946 4.27603 14.4143C4.27672 14.3879 4.27752 14.3616 4.27837 14.3353C4.28002 14.2813 4.28226 14.2273 4.28482 14.1733C4.28626 14.1418 4.28764 14.1104 4.2894 14.079C4.29212 14.0312 4.29553 13.9833 4.29888 13.9355C4.30479 13.853 4.31145 13.7706 4.31928 13.6884C4.32019 13.679 4.32093 13.6695 4.32184 13.6602C4.67105 10.1238 6.86122 6.98553 10.0619 5.43962C10.0619 5.44564 10.0615 5.45156 10.0615 5.45758C10.0615 5.86432 10.1175 6.25796 10.2205 6.63242C9.20064 7.17548 8.30506 7.89905 7.55438 8.78866C7.35196 9.02852 7.38238 9.387 7.62224 9.58931C7.72888 9.67933 7.85896 9.72322 7.98839 9.72322C8.15 9.72322 8.31055 9.65461 8.42289 9.52145C9.05703 8.76996 9.80921 8.15409 10.6633 7.68492C11.4331 9.00577 12.8642 9.89612 14.5001 9.89612C15.0017 9.89612 15.4947 9.81271 15.9649 9.64827C16.1697 9.57663 16.3159 9.39462 16.3416 9.1791C16.3672 8.96364 16.2679 8.75233 16.0856 8.63466C15.4836 8.24576 15.1242 7.58664 15.1242 6.87143C15.1242 5.7384 16.0274 4.813 17.1516 4.77587C20.9258 5.78564 23.7327 8.83734 24.5103 12.5567C24.5232 12.6183 24.5357 12.6799 24.5473 12.7417C24.5534 12.774 24.559 12.8065 24.5649 12.8388C24.574 12.8894 24.5829 12.94 24.5912 12.9908C24.5962 13.0211 24.6009 13.0515 24.6057 13.082C24.6145 13.139 24.6229 13.1962 24.6306 13.2534C24.6339 13.2772 24.6374 13.301 24.6405 13.3248C24.6621 13.4909 24.6798 13.6577 24.6933 13.8247C24.6949 13.8438 24.6961 13.8631 24.6975 13.8823C24.7024 13.9466 24.7067 14.0109 24.7103 14.0753C24.7117 14.1002 24.713 14.1253 24.7143 14.1504C24.7174 14.2116 24.7197 14.2729 24.7216 14.3342C24.7224 14.3579 24.7232 14.3816 24.7239 14.4053C24.7259 14.4886 24.7272 14.5719 24.7272 14.6551C24.7271 14.7448 24.7259 14.8346 24.7235 14.9242ZM25.7447 16.2995C25.7509 16.2566 25.7565 16.2134 25.7623 16.1703C25.7684 16.1249 25.7742 16.0793 25.7798 16.0336C25.7868 15.9762 25.7935 15.9188 25.7996 15.8614C25.8036 15.8238 25.8073 15.7861 25.8108 15.7483C25.8156 15.6988 25.8199 15.6493 25.824 15.5999C25.8269 15.5656 25.8299 15.5314 25.8324 15.497C25.8383 15.4181 25.8433 15.3392 25.8475 15.2601C25.8489 15.2347 25.8498 15.2092 25.851 15.1836C25.8539 15.1201 25.8563 15.0566 25.8582 14.993C25.859 14.9665 25.8597 14.94 25.8604 14.9135C25.8623 14.8273 25.8637 14.7412 25.8637 14.655C25.8637 14.58 25.8628 14.5051 25.8613 14.4301C25.8607 14.4029 25.8598 14.3757 25.8591 14.3485C25.8579 14.3015 25.8564 14.2545 25.8547 14.2074C25.8533 14.1739 25.8516 14.1405 25.8501 14.1071C25.8482 14.0666 25.8461 14.0262 25.8437 13.9858C25.8416 13.9495 25.8393 13.9133 25.8368 13.8771C25.8343 13.8398 25.8315 13.8026 25.8286 13.7654C25.8256 13.7276 25.8227 13.6898 25.8193 13.6521C25.8161 13.6157 25.8125 13.5794 25.809 13.543C25.8053 13.5056 25.8018 13.4681 25.7978 13.4306C25.7933 13.3883 25.7881 13.3463 25.7831 13.304C25.7775 13.2571 25.7718 13.2103 25.7656 13.1635C25.7588 13.1125 25.7522 13.0614 25.7448 13.0106C26.4674 13.2082 26.9999 13.8705 26.9999 14.6549C26.9998 15.4395 26.4673 16.1018 25.7447 16.2995Z" stroke="white" stroke-width="0.4" mask="url(#path-1-outside-1_1:1438)"/>
<path d="M8.04006 15.2997L8.04006 15.2997C8.31177 14.286 9.23434 13.5781 10.2836 13.5781C11.3331 13.5781 12.2556 14.286 12.5272 15.2997C12.6156 15.6295 12.4199 15.9685 12.09 16.0568M8.04006 15.2997L9.23432 15.6198L9.18602 15.6068L9.23432 15.6198M8.04006 15.2997C7.95168 15.6295 8.14739 15.9685 8.47715 16.0568L8.47717 16.0569M8.04006 15.2997L8.47717 16.0569M12.09 16.0568L12.0771 16.0086L12.09 16.0568C12.09 16.0568 12.09 16.0568 12.09 16.0568ZM12.09 16.0568C12.0365 16.0712 11.9826 16.078 11.9296 16.078C11.6567 16.078 11.4069 15.896 11.3328 15.6198C11.2058 15.1456 10.7743 14.8145 10.2836 14.8145C9.79295 14.8145 9.36142 15.1456 9.23432 15.6198M9.23432 15.6198C9.14593 15.9495 8.80701 16.1451 8.47717 16.0569M9.23432 15.6198L8.47717 16.0569" fill="white" stroke="white" stroke-width="0.1"/>
<path d="M16.473 15.2997L16.473 15.2997C16.7446 14.2861 17.6672 13.5781 18.7166 13.5781C19.766 13.5781 20.6885 14.2861 20.9601 15.2997C21.0485 15.6294 20.8528 15.9685 20.523 16.0568L16.473 15.2997ZM16.473 15.2997C16.3847 15.6295 16.5804 15.9685 16.9102 16.0568M16.473 15.2997L16.9102 16.0568M16.9102 16.0568C17.2399 16.1453 17.579 15.9495 17.6673 15.6197M16.9102 16.0568L17.6673 15.6197M17.6673 15.6197C17.7943 15.1456 18.2258 14.8145 18.7166 14.8145M17.6673 15.6197C17.6673 15.6197 17.6673 15.6197 17.6673 15.6197L18.7166 14.8145M18.7166 14.8145C19.2073 14.8145 19.6388 15.1456 19.7659 15.6198M18.7166 14.8145L19.7659 15.6198M19.7659 15.6198C19.8399 15.896 20.0896 16.078 20.3626 16.078M19.7659 15.6198L20.3626 16.078M20.3626 16.078C20.4156 16.078 20.4695 16.0712 20.523 16.0568L20.3626 16.078Z" fill="white" stroke="white" stroke-width="0.1"/>
<path d="M16.3067 19.251L16.3067 19.2509L15.5978 19.701L15.5495 19.6881C15.5495 19.6881 15.5495 19.6881 15.5495 19.6881C15.4224 20.1622 14.9909 20.4934 14.5003 20.4934C14.0095 20.4934 13.578 20.1622 13.451 19.6881L13.451 19.6881C13.3626 19.3583 13.0236 19.1626 12.6938 19.251C12.364 19.3393 12.1684 19.6783 12.2567 20.0081C12.5284 21.0219 13.4509 21.7298 14.5003 21.7298C15.5497 21.7298 16.4722 21.0218 16.7439 20.0081L16.7439 20.0081C16.8321 19.6784 16.6364 19.3393 16.3067 19.251ZM16.294 19.2983L16.294 19.2983L16.294 19.2983Z" fill="white" stroke="white" stroke-width="0.1"/>
</svg>