<svg width="27" height="25" viewBox="0 0 27 25" fill="none" xmlns="http://www.w3.org/2000/svg">
<path d="M23.6784 13.5734C23.1043 19.7517 17.6375 24.2949 11.4593 23.7207C5.28105 23.1466 0.737868 17.6798 1.31201 11.5016C1.81126 6.10965 6.07985 1.85353 11.4593 1.35428C8.58859 5.23596 9.41235 10.7028 13.294 13.5734C16.3769 15.845 20.5956 15.845 23.6784 13.5734Z" stroke="white" stroke-width="2" stroke-linecap="round" stroke-linejoin="round"/>
<path d="M19.5845 8.65584C19.4597 8.55599 19.3099 8.51855 19.1602 8.53103H16.8511L19.0229 6.10966L19.2351 5.885L19.3599 5.72274C19.3973 5.67282 19.4223 5.61041 19.4472 5.56048C19.4722 5.49808 19.4847 5.43567 19.4847 5.36078C19.4972 5.19853 19.4223 5.04875 19.285 4.96138C19.1102 4.87401 18.9105 4.83657 18.7108 4.84905H15.9899C15.8526 4.83657 15.7029 4.88649 15.5905 4.97386C15.4907 5.04875 15.4408 5.17356 15.4408 5.29838C15.4408 5.4856 15.5032 5.59793 15.628 5.64785C15.8027 5.69778 15.9899 5.72274 16.1771 5.71026H17.937C17.8621 5.81011 17.7748 5.93492 17.6499 6.07222L17.2006 6.58395L16.6015 7.25794L15.915 8.04426C15.6654 8.31885 15.5032 8.50606 15.4283 8.60592C15.266 8.8181 15.291 9.10517 15.4782 9.29238C15.628 9.40472 15.8027 9.45464 15.9774 9.44216H19.1727C19.3224 9.45464 19.4722 9.40472 19.597 9.31735C19.6844 9.22998 19.7343 9.11765 19.7343 8.99283C19.7343 8.85554 19.6844 8.74321 19.5845 8.65584Z" fill="white"/>
<path d="M26.7988 4.78665C26.649 4.66184 26.4618 4.61191 26.2746 4.6244H23.3664L26.0873 1.59145L26.337 1.30438L26.4992 1.10468C26.5491 1.04227 26.5866 0.967382 26.6116 0.892494C26.649 0.817606 26.6615 0.730237 26.6615 0.642869C26.6864 0.443168 26.5866 0.243468 26.4119 0.143617C26.1747 0.0562485 25.9251 0.0063234 25.6755 0.0188047H22.2681C22.0933 0.0063234 21.9061 0.0562485 21.7688 0.16858C21.6565 0.26843 21.5816 0.418206 21.5941 0.580462C21.5941 0.817606 21.669 0.9549 21.8312 1.00483C22.0559 1.06723 22.2806 1.09219 22.5177 1.09219H24.7144C24.627 1.21701 24.5022 1.36678 24.3524 1.54152L23.7783 2.19055L23.0294 3.01431L22.1433 4.00033C21.8312 4.34981 21.6315 4.57447 21.5442 4.6868C21.332 4.94891 21.3569 5.33583 21.6066 5.57297C21.7938 5.71027 22.0184 5.77267 22.2431 5.76019H26.2496C26.4493 5.78515 26.6365 5.73523 26.7988 5.6229C26.9111 5.52305 26.986 5.37327 26.9735 5.21102C26.986 5.04876 26.9236 4.89898 26.7988 4.78665Z" fill="white"/>
</svg>